<svg id="SvgjsSvg1001" width="288" height="288" xmlns="http://www.w3.org/2000/svg" version="1.1" xmlns:xlink="http://www.w3.org/1999/xlink" xmlns:svgjs="http://svgjs.com/svgjs"><defs id="SvgjsDefs1002"></defs><g id="SvgjsG1008"><svg xmlns="http://www.w3.org/2000/svg" fill="none" viewBox="0 0 24 24" width="288" height="288"><path fill="#d2bef1" d="M5.67363 18.9999H11C12.6569 18.9999 14 17.6568 14 15.9999V5.28979C16.8915 6.15034 19 8.8289 19 11.9999V15.9999C19 19.8659 15.866 22.9999 12 22.9999C9.2076 22.9999 6.79709 21.3649 5.67363 18.9999Z" class="colorC4E6FF svgShape"></path><path fill="#911cff" d="M3 12C3 7.02944 7.02944 3 12 3C16.9706 3 21 7.02944 21 12V18C21 19.6569 19.6569 21 18 21H16C15.4477 21 15 21.4477 15 22C15 22.5523 15.4477 23 16 23H18C20.7614 23 23 20.7614 23 18V12C23 5.92487 18.0751 1 12 1C5.92487 1 1 5.92487 1 12L1 14C0.999999 14.5523 1.44771 15 2 15C2.55228 15 3 14.5523 3 14L3 12Z" class="color024493 svgShape"></path><path fill="#161622" fill-rule="evenodd" d="M3 10C1.89543 10 1 10.8954 1 12V15C1 16.6569 2.34315 18 4 18H6C6.55228 18 7 17.5523 7 17V11C7 10.4477 6.55228 10 6 10H3ZM3 12H5V16H4C3.44772 16 3 15.5523 3 15V12ZM21 10C22.1046 10 23 10.8954 23 12V15C23 16.6569 21.6569 18 20 18H18C17.4477 18 17 17.5523 17 17V11C17 10.4477 17.4477 10 18 10H21ZM21 12H19V16H20C20.5523 16 21 15.5523 21 15V12Z" clip-rule="evenodd" class="color1E93FF svgShape"></path><path fill="#911cff" fill-rule="evenodd" d="M5 12C5 8.13401 8.13401 5 12 5C15.866 5 19 8.13401 19 12V16C19 16.8164 18.8598 17.6021 18.6014 18.3332C18.4174 18.854 17.8461 19.1269 17.3253 18.9428C16.8046 18.7588 16.5317 18.1875 16.7157 17.6668C16.8995 17.1467 17 16.5862 17 16V12C17 9.23858 14.7614 7 12 7C9.23858 7 7 9.23858 7 12V16C7 18.7614 9.23858 21 12 21C12.5523 21 13 21.4477 13 22C13 22.5523 12.5523 23 12 23C8.13401 23 5 19.866 5 16V12Z" clip-rule="evenodd" class="color024493 svgShape"></path></svg></g></svg>