<svg id="SvgjsSvg1001" width="288" height="288" xmlns="http://www.w3.org/2000/svg" version="1.1" xmlns:xlink="http://www.w3.org/1999/xlink" xmlns:svgjs="http://svgjs.com/svgjs"><defs id="SvgjsDefs1002"></defs><g id="SvgjsG1008"><svg xmlns="http://www.w3.org/2000/svg" data-name="Layer 1" viewBox="0 0 48 48" width="288" height="288"><path fill="#161622" d="M13,10H8a5.00588,5.00588,0,0,0-5,5v4a.99974.99974,0,0,0,1,1h9a.99974.99974,0,0,0,1-1V11A.99974.99974,0,0,0,13,10Z" class="color55baf2 svgShape"></path><path fill="#98db7c" d="M35,3H14a2.00229,2.00229,0,0,0-2,2V18a.99974.99974,0,0,0,1,1H36a.99974.99974,0,0,0,1-1V5A2.00229,2.00229,0,0,0,35,3Z" class="color98db7c svgShape"></path><path fill="#6cbf40" d="M32,10a2.00229,2.00229,0,0,1-2-2,.99974.99974,0,0,0-1-1H20a.99974.99974,0,0,0-1,1,2.00229,2.00229,0,0,1-2,2,.99974.99974,0,0,0-1,1v7a.99974.99974,0,0,0,1,1H32a.99974.99974,0,0,0,1-1V11A.99974.99974,0,0,0,32,10Z" class="color6cbf40 svgShape"></path><path fill="#911cff" d="M40,17H3V42a3,3,0,0,0,3,3H40a3,3,0,0,0,3-3V20A3,3,0,0,0,40,17Z" class="color8bcaff svgShape"></path><path fill="#161622" d="M9,38.5a.99974.99974,0,0,1-1-1v-13a1,1,0,0,1,2,0v13A.99974.99974,0,0,1,9,38.5Z" class="colorffe27a svgShape"></path><rect width="17" height="12" x="28" y="26" fill="#161622" rx="2" class="colorffe27a svgShape"></rect><circle cx="34" cy="32" r="2" fill="#ffffff" class="colorfff svgShape"></circle></svg></g></svg>