<svg xmlns="http://www.w3.org/2000/svg" viewBox="0 0 32 32" width="288" height="288"><g data-name="Layer 18"><path fill="#ffffff" d="M16,30.75A14.75,14.75,0,1,1,30.75,16,14.77,14.77,0,0,1,16,30.75Zm0-28A13.25,13.25,0,1,0,29.25,16,13.26,13.26,0,0,0,16,2.75Z" class="color192965 svgShape"></path><path fill="#ffffff" d="M20.17,20.92a.75.75,0,0,1-.53-.22l-4.17-4.17a.75.75,0,0,1-.22-.53V7.06a.75.75,0,1,1,1.5,0v8.63l3.95,4a.75.75,0,0,1,0,1.06A.79.79,0,0,1,20.17,20.92Z" class="color192965 svgShape"></path></g></svg>