<svg id="SvgjsSvg1001" width="288" height="288" xmlns="http://www.w3.org/2000/svg" version="1.1" xmlns:xlink="http://www.w3.org/1999/xlink" xmlns:svgjs="http://svgjs.com/svgjs"><defs id="SvgjsDefs1002"></defs><g id="SvgjsG1008"><svg xmlns="http://www.w3.org/2000/svg" enable-background="new 0 0 24 24" viewBox="0 0 24 24" width="288" height="288"><path fill="#886cff" d="M21.2,8.2l-0.4,1l-3.5,8c-0.4,0.9-1.1,1.7-1.9,2.3l-1.9,1.2c-0.2,0.1-0.3,0.2-0.5,0.2c-0.1,0-0.3,0-0.4-0.1
		c-0.3-0.1-0.5-0.4-0.6-0.7l-0.4-2.2c-0.2-1-0.1-2,0.3-2.9l2-4.6l1.6-3.5l0.4-0.9c0.1-0.2,0.3-0.4,0.5-0.5c0.3-0.1,0.5-0.1,0.8,0
		l1.1,0.5l2.4,1.1C21.1,7.1,21.4,7.7,21.2,8.2z" class="color886cff svgShape"></path><path fill="#8e0bd8" d="M21.8,6.7l-0.6,1.4l-0.4,1l-4-1.9l-1.4-0.6l0.4-0.9l0.6-1.3c0.7-1.5,2.4-2.2,3.9-1.5c0.2,0.1,0.4,0.2,0.6,0.3
		c0.5,0.3,0.8,0.8,1,1.3C22.1,5.2,22.1,6,21.8,6.7z" class="color584ae5 svgShape"></path><path fill="#780aaf" d="M8 16c0 .5-.5 1-1 1H3c-.5 0-1-.5-1-1s.5-1 1-1h4C7.5 15 8 15.5 8 16zM10 20c0 .5-.5 1-1 1H3c-.5 0-1-.5-1-1s.5-1 1-1h6C9.5 19 10 19.5 10 20z" class="color4c49b2 svgShape"></path><path d="M7 17l1-1C8 16.5 7.5 17 7 17zM10 20c0 .5-.5 1-1 1H3l2-2h4C9.5 19 10 19.5 10 20zM21.8 6.7l-.6 1.4-.4 1-3.5 8c-.4.9-1.1 1.7-1.9 2.3l-1.9 1.2c-.2.1-.3.2-.5.2-.1 0-.3 0-.4-.1-.3-.1-.5-.4-.6-.7l-.4-2.2c-.2-1-.1-2 .3-2.9l2-4.6 4.4-4.4 2.6-2.6c.5.3.8.8 1 1.3C22.1 5.2 22.1 6 21.8 6.7z" opacity=".1"></path></svg></g></svg>