<svg id="SvgjsSvg1001" width="288" height="288" xmlns="http://www.w3.org/2000/svg" version="1.1" xmlns:xlink="http://www.w3.org/1999/xlink" xmlns:svgjs="http://svgjs.com/svgjs"><defs id="SvgjsDefs1002"></defs><g id="SvgjsG1008"><svg xmlns="http://www.w3.org/2000/svg" fill-rule="evenodd" stroke-linejoin="round" stroke-miterlimit="2" clip-rule="evenodd" viewBox="0 0 64 64" width="288" height="288"><rect width="64" height="64" fill="none"></rect><path fill="#aa00ff" d="M16,282.8L16,292L48,292L48,246L16,246L16,255.2" transform="matrix(.375 0 0 .86957 20 -201.913)" class="color3fc1c9 svgShape"></path><path fill="#455363" d="M21.333,248.3L21.333,255.2C21.333,256.469 18.944,257.5 16,257.5C13.056,257.5 10.667,256.469 10.667,255.2L10.667,246C10.667,244.73 13.054,243.7 16,243.7L48,243.7C50.946,243.7 53.333,244.73 53.333,246L53.333,292C53.333,293.27 50.946,294.3 48,294.3L16,294.3C13.054,294.3 10.667,293.27 10.667,292L10.667,282.8C10.667,281.531 13.056,280.5 16,280.5C18.944,280.5 21.333,281.531 21.333,282.8L21.333,289.7L42.667,289.7L42.667,248.3L21.333,248.3Z" transform="matrix(.375 0 0 .86957 20 -201.913)" class="color364f6b svgShape"></path><path fill="#455363" d="M28,270L8,270C6.896,270 6,270.896 6,272C6,273.104 6.896,274 8,274L28,274C29.104,274 30,273.104 30,272C30,270.896 29.104,270 28,270Z" transform="translate(2 -240)" class="color364f6b svgShape"></path><path fill="#455363" d="M8.828,272L12.414,268.414C13.195,267.634 13.195,266.366 12.414,265.586C11.634,264.805 10.366,264.805 9.586,265.586L4.586,270.586C3.805,271.367 3.805,272.633 4.586,273.414L9.586,278.414C10.366,279.195 11.634,279.195 12.414,278.414C13.195,277.634 13.195,276.366 12.414,275.586L8.828,272Z" transform="matrix(-1 0 0 1 36 -240)" class="color364f6b svgShape"></path><path fill="#455363" d="M45.8,252C45.8,251.166 45.231,250.42 44.372,250.127L26.772,244.127C26.097,243.897 25.34,243.983 24.747,244.356C24.154,244.73 23.8,245.344 23.8,246L23.8,298C23.8,298.656 24.154,299.27 24.747,299.644C25.34,300.017 26.097,300.103 26.772,299.873L44.372,293.873C45.231,293.58 45.8,292.834 45.8,292L45.8,252ZM28.2,295.114L41.4,290.614L41.4,253.386L28.2,248.886L28.2,295.114Z" transform="matrix(.9091 0 0 1 14.364 -240)" class="color364f6b svgShape"></path><path fill="#455363" d="M44,274L46,274C47.104,274 48,273.104 48,272C48,270.896 47.104,270 46,270L44,270C42.896,270 42,270.896 42,272C42,273.104 42.896,274 44,274Z" transform="translate(0 -240)" class="color364f6b svgShape"></path></svg></g></svg>