<svg id="SvgjsSvg1048" width="288" height="288" xmlns="http://www.w3.org/2000/svg" version="1.1" xmlns:xlink="http://www.w3.org/1999/xlink" xmlns:svgjs="http://svgjs.com/svgjs"><defs id="SvgjsDefs1049"></defs><g id="SvgjsG1050"><svg xmlns="http://www.w3.org/2000/svg" fill-rule="evenodd" clip-rule="evenodd" image-rendering="optimizeQuality" shape-rendering="geometricPrecision" text-rendering="geometricPrecision" viewBox="0 0 1706.66 1706.66" width="288" height="288"><path fill="#fbf5f5" d="M1094.22 1183.16l-773.38 0c-26.3,0 2.19,-575.43 42.06,-595.64 188.55,-95.57 240.74,-261.35 277.72,-365.86 20.06,-56.72 95.93,-103.76 136.19,-0.83 37.53,95.93 10.77,220.91 -7.07,283.13l336.14 0c26.33,0 26.33,40 0,40l-28.06 0c144.56,33.67 -65.65,185.94 4.79,513.79l11.62 85.42c1.97,14.51 35.52,-12.98 43.43,8.92 9.24,25.55 -26.19,31.08 -43.43,31.08z" class="colorc3c3c4 svgShape"></path><path fill="#dedcdc" d="M309.91 1183.17l-216.84 0c-51.3,0 -93.05,-41.74 -93.05,-93.05l0 -446.32c0,-51.3 41.74,-93.04 93.05,-93.04l216.84 -0c51.31,0 93.06,41.74 93.06,93.04l0 446.32c-0.01,51.31 -41.75,93.05 -93.06,93.05z" class="color888 svgShape"></path><path fill="#ffffff" d="M201.48 1086.28c-101.43,0 -101.45,-154.15 0,-154.15 101.44,0 101.43,154.15 0,154.15z" class="colorfff svgShape"></path><path fill="#701ebf" d="M1240.94 1547.06c-10.8,0 -20.72,-6.47 -24.98,-16.6l-51.88 -123.04 -101.92 81.26c-21.22,16.91 -51.65,-4.98 -42.41,-30.47l112.91 -311.04c6.03,-16.61 22.25,-22 37.73,-14.61l110.42 50.15c17.21,-11.76 47.47,0.09 42.69,27.04l-55.82 314.89c-2.29,12.94 -13.57,22.41 -26.74,22.41z" class="color707071 svgShape"></path><path fill="#701ebf" d="M1376.23 1547.06c-13.15,0 -24.44,-9.49 -26.74,-22.42l-55.83 -314.9c-3.74,-21.06 13.86,-32.87 29.95,-31.46l113.88 -38.54c11.93,-14.13 38.67,-15.66 47.04,7.41l112.88 311.05c9.28,25.57 -21.11,47.46 -42.41,30.47l-101.9 -81.26 -51.87 123.04c-4.28,10.15 -14.19,16.6 -24.98,16.6z" class="color707071 svgShape"></path><path fill="#9824f3" d="M1308.58 1234.8c-32.99,0 -58.54,-35.83 -89.33,-66.63 -123.64,33.09 -121.64,34.15 -154.72,-89.37 -42.94,-11.51 -125.55,-19.48 -107.87,-85.51l18.52 -69.21c-90.73,-90.73 -90.73,-87.9 0,-178.63 -11.49,-42.95 -45.87,-118.5 20.17,-136.17l69.19 -18.54c11.68,-43.61 20.01,-125.5 85.52,-107.88l69.21 18.54c90.26,-90.26 88.41,-90.21 178.65,0.02 123.64,-33.13 121.65,-34.16 154.74,89.35 42.94,11.51 125.54,19.49 107.87,85.51l-18.52 69.2c90.74,90.74 90.73,87.91 0,178.63 11.5,42.95 45.87,118.5 -20.16,136.17l-69.2 18.55c-11.67,43.57 -20.03,125.52 -85.51,107.87l-69.21 -18.52c-30.82,30.81 -56.34,66.61 -89.33,66.61z" class="color979797 svgShape"></path><path fill="#d9d9d9" d="M1308.58 1093.39c-142.59,0 -258.61,-116.02 -258.61,-258.6 0,-142.59 116.02,-258.61 258.61,-258.61 142.59,0 258.61,116.02 258.61,258.61 0,142.59 -116.02,258.6 -258.61,258.6z" class="colord9d9d9 svgShape"></path><path fill="#ffffff" d="M1308.58 1055.65c-121.78,0 -220.87,-99.09 -220.87,-220.87 0,-121.78 99.09,-220.87 220.87,-220.87 121.78,0 220.86,99.09 220.86,220.87 0,121.78 -99.09,220.87 -220.86,220.87z" class="colorfff svgShape"></path><path fill="#780ee0" d="M1309.39 969.94c-14.98,0 -27.13,-12.17 -27.13,-27.13l0 -149.48c-26.24,20.23 -59.34,-16.34 -36.02,-40.38 28.32,-29.2 48.85,-61.2 73.36,-51.3 10.23,4.17 16.94,14.11 16.94,25.15l0 216.01c-0.02,14.95 -12.16,27.13 -27.15,27.13z" class="color505050 svgShape"></path><path fill="#780ee0" d="M1351.46 969.94c-53.87,0 -111.3,11.02 -111.3,-27.13 0,-38.16 57.46,-27.13 111.3,-27.13 35.72,0 35.72,54.27 0,54.27z" class="color505050 svgShape"></path></svg></g></svg>