<svg xmlns="http://www.w3.org/2000/svg" fill-rule="evenodd" clip-rule="evenodd" image-rendering="optimizeQuality" shape-rendering="geometricPrecision" text-rendering="geometricPrecision" viewBox="0 0 512 512"><defs><linearGradient id="a" x1="478.72" x2="33.28" y1="256" y2="256" gradientUnits="userSpaceOnUse"><stop class="stopColorf071ab svgShape" offset="0" stop-color="#9a11ea"/><stop class="stopColor22abe2 svgShape" offset="1" stop-color="#7b1cdf"/></linearGradient></defs><path fill="url(#a)" d="M431 380c-1,0 -3,-1 -4,-2 -2,-2 -2,-6 0,-8 42,-44 64,-102 64,-162 0,-61 -22,-118 -64,-162 -2,-2 -2,-6 0,-9 3,-2 6,-2 9,1 43,46 67,106 67,170 0,63 -24,124 -67,170 -1,1 -3,2 -5,2zm-175 132c-2,0 -4,-1 -5,-3l-66 -106c-82,-30 -137,-108 -137,-195 0,-115 93,-208 208,-208 115,0 208,93 208,208 0,87 -55,165 -137,195l-66 106c-1,2 -3,3 -5,3zm-123 -214c-45,0 -30,-68 -6,-133 28,-80 91,-34 93,-34l72 0c2,0 65,-46 93,34 24,65 39,133 -6,133 -37,0 -110,-60 -122,-58 -1,1 -2,1 -2,0 0,0 0,0 -1,0 -13,0 -84,58 -121,58zm10 -203c-5,0 -8,-7 -4,-11 66,-62 168,-62 234,0 6,6 -3,14 -8,9 -61,-58 -157,-58 -218,0 -1,1 -2,2 -4,2zm113 283c-44,0 -85,-17 -117,-47 -6,-5 3,-14 8,-8 61,57 157,57 218,0 5,-6 14,3 8,8 -32,30 -73,47 -117,47zm30 -164l-60 0c-7,0 -7,-12 0,-12l60 0c7,0 7,12 0,12zm-8 -23l-44 0c-8,0 -8,-12 0,-12l44 0c8,0 8,12 0,12zm8 -23l-60 0c-7,0 -7,-12 0,-12l60 0c7,0 7,12 0,12zm-166 60c29,-10 59,7 67,36 71,-41 60,-48 115,-13 8,4 15,9 23,13 8,-29 38,-46 67,-36 -3,-15 -9,-35 -18,-59 -9,-26 -23,-39 -42,-39 -21,0 -32,13 -38,13l-76 0c-6,0 -17,-13 -38,-13 -19,0 -33,13 -42,39 -9,24 -15,44 -18,59zm-3 15c-8,54 18,50 59,27 -5,-27 -35,-41 -59,-27zm219 27c19,11 46,23 55,11 4,-4 7,-14 4,-38 -24,-14 -54,0 -59,27zm-18 -77c-8,0 -8,-13 0,-13 8,0 8,13 0,13zm23 0c-8,0 -8,-13 0,-13 8,0 8,13 0,13zm-11 11c-9,0 -9,-12 0,-12 8,0 8,12 0,12zm0 -23c-9,0 -9,-12 0,-12 8,0 8,12 0,12zm-147 21c-7,0 -6,-6 -6,-10 -4,0 -10,1 -10,-6 0,-6 6,-6 10,-6 0,-3 -1,-9 6,-9 6,0 6,6 6,9 3,0 9,0 9,6 0,7 -6,6 -9,6 0,4 0,10 -6,10zm146 19c-19,0 -34,-16 -34,-35 0,-18 15,-34 34,-34 19,0 35,16 35,34 0,19 -16,35 -35,35zm0 -57c-12,0 -22,10 -22,22 0,13 10,23 22,23 13,0 23,-10 23,-23 0,-12 -10,-22 -23,-22zm-146 57c-19,0 -35,-16 -35,-35 0,-18 16,-34 35,-34 19,0 34,16 34,34 0,19 -15,35 -34,35zm0 -57c-13,0 -23,10 -23,22 0,13 10,23 23,23 12,0 22,-10 22,-23 0,-12 -10,-22 -22,-22zm-102 216c-2,0 -4,-1 -5,-2 -43,-46 -67,-107 -67,-170 0,-64 24,-124 67,-170 3,-3 6,-3 9,-1 2,3 2,7 0,9 -42,44 -64,101 -64,162 0,60 22,118 64,162 2,2 2,6 0,8 -1,1 -3,2 -4,2z"/></svg>