<svg xmlns="http://www.w3.org/2000/svg" fill-rule="evenodd" clip-rule="evenodd" image-rendering="optimizeQuality" shape-rendering="geometricPrecision" text-rendering="geometricPrecision" viewBox="0 0 1707 1707"><defs><linearGradient id="a" x1="-38.634" x2="1745.3" y1="325.492" y2="1381.23" gradientUnits="userSpaceOnUse"><stop class="stopColor401379 svgShape" offset="0" stop-color="#fff"/><stop class="stopColor8a0b92 svgShape" offset=".502" stop-color="#7b1cdf"/><stop class="stopColorec067f svgShape" offset="1" stop-color="#9a11ea"/></linearGradient></defs><path fill="url(#a)" d="M1328 1167c-38,0 -48,-3 -48,20l97 0c-1,-28 -18,-20 -49,-20zm-19 -40l3 -262 -176 0 0 92c61,0 50,0 50,87 0,11 -9,20 -20,20l-625 0c-28,0 -20,-45 -20,-87 0,-26 33,-20 50,-20l0 -92 -176 0 3 262 15 0c30,0 53,24 53,53 0,2 0,4 0,7l113 0c73,0 132,58 143,140l33 254c7,56 -31,93 -83,93 -36,0 -74,-17 -91,-51l-72 -143 -261 0 -73 143c-38,77 -188,68 -173,-42l33 -254c10,-82 69,-140 143,-140l112 0c0,-32 18,-60 53,-60l15 0 -3 -281c0,-11 9,-21 20,-21l196 0 0 -105c0,-20 16,-36 35,-36l138 0 0 -116c-45,-21 -84,-54 -110,-96 -107,-6 -197,-99 -197,-211l0 -94c0,-32 26,-58 58,-58l97 0 0 -56c0,-11 9,-20 20,-20l483 0c11,0 20,9 20,20l0 56 97 0c32,0 58,26 58,58l0 94c0,112 -90,205 -196,211 -27,42 -65,75 -110,96l0 116 137 0c20,0 35,16 35,36l0 105 196 0c11,0 20,10 20,21l-3 281c41,0 66,11 68,60l112 0c73,0 132,57 143,140l33 254c14,110 -135,119 -174,42l-72 -143 -261 0 -72 143c-41,80 -188,64 -174,-42l33 -254c11,-83 70,-140 143,-140l112 0c0,-32 18,-60 53,-60l16 0zm72 295l-139 0c-26,0 -26,-40 0,-40l139 0c26,0 27,40 0,40zm110 -69c-20,0 -49,5 -49,-20 0,-25 29,-20 49,-20 26,0 26,40 0,40zm101 0c-19,0 -49,5 -49,-20 0,-25 30,-20 49,-20 26,0 26,40 0,40zm-65 66c-25,0 -20,-30 -20,-50 0,-26 40,-26 40,0 0,20 5,50 -20,50zm0 -102c-25,0 -20,-30 -20,-49 0,-26 40,-26 40,0 0,20 5,49 -20,49zm-134 -29c-21,0 -52,5 -52,-20 0,-25 31,-20 52,-20 26,0 26,40 0,40zm-131 0c-21,0 -52,5 -52,-20 0,-25 31,-20 52,-20 26,0 26,40 0,40zm-112 65l-23 0c0,16 4,43 -20,43 -23,0 -20,-27 -20,-43l-22 0c-26,0 -26,-40 0,-40l22 0 0 -22c0,-27 40,-27 40,0l0 22 23 0c26,0 26,40 0,40zm36 87l285 0c8,0 15,4 18,11l78 154c19,37 107,46 99,-19l-34 -254c-6,-51 -41,-106 -103,-106l-401 0c-62,0 -97,55 -103,106l-34 254c-8,65 81,56 99,19l78 -154c3,-7 10,-11 18,-11zm-808 -273c-38,0 -48,-3 -48,20l97 0c-1,-28 -19,-20 -49,-20zm87 255l-140 0c-26,0 -26,-40 0,-40l140 0c26,0 26,40 0,40zm-220 -69c-19,0 -49,5 -49,-20 0,-25 30,-20 49,-20 26,0 26,40 0,40zm-101 0c-20,0 -49,5 -49,-20 0,-25 29,-20 49,-20 26,0 26,40 0,40zm36 66c-25,0 -20,-30 -20,-50 0,-26 40,-26 40,0 0,20 5,50 -20,50zm0 -102c-25,0 -20,-29 -20,-49 0,-26 40,-26 40,0 0,19 5,49 -20,49zm166 -29c-22,0 -52,5 -52,-20 0,-25 30,-20 52,-20 26,0 26,40 0,40zm131 0c-22,0 -52,5 -52,-20 0,-25 30,-20 52,-20 26,0 26,40 0,40zm165 65l-23 0c0,16 4,43 -20,43 -23,0 -20,-27 -20,-43l-22 0c-27,0 -27,-40 0,-40l22 0 0 -22c0,-27 40,-27 40,0l0 22 23 0c26,0 26,40 0,40zm-407 87l286 0c7,0 14,4 18,11l78 154c18,37 107,46 98,-19l-33 -254c-7,-51 -42,-106 -103,-106l-401 0c-62,0 -97,55 -104,106l-33 254c-8,65 80,56 99,19l78 -154c3,-7 10,-11 17,-11zm535 -1004c-12,0 -21,-11 -20,-23l11 -82 -57 -60c-11,-12 -5,-31 11,-34l82 -15 39 -73c8,-14 28,-14 35,0l40 73 82 15c15,3 22,22 11,34l-58 60 11 82c2,16 -14,28 -28,21l-75 -36c-13,6 -74,38 -84,38zm84 -80c9,0 48,21 59,26 -11,-78 -18,-56 36,-112 -77,-14 -58,0 -95,-69 -37,69 -18,55 -96,69 55,56 47,34 37,112 10,-5 50,-26 59,-26zm-243 72c-12,-30 -19,-64 -19,-97l0 -182 -97 0c-10,0 -18,8 -18,18l0 94c0,81 58,150 134,167zm21 -97c1,123 102,222 222,222 124,0 221,-103 222,-222l0 -258 -444 0 0 258zm483 -182l0 190c-1,31 -7,62 -18,89 76,-17 133,-86 133,-167l0 -94c0,-10 -8,-18 -18,-18l-97 0zm-305 440c-9,-1 -18,-3 -26,-6l0 101 140 0 0 -101c-37,11 -76,12 -114,6zm183 304l-278 0c-11,0 -20,-9 -20,-20l0 -149 -84 0 0 232 485 0 0 -232 -83 0 0 149c0,11 -9,20 -20,20zm-258 -40l238 0 0 -129 -238 0 0 129zm381 143l-555 0 0 28 585 0 0 -28 -30 0zm-15 -272l0 0z"/></svg>