<svg xmlns="http://www.w3.org/2000/svg" enable-background="new 0 0 110 110" viewBox="0 0 110 110"><polygon fill="#c895fe" points="15.841 59.672 23.762 63.717 31.734 59.672 23.813 56.646" class="color95e2fe svgShape"/><path fill="#b371f8" d="M15.84091,59.6723213l0.0278339,10.6063347l7.9207001,3.0262299
								c1.1110592-2.2164154,1.3844128-8.5358505-0.0277996-10.6063271L15.84091,59.6723213z" class="color71d8f8 svgShape"/><polygon fill="#9e4df3" points="23.762 62.699 23.789 73.305 31.762 70.279 31.734 59.672" class="color4dcdf3 svgShape"/><path fill="#7e30cf" d="M28.7800732,68.1766434c-0.7230091,0.6729202-1.7653008,0.6534805-2.3276348-0.0434113
											c-0.5628452-0.6975327-0.4325485-1.8083267,0.2904587-2.4812469
											c0.7236652-0.6735382,1.7659569-0.6540985,2.328804,0.0434341
											C29.6340351,66.3923111,29.5037384,67.5031052,28.7800732,68.1766434z" class="color304ccf svgShape"/><path fill="#a54fff" d="M28.4232845,67.7853699c0.6748333-0.6280441,0.8330975-1.6360321,0.3955326-2.3343811
										c0.8323307,0.6316986,0.7855377,1.9584808-0.0387554,2.7256546
										c-0.7620621,0.7093201-1.9002533,0.6568909-2.4316177-0.1904602
										C26.9343681,68.4303894,27.7979622,68.3673782,28.4232845,67.7853699z" class="color4f91ff svgShape"/><path fill="#eadbfa" d="M27.5478401,66.90448c0.0907803-0.1623459,0.2960052-0.220314,0.4583111-0.1296387L47.5036583,77.678154
						c0.1625099,0.0905991,0.2202377,0.2961426,0.1294861,0.4582443c-0.0907784,0.1623535-0.2960052,0.2203217-0.458313,0.1296463
						L27.6773281,67.3627319C27.5148506,67.2718506,27.4570675,67.0662231,27.5478401,66.90448z" class="colordbe6fa svgShape"/><polygon fill="#c895fe" points="94.159 59.672 86.238 63.717 78.266 59.672 86.187 56.646" class="color95e2fe svgShape"/><path fill="#9e4df3" d="M94.1590881,59.6723213l-0.027832,10.6063347l-7.9207001,3.0262299
								c-1.1110611-2.2164154-1.3844147-8.5358505,0.0278015-10.6063271L94.1590881,59.6723213z" class="color4dcdf3 svgShape"/><polygon fill="#b371f8" points="86.238 62.699 86.211 73.305 78.238 70.279 78.266 59.672" class="color71d8f8 svgShape"/><path fill="#7e30cf" d="M80.928299,65.6954193c0.5628433-0.6975327,1.6051407-0.7169724,2.328804-0.0434341
											c0.7230072,0.6729202,0.853302,1.7837143,0.2904587,2.4812469
											c-0.5623322,0.6968918-1.6046295,0.7163315-2.3276367,0.0434113
											C80.4962616,67.5031052,80.3659668,66.3923111,80.928299,65.6954193z" class="color304ccf svgShape"/><path fill="#a54fff" d="M81.5767136,67.7853699c-0.6748276-0.6280441-0.8330994-1.6360321-0.3955307-2.3343811
										c-0.0914841,0.0694351-0.1768341,0.1502151-0.2528687,0.2444229
										c-0.5623398,0.6969147-0.4320679,1.8076859,0.291626,2.4812317
										c0.7229462,0.6729202,1.7652969,0.6534958,2.3276367-0.0434189
										c0.0379715-0.0471191,0.0722351-0.0964203,0.103981-0.1470413
										C83.0656281,68.4303894,82.2020416,68.3673782,81.5767136,67.7853699z" class="color4f91ff svgShape"/><path fill="#eadbfa" d="M82.4746017,67.1842728c0.0324249-0.0889969,0.0274353-0.190918-0.022438-0.2797928
						c-0.0907822-0.1623459-0.2960129-0.220314-0.458313-0.1296387L62.4963417,77.678154
						c-0.1625099,0.0905991-0.2202377,0.2961426-0.1294861,0.4582443c0.0907784,0.1623535,0.2960052,0.2203217,0.458313,0.1296463
						L82.32267,67.3627319C82.3959351,67.3217545,82.4479599,67.2574005,82.4746017,67.1842728z" class="colordbe6fa svgShape"/><path fill="#7405e8" d="M73.9452209,74.7399368l-0.0339432,9.6297836
											c-0.0083237,1.9360199-1.9434433,3.8679733-5.8069458,5.3440781
											c-7.8002472,2.9802017-20.4634628,2.9802094-28.3147354,0.000061
											c-3.9391441-1.4952011-5.9076538-3.4580917-5.8991966-5.4191589l0.0339088-9.6297684
											c-0.0084534,1.9610519,1.9600563,2.0520782,5.8992004,3.5472794
											c7.8512726,2.9801559,20.5144882,2.9801407,28.3147354-0.000061
											C72.0017471,76.7360458,73.9368668,76.6759567,73.9452209,74.7399368z" class="color9156e5 svgShape"/><path fill="#c185ff" d="M68.0103073,69.3084106c7.8512726,2.9801483,7.8926163,7.8025055,0.1109619,10.7756042
											c-7.8002396,2.9802017-20.4634552,2.9802094-28.3147278,0.000061
											c-7.8327198-2.9731064-7.8738136-7.7953644-0.0735703-10.7755661
											C47.5146255,66.3354111,60.1775856,66.3353043,68.0103073,69.3084106z" class="colorb785ff svgShape"/><path fill="#af6ef2" d="M67.6193314,69.2465515c7.6334457,2.8974686,7.673645,7.5860367,0.1078873,10.4766464
											c-7.5838394,2.8975143-19.8957329,2.8975296-27.5291824,0.000061
											c-7.6154099-2.890625-7.655365-7.5790939-0.0715256-10.4766159
											C47.6922722,66.3560333,60.0039177,66.3559265,67.6193314,69.2465515z" class="colora46ef2 svgShape"/><path fill="#eadbfa" d="M63.9063644,70.6042786c-5.5520325-2.1066971-14.5264587-2.1066971-20.0410461,0
				c-5.5300026,2.1124802-5.4991798,5.5295258,0.0506516,7.6376648c5.5652466,2.1110229,14.5396729,2.1110229,20.0674706-0.0014496
				C69.5002289,76.1338043,69.4694138,72.7167587,63.9063644,70.6042786z" class="colordbe6fa svgShape"/><path fill="#fff" d="M65.4748077,70.6042786c-6.4238358-2.1066971-16.807457-2.1066971-23.1879654,0
				c-6.3983459,2.1124802-6.3626823,5.5295258,0.0586014,7.6376648c6.4391251,2.1110229,16.8227463,2.1110229,23.218544-0.0014496
				C71.9470444,76.1338043,71.9113846,72.7167587,65.4748077,70.6042786z" class="colorffffff svgShape"/><path fill="#9549e4" d="M64.563118,77.9132843c-5.8468857,1.9305801-15.3373032,1.9305801-21.222229,0
				c-5.8697166-1.9262543-5.9001389-5.0497513-0.0532532-6.9803314c5.8316765-1.9262543,15.322094-1.9262543,21.191803,0
				C70.3643723,72.863533,70.3947906,75.98703,64.563118,77.9132843z" class="color49e4a3 svgShape"/><path fill="#7f39c9" d="M64.4794159,72.1876907c2.4664917,0.8091125,3.8902435,1.8282928,4.2994537,2.8805237
					c0.5674973-1.4678116-0.8555756-3.0055084-4.2994537-4.1352692c-5.8696365-1.9262466-15.3600578-1.9262466-21.1917763,0
					c-3.3998032,1.1225739-4.7979469,2.6479416-4.2309074,4.1072922
					C40.6352997,70.9604111,55.7439919,69.3209457,64.4794159,72.1876907z" class="color39c988 svgShape"/><path fill="#7e30cf" d="M37.5481834,83.367775c0.5628471-0.6975327,1.6051369-0.7169647,2.328804-0.0434341
						c0.7230072,0.6729279,0.853302,1.7837219,0.2904549,2.4812469c-0.5623322,0.6968994-1.6046257,0.7163315-2.3276329,0.0434113
						C37.1161461,85.1754684,36.9858475,84.0646744,37.5481834,83.367775z" class="color304ccf svgShape"/><path fill="#a54fff" d="M38.1965981,85.4577255c-0.6748314-0.6280441-0.8330956-1.6360321-0.3955307-2.3343735
					c-0.8323326,0.631691-0.7855377,1.9584732,0.0387535,2.7256546c0.7620621,0.7093201,1.9002533,0.6568832,2.4316177-0.1904602
					C39.6855125,86.1027451,38.8219223,86.0397415,38.1965981,85.4577255z" class="color4f91ff svgShape"/><path fill="#eadbfa" d="M28.5980549,90.7383499c-0.0931034-0.017395-0.1782951-0.0735626-0.2294064-0.1617355
					c-0.0935326-0.1607742-0.0389633-0.3669357,0.1217041-0.4604874l9.9134026-5.7668228
					c0.1607094-0.0937653,0.3670197-0.0388336,0.4603539,0.1217957c0.0935326,0.1607742,0.0389633,0.3669357-0.1217041,0.4604874
					L28.8290024,90.69841C28.7564373,90.7406158,28.6745644,90.7526398,28.5980549,90.7383499z" class="colordbe6fa svgShape"/><polygon fill="#c895fe" points="31.762 89.367 23.841 93.412 15.869 89.367 23.789 86.341" class="color95e2fe svgShape"/><path fill="#9e4df3" d="M31.7620392,89.3674393l-0.0278358,10.6063309l-7.9207001,3.0262375
									c-1.1110573-2.216423-1.3844109-8.5358582,0.0278015-10.6063309L31.7620392,89.3674393z" class="color4dcdf3 svgShape"/><polygon fill="#b371f8" points="23.841 92.394 23.813 103 15.841 99.974 15.869 89.367" class="color71d8f8 svgShape"/><path fill="#7e30cf" d="M72.1083984,85.3099365c-0.7230072,0.6729202-1.7652969,0.6534882-2.3276291-0.0434113
								c-0.562851-0.6975327-0.4325562-1.8083267,0.2904587-2.4812469c0.7236633-0.6735306,1.7659531-0.6540985,2.328804,0.0434341
								C72.9623642,83.5256042,72.8320694,84.6363983,72.1083984,85.3099365z" class="color304ccf svgShape"/><path fill="#a54fff" d="M71.7516098,84.918663c0.6748352-0.6280441,0.8330994-1.6360321,0.3955307-2.3343735
							c0.8323364,0.631691,0.7855453,1.9584732-0.0387497,2.7256546c-0.7620621,0.7093201-1.9002533,0.6568832-2.4316177-0.1904602
							C70.2626953,85.5636826,71.1262894,85.5006714,71.7516098,84.918663z" class="color4f91ff svgShape"/><path fill="#eadbfa" d="M81.262352,90.2597427c0.0931015-0.0173874,0.178299-0.0735626,0.2294083-0.1617355
					c0.0935287-0.1607742,0.0389633-0.3669281-0.1217041-0.4604797l-9.9134064-5.7668228
					c-0.1607056-0.0937729-0.3670197-0.0388412-0.46035,0.121788c-0.0935364,0.1607819-0.0389633,0.3669357,0.1217041,0.4604874
					l9.9133987,5.7668228C81.1039734,90.2620087,81.1858444,90.2740402,81.262352,90.2597427z" class="colordbe6fa svgShape"/><polygon fill="#c895fe" points="78.238 89.367 86.159 93.412 94.131 89.367 86.211 86.341" class="color95e2fe svgShape"/><path fill="#9e4df3" d="M78.2379608,89.3674393l0.027832,10.6063309l7.9207001,3.0262375
									c1.1110611-2.216423,1.3844147-8.5358582-0.0277939-10.6063309L78.2379608,89.3674393z" class="color4dcdf3 svgShape"/><polygon fill="#b371f8" points="86.159 92.394 86.187 103 94.159 99.974 94.131 89.367" class="color71d8f8 svgShape"/><polygon fill="#9549e4" points="53.924 76.892 53.917 76.892 53.917 76.89" class="color49e4a3 svgShape"/><linearGradient id="a" x1="53.917" x2="53.917" y1="82.295" y2="14.942" gradientUnits="userSpaceOnUse"><stop class="stopColor49e4a3 svgShape" offset=".037" stop-color="#9549e4" stop-opacity=".7"/><stop class="stopColor4fecbd svgShape" offset=".264" stop-color="#9c4fec" stop-opacity=".535"/><stop class="stopColor53f2d0 svgShape" offset=".506" stop-color="#a153f2" stop-opacity=".359"/><stop class="stopColor56f6dc svgShape" offset=".75" stop-color="#a456f6" stop-opacity=".182"/><stop class="stopColor57f7e0 svgShape" offset="1" stop-color="#a557f7" stop-opacity="0"/></linearGradient><path fill="url(#a)" d="M80.427887,26.8945446C70.3276367,10.3285913,36.5736046,10.5344315,27.0611115,27.512064
		c-2.439949,4.3547668-2.662096,9.6140575-0.8511448,14.2657032L38.9199562,74.424469
		c0.0111122,1.2639923,1.4861374,2.5257568,4.4205399,3.4888916c5.8844528,1.9307938,15.3767624,1.9307938,21.2230492,0
		c2.9164124-0.9631348,4.3667221-2.2248993,4.3510742-3.4888916l12.7154007-32.6255302
		C83.5355911,36.9095001,83.1595917,31.3751202,80.427887,26.8945446z"/><polygon fill="#9549e4" points="53.931 76.89 53.931 76.892 53.924 76.892" class="color49e4a3 svgShape"/><g class="color000000 svgShape"><path fill="#7e30cf" d="M78.200058,45.199276c0.2962646-4.7115974,3.8522873-10.0252075,3.8522873-10.0252075
				c2.846489-3.5511456,2.4725723-9.433445,2.4725723-9.433445c-0.3705673-5.8829994-5.9049683-8.1665134-9.6178513-9.0388546
				c-8.4106064-1.9760132-13.9282608-4.5921278-20.6699409-8.3004084c-1.836998-1.0104365-3.9989014-1.252039-6.0142937-0.6744285
				c-7.0962486,2.0337634-10.0271072,7.1265054-10.0271072,7.1265054
				c-6.1705894,4.4609089-8.5256615,10.6105499-8.5256615,10.6105499c0.8116035,1.1419601-0.2066422,2.1171741-0.2066422,2.1171741
				l-2.0869236,2.8701897c-2.6248856,6.7909966,5.2288647,11.4955139,8.9173946,7.6837196
				c0.2545853-3.7687263,4.0806808-4.0847626,4.0806808-4.0847626l4.13134-4.7619495l0.6801834-1.5152111
				c4.6823845,2.9251976,10.3252449,5.854496,16.4970474,8.7860107c1.6965904,0.8058586,2.6016617,2.7093391,2.098938,4.519062
				c-1.6979866,6.1124077-0.5333977,13.2367592-0.5333977,13.2367592c1.8830147,6.4786682,8.1884956,7.2446747,11.0277901,1.4029388
				C74.276474,55.7179184,77.9038696,49.9109077,78.200058,45.199276z" class="color304ccf svgShape"/><path fill="#8b3adf" d="M83.9245834,31.2771072c0.6691666-2.7115593,0.4750977-5.1032734,0.4750977-5.1032734
				c-0.3705673-5.8829994-5.9049683-8.1665154-9.6178513-9.0388565c-0.6410904-0.1506214-1.2799149-0.3097649-1.9166336-0.4767246
				l-0.0009918,0.0002384c-9.1090775,0.4938755-11.8919792,5.1131248-11.8919792,5.1131248s3.5042381,3.6571789,4.9092903,4.5304642
				c0.353035,0.2194176,0.6474152,0.5649338,0.8903122,0.9592953c0.7993393,1.29772,0.7617111,3.3241119,0.1060181,4.6999779
				c-0.9855728,2.0683136-2.3394089,5.8997536-0.9108582,9.2417984c1.5697632,3.6725006,5.4227524-0.7341995,7.2131882-3.1087646
				c1.0185318-1.3508606,2.2547684-2.5277061,3.6839066-3.4331284c1.7472229-1.106884,2.9122849-1.295311,3.6883392-1.0780373
				C81.9748535,33.9814796,83.5707169,32.7112083,83.9245834,31.2771072z" class="color3a63df svgShape"/><path fill="#a54fff" d="M84.0130234,30.9322453c0.6691666-2.7115593,0.5118942-5.1916218,0.5118942-5.1916218
				c-0.3705673-5.8829994-5.9049683-8.1665134-9.6178513-9.0388546c-0.6410904-0.1506214-1.2799225-0.3097649-1.9166336-0.4767246
				l-0.0009918,0.0002365c-9.1090813,0.4938774-11.891983,5.1131268-11.891983,5.1131268s3.5042419,3.6571789,4.9092941,4.5304642
				c0.353035,0.2194176,0.6474152,0.5649338,0.8903122,0.9592953c0.7993393,1.29772,0.8264465,2.9242821,0.1707611,4.300148
				c-0.9855804,2.0683136-2.3394089,5.8997536-0.9108582,9.2417984c1.5697556,3.6725006,5.4227524-0.7341995,7.2131805-3.1087646
				c1.0185394-1.3508568,2.254776-2.5277061,3.6839066-3.4331284c1.7472229-1.106884,2.9122925-1.295311,3.6883469-1.0780373
				C82.1648331,33.1484413,83.6591644,32.3663445,84.0130234,30.9322453z" class="color4f91ff svgShape"/><path fill="#8929ed" d="M77.7523041,18.5434227c0,0-5.384819-2.400301-9.7930145,3.4240246
				c0,0-2.4149628,2.6187344-0.6370163,6.7029514c0,0,0.8850861,1.4765568-0.1586227,6.4165649
				c-0.4482498,2.6741295,2.0122986,3.6483688,3.255043,2.0095978c0,0,2.1078415-3.6082687,5.058136-4.8029022
				c0.4902725-0.1985435,0.9779358-0.4036102,1.4457245-0.6505852c0.9450073-0.4990311,2.3332901-1.3184013,3.0107422-2.1368923
				C79.9332962,29.5061817,86.8810349,23.8059025,77.7523041,18.5434227z" class="color29c3ed svgShape"/><path fill="#b371f8" d="M79.1749649,29.490118c0,0,7.3560181-5.6896992-1.5123215-10.8020611
				c0,0-5.2311859-2.3318195-9.5136719,3.3263702c0,0-2.3460999,2.5440292-0.6188354,6.511755
				c0,0,0.8598404,1.4344387-0.1541138,6.2335606c-0.4354553,2.5978355,1.7928391,3.2796936,3.0001831,1.6877022
				c0,0,2.268898-3.8840675,5.3729858-4.8288517C75.7491913,31.6185932,78.1226654,30.7615299,79.1749649,29.490118z" class="color71d8f8 svgShape"/><ellipse cx="79.562" cy="27.49" fill="#7e30cf" class="color304ccf svgShape" rx="2.11" ry="3.771" transform="rotate(-63.203 79.562 27.49)"/><ellipse cx="68.854" cy="23.045" fill="#7e30cf" class="color304ccf svgShape" rx="2.11" ry="3.771" transform="rotate(-63.203 68.854 23.045)"/><ellipse cx="77.36" cy="21.536" fill="#7e30cf" class="color304ccf svgShape" rx="3.361" ry="1.88" transform="rotate(-40.186 77.36 21.536)"/><ellipse cx="70.772" cy="29.631" fill="#7e30cf" class="color304ccf svgShape" rx="3.362" ry="1.882" transform="rotate(-48.908 70.772 29.63)"/><path fill="#c185ff" d="M78.3322372,44.0599785L78.3322372,44.0599785
				c-11.9556351,7.6014404-15.1554451,0.0757484-15.1665382,0.0365791
				c-0.7335968,5.2169914,0.0829849,10.2184219,0.0829849,10.2184219c1.4694481,1.9327049,3.3090324,0.4978638,3.9601097-0.1229324
				c0.5988922-0.5711517,1.2041626-1.1344376,1.8275528-1.6787682c5.6139832-4.90205,8.9904251-6.1172676,9.0244675-6.1294746
				C78.2436676,45.2736855,78.1562119,45.1442947,78.3322372,44.0599785z" class="colorb785ff svgShape"/><path fill="#a54fff" d="M57.4978294,14.5180473c0.6336174,3.3605099,0.4883003,6.2957611-0.3989143,8.0531845
								l1.1058044,0.5581112c1.4307175-2.8343067,0.8333931-7.1268368,0.5102119-8.8408499
								c-0.3307343-1.7538824,0.0972443-2.823204,0.3887634-3.3122416
								c-0.3746834-0.1901569-0.7416992-0.3784389-1.0994453-0.5636101
								C57.5960388,11.1340647,57.1144295,12.4851303,57.4978294,14.5180473z" class="color4f91ff svgShape"/><path fill="#9845ef" d="M57.4453392,22.4355984c0.8872108-1.7574234,1.0325317-4.6926746,0.3989105-8.0531845
								c-0.343441-1.8211012,0.0073013-3.0933962,0.3775406-3.8576994
								c-0.0723381-0.0373106-0.1459312-0.0750113-0.2175293-0.1120672
								c-0.4082108,0.7214231-0.8898201,2.0724888-0.5064201,4.1054058
								c0.6336212,3.3605099,0.4883003,6.2957611-0.3989143,8.0531864l1.1058044,0.5581093
								c0.0415039-0.0821743,0.0808678-0.1658649,0.1190147-0.2504025L57.4453392,22.4355984z" class="color457aef svgShape"/><path fill="#b371f8" d="M69.5455017,15.2332563c0.0016022-0.0001001,0.0031052-0.0002003,0.004631-0.0003395
								c-2.5244598-0.7942371-5.0033112-1.7259283-7.4190483-2.8073006
								C61.0338974,13.1717196,57.5219574,16.0326462,69.5455017,15.2332563z" class="color71d8f8 svgShape"/><path fill="#8929ed" d="M69.5459518,15.2330198c0.001442-0.000102,0.0028-0.0000458,0.0041809-0.000103
								c-2.3215027-0.774436-5.1846924-1.7936745-7.4190483-2.8073006
								C61.3903618,13.2589817,58.5109062,16.0124397,69.5459518,15.2330198z" class="color29c3ed svgShape"/><path fill="#8b3adf" d="M66.1567612,31.2291374c1.2505875-2.8055706,0.2201996-4.6740589,0.2201996-4.6740589
							l-11.4991875,0.425705c-0.5738945,4.3470917,2.3163414,9.6452007,5.4797401,9.9678097
							C63.5209045,37.2712173,64.9060974,34.0346794,66.1567612,31.2291374z" class="color3a63df svgShape"/><ellipse cx="60.635" cy="27.195" fill="#9845ef" class="color457aef svgShape" rx="5.777" ry="5.147" transform="rotate(-6.345 60.635 27.195)"/><path fill="#7e30cf" d="M55.8967934,27.3007393c0.2440224,2.1889153,2.4336395,3.7414532,4.8906517,3.4676895
								c2.4570122-0.2737656,4.2509918-2.2701626,4.0069733-4.4590797l-0.3098221-2.1122055l-8.897625,0.9913883
								L55.8967934,27.3007393z" class="color304ccf svgShape"/><ellipse cx="60.036" cy="24.693" fill="#8b3adf" class="color3a63df svgShape" rx="4.476" ry="3.988" transform="rotate(-6.345 60.036 24.693)"/><path fill="#8929ed" d="M56.0301781,12.3383551c-0.6162682-1.1174278-0.8552589-2.4933004-0.2268219-3.0861464
						c-0.570179-0.3059902-1.0046654-0.1452847-1.4742546-0.4035826c-1.8370018-1.0104361-3.9989014-1.252039-6.0142937-0.674428
						c-7.0962486,2.0337629-10.0271111,7.1265049-10.0271111,7.1265049
						c-0.3912544,0.2828827-0.8588791,0.1253624-1.2198639,0.4198046c-0.2159996,4.5590715,5.8259163,3.6165247,5.8259163,3.6165247
						l7.5058174-1.2947769c0.4897766-0.0844898,0.997612,0.0099239,1.4130058,0.2827625
						C56.6738434,21.5179443,57.3933868,14.8099089,56.0301781,12.3383551z" class="color29c3ed svgShape"/><path fill="#b371f8" d="M55.9382019,11.8910894c-0.6162682-1.1174278-0.7632828-2.0460348-0.1348457-2.6388807
						c-0.570179-0.3059902-1.0966377-0.5925503-1.5662308-0.8508482c-1.836998-1.0104365-3.9989014-1.252039-6.0142937-0.6744285
						c-7.0962486,2.0337634-10.0271072,7.1265054-10.0271072,7.1265054
						c-0.3912544,0.2828817-0.7669067,0.572628-1.1278915,0.8670702c0.7306557,4.3894186,5.7339439,3.1692591,5.7339439,3.1692591
						l7.5058136-1.2947769c0.4897766-0.0844898,0.997612,0.009922,1.4130096,0.2827625
						C56.5818672,21.0706787,57.3014145,14.3626432,55.9382019,11.8910894z" class="color71d8f8 svgShape"/><ellipse cx="44.964" cy="12.507" fill="#7405e8" class="color9156e5 svgShape" rx="7.412" ry="5.108" transform="rotate(-22.517 44.964 12.507)"/><ellipse cx="44.875" cy="12.292" fill="#af6ef2" class="colora46ef2 svgShape" rx="7.074" ry="4.874" transform="rotate(-22.517 44.875 12.292)"/><ellipse cx="44.658" cy="11.767" fill="#c185ff" class="colorb785ff svgShape" rx="6.26" ry="4.314" transform="rotate(-22.517 44.658 11.767)"/><path fill="#8b3adf" d="M52.7102547,20.3545361c0,0-11.4992447-3.0605297-11.5117073,0.7901649
							c-0.0129318,4.0013008,3.3073769,8.1436634,3.3073769,8.1436634c2.0953293,1.7364655,4.8245087,0.9397869,4.8245087,0.9397869
							c0.4232864-1.6518669,0.6908875-2.4688091,2.5563583-4.9101028
							C53.752182,22.8767147,52.7102547,20.3545361,52.7102547,20.3545361z" class="color3a63df svgShape"/><ellipse cx="46.969" cy="20.994" fill="#9845ef" class="color457aef svgShape" rx="5.777" ry="5.147" transform="rotate(-6.345 46.969 20.994)"/><path fill="#7e30cf" d="M42.2300644,21.100193c0.2440224,2.1889153,2.4336395,3.7414532,4.8906517,3.4676895
								c2.4570122-0.2737656,4.2509956-2.2701626,4.0069733-4.4590778l-0.3098221-2.1122074l-8.897625,0.9913883
								L42.2300644,21.100193z" class="color304ccf svgShape"/><ellipse cx="46.369" cy="18.492" fill="#8b3adf" class="color3a63df svgShape" rx="4.476" ry="3.988" transform="rotate(-6.345 46.37 18.492)"/><ellipse cx="46.332" cy="18.158" fill="#9845ef" class="color457aef svgShape" rx="3.961" ry="3.529" transform="rotate(-6.345 46.332 18.158)"/><path fill="#a54fff" d="M42.5718536,18.7218018c-0.2070847-1.85783,1.3155518-3.5522909,3.4009743-3.7846346
										c2.0853386-0.2323637,3.9437981,1.0853529,4.1508865,2.943181
										c0.1941872,1.7417393-1.1318817,3.3398533-3.0167007,3.7242851
										c1.9736977-0.3950081,3.3647766-2.0647316,3.1618118-3.8856792
										c-0.2159462-1.9370785-2.1536636-3.3109894-4.3280106-3.0687456
										c-2.1742821,0.2423019-3.7618637,2.0090094-3.5459213,3.9460878
										c0.20298,1.8209305,1.9275475,3.1434765,3.9398804,3.0943794
										C44.4115181,21.7305298,42.7660408,20.463541,42.5718536,18.7218018z" class="color4f91ff svgShape"/><ellipse cx="46.384" cy="17.16" fill="#a54fff" class="color4f91ff svgShape" rx="2.555" ry="1.672" transform="rotate(-6.345 46.384 17.16)"/><ellipse cx="79.443" cy="27.129" fill="#8b3adf" class="color3a63df svgShape" rx="2.11" ry="3.771" transform="rotate(-63.203 79.443 27.129)"/><ellipse cx="78.744" cy="26.407" fill="#dfcbf4" class="colorcbdbf4 svgShape" rx="1.579" ry="2.821" transform="rotate(-63.203 78.744 26.407)"/><ellipse cx="78.52" cy="26.078" fill="#f5ebff" class="colorebf2ff svgShape" rx="1.218" ry="2.177" transform="rotate(-63.203 78.52 26.078)"/><ellipse cx="68.735" cy="22.684" fill="#8b3adf" class="color3a63df svgShape" rx="2.11" ry="3.771" transform="rotate(-63.203 68.735 22.684)"/><ellipse cx="69.141" cy="22.293" fill="#dfcbf4" class="colorcbdbf4 svgShape" rx="1.579" ry="2.821" transform="rotate(-63.203 69.14 22.293)"/><ellipse cx="69.389" cy="22.16" fill="#f5ebff" class="colorebf2ff svgShape" rx="1.29" ry="2.307" transform="rotate(-63.203 69.389 22.16)"/><ellipse cx="77.242" cy="21.175" fill="#8b3adf" class="color3a63df svgShape" rx="3.361" ry="1.88" transform="rotate(-40.186 77.242 21.175)"/><ellipse cx="76.78" cy="20.885" fill="#dfcbf4" class="colorcbdbf4 svgShape" rx="2.514" ry="1.529" transform="rotate(-40.186 76.78 20.885)"/><ellipse cx="76.591" cy="20.661" fill="#f5ebff" class="colorebf2ff svgShape" rx="2.043" ry="1.243" transform="rotate(-40.186 76.59 20.661)"/><ellipse cx="70.654" cy="29.269" fill="#8b3adf" class="color3a63df svgShape" rx="3.362" ry="1.882" transform="rotate(-48.908 70.654 29.27)"/><ellipse cx="70.448" cy="28.611" fill="#dfcbf4" class="colorcbdbf4 svgShape" rx="2.515" ry="1.53" transform="rotate(-48.89 70.448 28.611)"/><ellipse cx="70.568" cy="28.173" fill="#f5ebff" class="colorebf2ff svgShape" rx="2.002" ry="1.218" transform="rotate(-48.89 70.568 28.173)"/><path fill="#af6ef2" d="M78.3322372,44.0599785L78.3322372,44.0599785
						c-12.5300903,9.2659531-15.1554451,0.0757484-15.1665382,0.0365791
						c-0.7335968,5.2169914,0.0829849,10.2184219,0.0829849,10.2184219
						c1.4694481,1.9327049,3.3090324,0.4978638,3.9601097-0.1229324c0.5988922-0.5711517,1.2041626-1.1344376,1.8275528-1.6787682
						c5.6139832-4.90205,8.9904251-6.1172676,9.0244675-6.1294746
						C78.2436676,45.2736855,78.1562119,45.1442947,78.3322372,44.0599785z" class="colora46ef2 svgShape"/><g class="color000000 svgShape"><path fill="#af6ef2" d="M37.7963409,27.8767929c-0.8264809-5.243639-4.3275948-6.2673378-8.1262779-2.4128056
							c0.8116035,1.1419601-0.2066422,2.1171741-0.2066422,2.1171741l-0.4773121,0.6564312
							c0.0019035-0.0022335,4.6631489-5.5264683,5.6503239-1.1117668c0.9873238,4.4155521-0.5896111,8.4719639,1.6574593,11.0092449
							c0.2545853-3.7687263,4.0806808-4.0847626,4.0806808-4.0847626S38.6228943,33.120472,37.7963409,27.8767929z" class="colora46ef2 svgShape"/></g><g class="color000000 svgShape"><path fill="#c185ff" d="M35.0817757,26.2928429c-1.3564453-4.6034927-6.0937519,1.942522-6.0956554,1.9447556
							c0.0019035-0.0022335,4.6631489-5.5264683,5.6503239-1.1117668c0.9873238,4.415554-0.5896111,8.4719658,1.6574593,11.009243
							C34.3893318,34.22089,36.3606148,30.632946,35.0817757,26.2928429z" class="colorb785ff svgShape"/></g><g class="color000000 svgShape"><path fill="#c185ff" d="M32.3418427,29.039793c-0.9451809-2.7652817-4.2940083,1.9210701-5.4877586,4.2846584
						c0.1138859,4.009903,3.8992004,6.6724358,7.0465889,6.0939598
						C31.1283913,35.5261803,33.5195618,32.4855881,32.3418427,29.039793z" class="colorb785ff svgShape"/></g><g class="color000000 svgShape"><path fill="#af6ef2" d="M32.0812531,29.483429c-0.9451828-2.7652817-4.040947,1.8928986-5.227169,3.8410225
						c0.1138859,4.009903,3.8992004,6.6724358,7.0465889,6.0939598
						C30.4050522,36.036438,33.2589684,32.9292259,32.0812531,29.483429z" class="colora46ef2 svgShape"/></g><g class="color000000 svgShape"><ellipse cx="60.007" cy="24.435" fill="#9845ef" class="color457aef svgShape" rx="3.961" ry="3.529" transform="rotate(-6.345 60.007 24.435)"/><path fill="#a54fff" d="M56.2471619,24.9995213c-0.2070847-1.8578281,1.3155518-3.55229,3.4009743-3.7846336
					c2.0853386-0.2323627,3.9437981,1.0853539,4.1508865,2.943182c0.1941872,1.7417393-1.1318817,3.3398514-3.0167007,3.7242851
					c1.9736977-0.39501,3.3647804-2.0647316,3.1618118-3.8856812c-0.2159462-1.9370766-2.1536636-3.3109894-4.3280106-3.0687447
					c-2.1742821,0.2423019-3.7618637,2.0090103-3.5459175,3.9460888c0.2029762,1.8209286,1.9275436,3.1434765,3.9398766,3.0943794
					C58.0868263,28.0082512,56.441349,26.7412605,56.2471619,24.9995213z" class="color4f91ff svgShape"/><ellipse cx="60.008" cy="23.512" fill="#a54fff" class="color4f91ff svgShape" rx="2.555" ry="1.672" transform="rotate(-6.345 60.008 23.512)"/></g></g></svg>