<svg id="SvgjsSvg1001" width="288" height="288" xmlns="http://www.w3.org/2000/svg" version="1.1" xmlns:xlink="http://www.w3.org/1999/xlink" xmlns:svgjs="http://svgjs.com/svgjs"><defs id="SvgjsDefs1002"></defs><g id="SvgjsG1008"><svg xmlns="http://www.w3.org/2000/svg" viewBox="0 0 256 256" width="288" height="288"><path fill="#fdfdfd" d="M59.747 26.154c-.974 11.564-13.024 13.39-13.024 13.39 10.347.486 12.925 14.058 12.925 14.058.221-9.677 13.321-14.202 13.321-14.202-9.813-.587-13.222-13.246-13.222-13.246z" class="colord7e057 svgShape"></path><path fill="#2b1f1f" d="M73.059 37.903c-8.605-.516-11.832-12.025-11.864-12.142a1.51 1.51 0 0 0-1.583-1.102 1.5 1.5 0 0 0-1.359 1.367c-.86 10.217-11.313 11.965-11.755 12.034a1.5 1.5 0 0 0 .154 2.982c9.028.426 11.499 12.719 11.523 12.843a1.5 1.5 0 0 0 2.973-.247c.195-8.509 12.192-12.777 12.313-12.819a1.5 1.5 0 0 0-.402-2.916zM59.493 48.248c-1.357-3.13-3.708-6.907-7.586-8.876 2.931-1.405 6.409-3.913 8.202-8.273 1.551 3.071 4.2 6.881 8.334 8.723-3.008 1.639-6.924 4.405-8.95 8.426z" class="color3a312a svgShape"></path><path fill="#fdfdfd" d="M38.049 43.134c-.689 8.179-9.212 9.471-9.212 9.471 7.318.344 9.142 9.944 9.142 9.944.156-6.844 9.422-10.045 9.422-10.045-6.942-.416-9.352-9.37-9.352-9.37z" class="colord7e057 svgShape"></path><path fill="#2b1f1f" d="M47.49 51.007c-5.766-.346-7.972-8.187-7.994-8.266a1.5 1.5 0 0 0-2.942.266c-.579 6.871-7.647 8.066-7.942 8.113a1.5 1.5 0 0 0 .154 2.982c6.035.284 7.724 8.645 7.739 8.727a1.5 1.5 0 0 0 2.973-.246c.13-5.709 8.331-8.633 8.412-8.661a1.5 1.5 0 0 0-.4-2.915zm-9.584 6.794c-.924-1.885-2.34-3.947-4.447-5.279 1.856-1.041 3.697-2.63 4.871-4.917 1.057 1.874 2.654 3.955 4.941 5.225-1.851 1.1-3.989 2.738-5.365 4.971z" class="color3a312a svgShape"></path><path fill="#fdfdfd" d="M38.049 16.477c-.689 8.179-9.212 9.471-9.212 9.471 7.318.344 9.142 9.944 9.142 9.944.156-6.845 9.422-10.045 9.422-10.045-6.942-.416-9.352-9.37-9.352-9.37z" class="colord7e057 svgShape"></path><path fill="#2b1f1f" d="M47.49 24.349c-5.766-.345-7.972-8.186-7.993-8.265a1.5 1.5 0 0 0-2.942.266c-.579 6.871-7.647 8.066-7.942 8.113a1.5 1.5 0 0 0 .154 2.982c6.035.284 7.724 8.645 7.739 8.727a1.5 1.5 0 0 0 2.974-.246c.13-5.709 8.332-8.634 8.412-8.662a1.499 1.499 0 0 0-.402-2.915zm-9.584 6.795c-.924-1.885-2.34-3.947-4.447-5.279 1.856-1.041 3.697-2.63 4.871-4.917 1.057 1.874 2.654 3.954 4.941 5.224-1.851 1.099-3.989 2.739-5.365 4.972z" class="color3a312a svgShape"></path><path fill="#e9e2ef" d="M176.609 183.172h-19.53V170.48c-5.402 3.745-10.991 5.954-16.415 5.954-5.203 0-10.693-2.231-16.073-6.021h-.331v12.759h-19.542c-16.327 0-29.56 13.234-29.56 29.561v26.788H206.17v-26.788c-.001-16.327-13.234-29.561-29.561-29.561z" class="colorfce8cb svgShape"></path><path fill="#2b1f1f" d="M176.608 181.673h-18.03V170.48a1.499 1.499 0 0 0-2.355-1.232c-5.442 3.773-10.678 5.687-15.56 5.687-4.677 0-9.794-1.934-15.209-5.747a1.502 1.502 0 0 0-.864-.273h-.331a1.5 1.5 0 0 0-1.5 1.5v11.26h-18.042c-17.127 0-31.061 13.934-31.061 31.06v26.788a1.5 1.5 0 0 0 1.5 1.5h36.029a1.5 1.5 0 1 0 0-3H76.657v-25.288c0-15.472 12.588-28.06 28.061-28.06h19.542a1.5 1.5 0 0 0 1.5-1.5v-10.177c5.201 3.278 10.206 4.938 14.904 4.938 4.777 0 9.784-1.576 14.915-4.69v9.93a1.5 1.5 0 0 0 1.5 1.5h19.53c15.473 0 28.061 12.588 28.061 28.06v25.288h-78.235a1.5 1.5 0 1 0 0 3h79.735a1.5 1.5 0 0 0 1.5-1.5v-26.788c-.001-17.13-13.935-31.063-31.062-31.063z" class="color3a312a svgShape"></path><path fill="#8d1ed2" d="M176.609 183.164h-4.673l.122.088-20.315 26.943-10.483-7.898-10.483 7.898-20.315-26.943.121-.088h-5.866c-16.327 0-29.56 13.234-29.56 29.56v26.799H206.17v-26.799c0-16.327-13.234-29.56-29.561-29.56z" class="color8ac6dd svgShape"></path><path fill="#2b1f1f" d="M176.609 181.664h-4.673a1.501 1.501 0 0 0-1.472 1.209l-19.017 25.222-9.286-6.996a1.502 1.502 0 0 0-1.805 0l-9.285 6.996-19.017-25.222a1.5 1.5 0 0 0-1.471-1.209h-5.866c-17.127 0-31.061 13.934-31.061 31.061v26.799a1.5 1.5 0 0 0 1.5 1.5h36.028a1.5 1.5 0 1 0 0-3H76.658v-25.299c0-15.473 12.588-28.061 28.061-28.061h4.93l19.932 26.435c.497.66 1.439.791 2.1.295l9.58-7.219 9.581 7.219a1.501 1.501 0 0 0 2.1-.295l19.931-26.435h3.738c15.473 0 28.061 12.588 28.061 28.061v25.299h-78.236a1.5 1.5 0 1 0 0 3h79.736a1.5 1.5 0 0 0 1.5-1.5v-26.799c-.002-17.127-13.936-31.061-31.063-31.061z" class="color3a312a svgShape"></path><path fill="#2b1f1f" d="M182.823 216.851a1.5 1.5 0 0 0-1.5 1.5v21.173a1.5 1.5 0 0 0 3 0v-21.173a1.5 1.5 0 0 0-1.5-1.5z" class="color3a312a svgShape"></path><path fill="#e9e2ef" d="M140.665 52.684c-28.478 0-51.563 23.086-51.563 51.563 0 28.477 28.524 72.188 51.563 72.188 24.137 0 51.563-43.711 51.563-72.188 0-28.477-23.085-51.563-51.563-51.563z" class="colorfce8cb svgShape"></path><path fill="#2b1f1f" d="M140.665 51.185c-29.259 0-53.063 23.804-53.063 53.062 0 13.838 6.67 32.087 17.408 47.626 11.277 16.319 24.605 26.062 35.655 26.062 11.633 0 24.78-9.502 36.072-26.07 10.48-15.378 16.991-33.624 16.991-47.618.001-29.259-23.803-53.062-53.063-53.062zm33.594 98.991c-10.566 15.504-23.125 24.76-33.594 24.76-10.064 0-22.471-9.259-33.188-24.768-10.409-15.064-16.875-32.66-16.875-45.921 0-27.604 22.458-50.062 50.063-50.062 27.606 0 50.064 22.458 50.064 50.062 0 13.424-6.311 31.023-16.47 45.929z" class="color3a312a svgShape"></path><path fill="#9000bf" d="M194.63 92.329c0-28.18-23.895-51.025-53.37-51.025-29.475 0-53.37 22.845-53.37 51.026 0 2.982.539 5.204 1.542 7.981.473 1.309 8.115-2.871 8.766-3.329 3.254-2.291 5.913-5.396 7.901-8.829a30.123 30.123 0 0 0 2.059-4.333c1.759-4.635 6.539-17.533 11.392-16.521 6.508 1.357 13.885 2.123 21.71 2.123 7.825 0 15.202-.767 21.71-2.123 4.853-1.012 9.633 11.886 11.392 16.521a30.067 30.067 0 0 0 2.059 4.333c3.283 5.679 8.829 11.086 15.575 12.069.017-.326.428-.437.735-.548 2.209-.803 1.899-5.575 1.899-7.345z" class="color87796f svgShape"></path><path fill="#2b1f1f" d="m196.136 92.905-.006-.576c0-28.963-24.614-52.525-54.87-52.525-30.255 0-54.87 23.563-54.87 52.526 0 3.31.625 5.702 1.631 8.489.196.542.635.956 1.207 1.137.187.059.404.086.645.086 2.854 0 9.127-3.79 9.189-3.834 3.256-2.293 6.139-5.511 8.337-9.308a31.71 31.71 0 0 0 2.161-4.549l.111-.292c5.284-13.94 8.26-15.569 9.573-15.292 6.86 1.43 14.267 2.154 22.016 2.154 7.749 0 15.157-.725 22.018-2.154 1.307-.288 4.288 1.354 9.569 15.283l.114.3a31.542 31.542 0 0 0 2.162 4.553c4.102 7.094 10.328 11.88 16.656 12.803a1.484 1.484 0 0 0 1.438-.614l.025-.009c2.998-1.088 2.931-5.7 2.894-8.178zm-3.991 5.384c-.149.053-.416.146-.691.315-5.17-1.059-10.256-5.19-13.731-11.201a28.548 28.548 0 0 1-1.956-4.116l-.113-.3c-3.452-9.104-7.705-18.256-12.987-17.157-6.66 1.388-13.861 2.092-21.405 2.092-7.544 0-14.745-.704-21.403-2.092-5.299-1.094-9.539 8.057-12.991 17.166l-.11.291a28.464 28.464 0 0 1-1.955 4.113c-1.98 3.421-4.562 6.31-7.462 8.352-.895.607-5.023 2.729-6.789 3.213-.723-2.139-1.16-4.09-1.16-6.635 0-27.309 23.269-49.526 51.87-49.526 28.602 0 51.87 22.217 51.87 49.525l.007.62c.06 4.311-.55 5.18-.994 5.34z" class="color3a312a svgShape"></path><path fill="#ba6cf1" d="m110.475 183.243 10.527-7.933 20.309 26.947-10.527 7.934z" class="colorf16c7a svgShape"></path><path fill="#2b1f1f" d="m142.501 201.358-20.308-26.946a1.501 1.501 0 0 0-2.101-.296l-10.527 7.934a1.496 1.496 0 0 0-.295 2.1l20.308 26.946a1.505 1.505 0 0 0 1.198.598c.324 0 .642-.104.902-.302l10.526-7.934a1.499 1.499 0 0 0 .297-2.1zm-11.43 6.736-18.503-24.551 8.132-6.128 18.502 24.551-8.131 6.128z" class="color3a312a svgShape"></path><path fill="#ba6cf1" d="m141.224 202.27 20.31-26.946 10.526 7.934-20.31 26.946z" class="colorf16c7a svgShape"></path><path fill="#2b1f1f" d="M173.538 183.039a1.503 1.503 0 0 0-.583-.989l-10.527-7.934a1.5 1.5 0 0 0-2.101.296l-20.308 26.946a1.5 1.5 0 0 0 .296 2.101l10.526 7.934a1.497 1.497 0 0 0 2.1-.296l20.309-26.946c.24-.318.344-.717.288-1.112zm-22.089 25.055-8.131-6.128 18.502-24.551 8.132 6.128-18.503 24.551zm-51.751 8.757a1.5 1.5 0 0 0-1.5 1.5v21.173a1.5 1.5 0 1 0 3 0v-21.173a1.5 1.5 0 0 0-1.5-1.5z" class="color3a312a svgShape"></path><path fill="#9000bf" d="M140.296 22.783C103.948 44.167 82.85 3.061 82.85 21.807c0 5.925 2.387 11.835 5.521 17.213l8.675 12.297c8.753 11.021 19.223 22.772 31.868 26.367 20.368 5.791 56.418-1.433 56.418-30.749 0-18.746-15.712-41.403-45.036-24.152z" class="color87796f svgShape"></path><path fill="#2b1f1f" d="M171.93 18.306c-6.24-3.571-16.927-5.915-32.395 3.185-21.144 12.438-36.888 2.996-46.295-2.646-4.471-2.681-7.424-4.45-9.719-3.153-1.924 1.09-2.171 3.842-2.171 6.117 0 5.48 1.872 11.357 5.725 17.967.022.038.045.074.07.109l8.675 12.298c.016.023.033.046.051.068 9.375 11.806 19.818 23.233 32.633 26.877 4.305 1.225 9.365 1.896 14.679 1.896 10.821 0 22.698-2.785 31.41-9.365 8.006-6.048 12.238-14.597 12.238-24.723.001-10.009-4.607-22.744-14.901-28.63zm.855 50.958c-12.208 9.222-31.105 10.491-43.46 6.979-11.988-3.409-22.021-14.423-31.078-25.824l-8.612-12.21c-3.556-6.115-5.285-11.48-5.285-16.4 0-3.104.623-3.492.649-3.507.767-.439 4.196 1.616 6.697 3.116 9.324 5.592 26.678 16.001 49.359 2.659 11.261-6.624 21.422-7.721 29.384-3.167 9.251 5.291 13.392 16.884 13.392 26.026.001 9.279-3.716 16.792-11.046 22.328z" class="color3a312a svgShape"></path><path fill="#8634cc" d="M176.614 184.668h-3.74l-1.36 1.8c10.6 4.01 18.16 14.27 18.16 26.26v25.29h15v-25.29c0-15.479-12.59-28.06-28.06-28.06z" class="color6ca8bf svgShape"></path><circle cx="140.664" cy="109.06" r="67.281" fill="#fdfdfd" transform="rotate(-13.286 140.631 109.041)" class="colord7e057 svgShape"></circle><path fill="#2b1f1f" d="M140.664 40.278c-37.926 0-68.782 30.855-68.782 68.781s30.856 68.781 68.782 68.781c37.926 0 68.781-30.855 68.781-68.781s-30.855-68.781-68.781-68.781zm0 134.563c-36.272 0-65.782-29.51-65.782-65.781s29.51-65.781 65.782-65.781c36.271 0 65.781 29.51 65.781 65.781s-29.509 65.781-65.781 65.781z" class="color3a312a svgShape"></path><path fill="#ba6cf1" d="M141.043 28.378h-.76a7.11 7.11 0 0 0-7.109 7.109V50.74a7.11 7.11 0 0 0 7.109 7.109h.76a7.11 7.11 0 0 0 7.109-7.109V35.487a7.11 7.11 0 0 0-7.109-7.109z" class="colorf16c7a svgShape"></path><path fill="#2b1f1f" d="M141.044 26.879h-.761c-4.747 0-8.608 3.861-8.608 8.608V50.74c0 4.747 3.861 8.608 8.608 8.608h.761c4.747 0 8.608-3.861 8.608-8.608V35.487c0-4.747-3.861-8.608-8.608-8.608zm5.608 23.861a5.614 5.614 0 0 1-5.608 5.608h-.761a5.614 5.614 0 0 1-5.608-5.608V35.487a5.614 5.614 0 0 1 5.608-5.608h.761a5.614 5.614 0 0 1 5.608 5.608V50.74z" class="color3a312a svgShape"></path><path fill="#ba6cf1" d="M141.043 159.908h-.76a7.11 7.11 0 0 0-7.109 7.109v15.253a7.108 7.108 0 0 0 7.109 7.108h.76a7.109 7.109 0 0 0 7.109-7.108v-15.253a7.11 7.11 0 0 0-7.109-7.109z" class="colorf16c7a svgShape"></path><path fill="#2b1f1f" d="M141.044 158.408h-.761c-4.747 0-8.608 3.861-8.608 8.608v15.253c0 4.747 3.861 8.609 8.608 8.609h.761c4.747 0 8.608-3.862 8.608-8.609v-15.253c0-4.746-3.861-8.608-8.608-8.608zm5.608 23.862a5.615 5.615 0 0 1-5.608 5.609h-.761a5.615 5.615 0 0 1-5.608-5.609v-15.253a5.614 5.614 0 0 1 5.608-5.608h.761a5.614 5.614 0 0 1 5.608 5.608v15.253z" class="color3a312a svgShape"></path><path fill="#ba6cf1" d="M214.055 101.39h-15.253a7.109 7.109 0 0 0-7.109 7.108v.76a7.11 7.11 0 0 0 7.109 7.109h15.253a7.108 7.108 0 0 0 7.108-7.109v-.76a7.108 7.108 0 0 0-7.108-7.108z" class="colorf16c7a svgShape"></path><path fill="#2b1f1f" d="M214.055 99.89h-15.253c-4.747 0-8.608 3.862-8.608 8.609v.76c0 4.747 3.861 8.608 8.608 8.608h15.253c4.747 0 8.609-3.861 8.609-8.608v-.76c0-4.747-3.862-8.609-8.609-8.609zm5.609 9.369a5.615 5.615 0 0 1-5.609 5.608h-15.253a5.614 5.614 0 0 1-5.608-5.608v-.76a5.615 5.615 0 0 1 5.608-5.609h15.253a5.616 5.616 0 0 1 5.609 5.609v.76z" class="color3a312a svgShape"></path><path fill="#ba6cf1" d="M82.525 101.39H67.272a7.109 7.109 0 0 0-7.109 7.108v.76a7.11 7.11 0 0 0 7.109 7.109h15.253a7.11 7.11 0 0 0 7.109-7.109v-.76a7.109 7.109 0 0 0-7.109-7.108z" class="colorf16c7a svgShape"></path><path fill="#2b1f1f" d="M82.525 99.89H67.272c-4.747 0-8.608 3.862-8.608 8.609v.76c0 4.747 3.862 8.608 8.608 8.608h15.253c4.747 0 8.608-3.861 8.608-8.608v-.76c.001-4.747-3.861-8.609-8.608-8.609zm5.609 9.369a5.614 5.614 0 0 1-5.608 5.608H67.272a5.615 5.615 0 0 1-5.608-5.608v-.76a5.615 5.615 0 0 1 5.608-5.609h15.253a5.616 5.616 0 0 1 5.608 5.609v.76zm52.53-52.125a1.5 1.5 0 0 0-1.5 1.5v5a1.5 1.5 0 0 0 3 0v-5a1.5 1.5 0 0 0-1.5-1.5zm0 55.472a1.5 1.5 0 0 0-1.5 1.5v10.095a1.5 1.5 0 0 0 3 0v-10.095a1.5 1.5 0 0 0-1.5-1.5zm0 20.19a1.5 1.5 0 0 0-1.5 1.5v10.095a1.5 1.5 0 0 0 3 0v-10.095a1.5 1.5 0 0 0-1.5-1.5zm0-60.567a1.5 1.5 0 0 0-1.5 1.5v10.095a1.5 1.5 0 0 0 3 0V73.729a1.5 1.5 0 0 0-1.5-1.5zm0 20.189a1.5 1.5 0 0 0-1.5 1.5v10.095a1.5 1.5 0 0 0 3 0V93.918a1.5 1.5 0 0 0-1.5-1.5zm0 60.567a1.5 1.5 0 0 0-1.5 1.5v5a1.5 1.5 0 0 0 3 0v-5a1.5 1.5 0 0 0-1.5-1.5zm-15.153-45.425h-10.067a1.5 1.5 0 1 0 0 3h10.067a1.5 1.5 0 1 0 0-3zm-20.134 0H95.31a1.5 1.5 0 1 0 0 3h10.067a1.5 1.5 0 1 0 0-3zm80.537 0h-10.067a1.5 1.5 0 0 0 0 3h10.067a1.5 1.5 0 0 0 0-3zm-40.269 0h-10.067a1.5 1.5 0 0 0 0 3h10.067a1.5 1.5 0 0 0 0-3zm20.135 0h-10.067a1.5 1.5 0 0 0 0 3h10.067a1.5 1.5 0 0 0 0-3z" class="color3a312a svgShape"></path><circle cx="140.664" cy="109.06" r="6.694" fill="#9000bf" class="color87796f svgShape"></circle><path fill="#2b1f1f" d="M140.664 100.866c-4.519 0-8.194 3.676-8.194 8.193 0 4.519 3.676 8.194 8.194 8.194 4.518 0 8.193-3.676 8.193-8.194 0-4.517-3.675-8.193-8.193-8.193zm0 13.388a5.2 5.2 0 0 1-5.194-5.194 5.2 5.2 0 0 1 5.194-5.193 5.2 5.2 0 0 1 5.193 5.193 5.2 5.2 0 0 1-5.193 5.194z" class="color3a312a svgShape"></path><path fill="#8939c2" d="M198.804 117.868c-4.75 0-8.61-3.86-8.61-8.61v-.76c0-4.75 3.86-8.61 8.61-8.61h6.99c-4.07-29.01-27.11-51.99-56.14-55.98v3.92c21.7 8.53 37.8 28.27 41.14 52.06h-6.99c-4.48 0-8.17 3.43-8.58 7.81.19-.09.4-.14.62-.14h10.07c.83 0 1.5.67 1.5 1.5s-.67 1.5-1.5 1.5h-10.07c-.2 0-.4-.04-.57-.12.58 4.19 4.18 7.43 8.53 7.43h7.03c-3.22 23.95-19.37 43.85-41.18 52.42v3.92c29.15-4 52.26-27.17 56.18-56.34h-7.03z" class="colorb9c239 svgShape"></path></svg></g></svg>