<svg xmlns="http://www.w3.org/2000/svg" data-name="148" viewBox="0 0 400 400" width="360" height="360"><path fill="#a106f7" d="M116.87 364.26c5.58-.15 46-3.21 42.77-4.16s-44.67-2.52-50.37-.72c-6.93 2.2-12.78 5.41 7.6 4.88Z" class="colore9e9f2 svgShape"></path><g data-name="Gear setting"><path fill="#161622" d="m306.94 272.52 1.5-8.41.28-1.54-7.62-.71a24.65 24.65 0 0 0-.63-4.85.13.13 0 0 0 0-.06c-.17-.72-.37-1.42-.6-2.11 0-.13-.09-.26-.13-.38-.23-.64-.48-1.27-.76-1.88 0-.07-.06-.16-.1-.23v-.05l6-6-5.75-7-6.89 5-.2-.14c-.21-.16-.45-.29-.67-.44l-.33-.22c-.55-.35-1.11-.69-1.7-1l-.3-.15a20.2 20.2 0 0 0-1.89-.86l-.29-.11c-.66-.25-1.33-.48-2-.67l-.32-.09c-.35-.09-.69-.2-1.05-.28l.12-1.32.56-6.45h-9.9l-2.1 7.77a31.32 31.32 0 0 0-4.72 1.35 30 30 0 0 0-3 1.28c-.19.09-.37.2-.56.3-.49.25-1 .51-1.48.79-.15.08-.3.15-.44.24l-5.11-5-8.25 7 3.91 6a34.19 34.19 0 0 0-5.09 8.24c-.19.41-.36.83-.52 1.26l-7.89.71-1.71 9.6-.07.4 7.64.72a22.76 22.76 0 0 0 .18 2.37v.21c.08.63.19 1.25.32 1.86.09.39.18.77.28 1.15s.16.58.25.86c.19.64.42 1.27.67 1.89a.61.61 0 0 0 .05.12c.14.35.26.71.43 1l-6 6 4.59 5.61 1.16 1.45 6.89-5c.22.16.46.3.68.45s.37.25.56.37.49.35.76.51a20.92 20.92 0 0 0 2.21 1.14 23.29 23.29 0 0 0 4.57 1.49l-.12 1.3-.56 6.45h9.91l2.1-7.77a32.41 32.41 0 0 0 6.05-1.9l.8-.35q.57-.25 1.14-.54c.53-.26 1.06-.54 1.58-.84l.36-.18.24-.14 5.11 5 6.26-5.33 2-1.69-3.9-6a34.33 34.33 0 0 0 5.63-9.52l-.06.09.05-.1Zm-59.89 10.1a.5.5 0 0 0 0 .13Zm15.25 12.11h.16Zm7.53-9.52c-9.56 0-16-7.64-14.53-17.17 0-.17 0-.34.08-.51 1.74-9.77 11-17.68 20.75-17.68h.5c9.44.27 15.66 8.08 13.95 17.68-1.74 9.77-11.03 17.68-20.75 17.68Z" class="colord9d9e7 svgShape"></path><path fill="#a106f7" d="m305.18 270.5 1.5-8.41.28-1.53-7.63-.71a24.65 24.65 0 0 0-.62-4.85.13.13 0 0 1 0-.06c-.17-.72-.38-1.42-.61-2.11 0-.12-.08-.25-.13-.38-.23-.64-.48-1.26-.76-1.87 0-.08-.06-.16-.1-.24l6.06-6-5.74-7-6.9 5-.19-.14c-.22-.16-.45-.29-.67-.44l-.33-.21c-.55-.36-1.12-.7-1.71-1l-.3-.15c-.61-.31-1.24-.6-1.89-.86l-.29-.11c-.66-.25-1.33-.47-2-.67l-.32-.09c-.35-.09-.69-.2-1-.28l.12-1.32.56-6.45H272.5l-2.1 7.76a31.2 31.2 0 0 0-4.71 1.35 30.19 30.19 0 0 0-3 1.28c-.19.09-.37.2-.55.3-.5.25-1 .51-1.49.79-.14.09-.29.15-.44.24l-5.1-5-8.26 7 3.9 6a34.51 34.51 0 0 0-5.09 8.24c-.18.41-.36.83-.52 1.26l-7.89.71-1.71 9.6-.07.41 7.64.71c0 .81.09 1.6.18 2.37v.21c.08.63.2 1.25.33 1.86.08.39.18.77.28 1.16s.15.57.24.85c.2.64.42 1.27.67 1.89v.12c.14.35.27.71.43 1.06l-6 6 4.58 5.61 1.16 1.45 6.9-5c.21.17.45.3.68.46l.55.36c.26.17.5.35.76.51a21.94 21.94 0 0 0 2.21 1.14 23.29 23.29 0 0 0 4.57 1.49l-.11 1.3-.56 6.45h9.91l2.1-7.77a31 31 0 0 0 6-1.9l.8-.35c.38-.17.77-.35 1.14-.54.54-.26 1.06-.54 1.59-.84l.35-.18.25-.14 5.1 5 6.26-5.33 2-1.69-3.9-6a34.33 34.33 0 0 0 5.63-9.52l-.05.09v-.1Zm-59.89 10.11.05.12Zm15.25 12.11h.16Zm7.53-9.52c-9.55 0-16-7.65-14.53-17.18l.09-.51c1.74-9.76 11-17.68 20.74-17.68h.5c9.44.27 15.66 8.07 13.95 17.67-1.74 9.78-11.03 17.7-20.75 17.7Z" class="colore9e9f2 svgShape"></path><path fill="#a7a7c6" d="M281.58 263.81h4.08a12.25 12.25 0 0 0-1.67-7.13l-3.4 2.9a8.73 8.73 0 0 1 .99 4.23ZM282 254.26a11.76 11.76 0 0 0-6.57-2.95l-.73 4.1a8.34 8.34 0 0 1 3.9 1.75Z" class="colora7a7c6 svgShape"></path><path fill="#161622" d="m278.48 271.45 2.36 2.9a17.72 17.72 0 0 0 4.21-7.13H281a12.48 12.48 0 0 1-2.52 4.23ZM264.44 254.26l2.36 2.9a12.09 12.09 0 0 1 4.52-1.75l.73-4.1a17 17 0 0 0-7.61 2.95ZM260.43 276.76a11.6 11.6 0 0 0 6.56 2.95l.73-4.09a8.44 8.44 0 0 1-3.9-1.75ZM264 259.57l-2.37-2.89a17.45 17.45 0 0 0-4.2 7.13h4.07a12.72 12.72 0 0 1 2.5-4.24ZM271.12 275.62l-.73 4.09a16.81 16.81 0 0 0 7.62-2.95l-2.37-2.89a12.2 12.2 0 0 1-4.52 1.75ZM260.86 267.22h-4.07a12.28 12.28 0 0 0 1.66 7.13l3.4-2.9a8.85 8.85 0 0 1-.99-4.23Z" class="colord9d9e7 svgShape"></path></g><g data-name="Gear setting"><path fill="#161622" d="m115.52 95.08 1.06-6 .2-1.08-5.39-.51a17.2 17.2 0 0 0-.44-3.42 15 15 0 0 0-.43-1.49c0-.09 0-.18-.09-.27q-.24-.67-.54-1.32l-.06-.17 4.28-4.26-4.06-5-4.87 3.54-.18-.1c-.15-.11-.32-.2-.47-.3l-.24-.16c-.39-.25-.79-.49-1.2-.71a1.51 1.51 0 0 1-.22-.11 14.55 14.55 0 0 0-1.33-.6l-.21-.08a13.29 13.29 0 0 0-1.43-.47l-.23-.07-.74-.2.08-.93.4-4.56h-7l-1.48 5.49a21.47 21.47 0 0 0-3.33 1c-.72.26-1.43.57-2.12.9l-.39.21q-.53.27-1 .57l-.31.16-3.61-3.54-5.83 5L77 80.81a24.26 24.26 0 0 0-3.6 5.82c-.13.29-.25.59-.37.89L67.5 88l-1.21 6.78-.06.29 5.41.5a15.43 15.43 0 0 0 .13 1.68s0 .1 0 .15c.06.44.14.88.24 1.31s.12.55.19.82.11.4.18.6a12.5 12.5 0 0 0 .47 1.34v.08c.11.25.19.51.31.75l-4.26 4.24 3.25 4 .81 1 4.91-3.54c.15.12.32.21.48.32l.39.26c.18.12.35.25.54.36a14.38 14.38 0 0 0 1.56.81 16.73 16.73 0 0 0 3.23 1l-.08.92-.39 4.56h7l1.48-5.49a21.91 21.91 0 0 0 4.28-1.35l.56-.24.81-.38 1.12-.59.25-.14.17-.1 3.61 3.55 4.42-3.77 1.42-1.19-2.72-4.21a23.83 23.83 0 0 0 4-6.73v.07-.07Zm-42.34 7.14v.09s.01-.05 0-.09ZM84 110.78a.45.45 0 0 0 .11 0Zm5.32-6.73c-6.75 0-11.28-5.4-10.27-12.14l.06-.36c1.23-6.9 7.79-12.5 14.66-12.5h.36c6.67.19 11.07 5.71 9.86 12.49s-7.84 12.51-14.71 12.51Z" class="colord9d9e7 svgShape"></path><path fill="#a106f7" d="m114.27 93.65 1.06-6 .21-1.08-5.39-.51a18.07 18.07 0 0 0-.44-3.42 14.23 14.23 0 0 0-.43-1.49l-.09-.28q-.24-.67-.54-1.32a1.22 1.22 0 0 0-.07-.17l4.28-4.26-4.06-5-4.88 3.55-.13-.1c-.15-.11-.32-.21-.48-.31l-.23-.15a13.21 13.21 0 0 0-1.21-.71l-.21-.11c-.43-.22-.88-.43-1.33-.61l-.21-.08c-.46-.18-.94-.33-1.43-.47l-.23-.06c-.25-.07-.49-.15-.74-.2l.08-.94.39-4.56h-7l-1.48 5.49a23.07 23.07 0 0 0-3.34.95c-.71.27-1.42.57-2.11.91l-.39.21c-.35.17-.7.36-1 .56l-.31.17-3.61-3.55-5.83 5 2.77 4.26a24.14 24.14 0 0 0-3.6 5.82c-.13.3-.26.59-.37.89l-5.58.51-1.2 6.78-.06.29 5.4.51c0 .57.07 1.12.13 1.67a.77.77 0 0 1 0 .15c.06.44.14.88.23 1.31.06.28.13.55.2.82s.11.41.17.61c.14.45.3.89.48 1.33v.09c.1.25.19.5.31.74l-4.27 4.24 3.24 4 .82 1 4.88-3.54.48.32.39.26c.18.11.35.24.54.35a14.38 14.38 0 0 0 1.56.81 16.75 16.75 0 0 0 3.23 1.06l-.08.91-.39 4.56h7l1.48-5.5a22.14 22.14 0 0 0 4.24-1.36l.57-.25c.27-.12.54-.24.81-.38s.75-.38 1.12-.59l.25-.13.17-.1 3.61 3.54 4.42-3.77 1.42-1.19-2.76-4.24a24.11 24.11 0 0 0 4-6.73v.06-.07Zm-42.34 7.15a.36.36 0 0 1 0 .09Zm10.79 8.56h.11Zm5.28-6.73c-6.75 0-11.28-5.41-10.27-12.15l.06-.35c1.23-6.91 7.79-12.5 14.66-12.5h.36c6.67.19 11.07 5.71 9.86 12.5s-7.76 12.5-14.67 12.5Z" class="colore9e9f2 svgShape"></path><path fill="#a7a7c6" d="M97.59 88.92h2.88a8.59 8.59 0 0 0-1.18-5l-2.4 2.05a6.24 6.24 0 0 1 .7 2.95ZM97.9 82.17a8.27 8.27 0 0 0-4.64-2.08L92.74 83a5.93 5.93 0 0 1 2.76 1.24Z" class="colora7a7c6 svgShape"></path><path fill="#161622" d="m95.4 94.32 1.67 2.05a12.29 12.29 0 0 0 3-5h-2.91a8.9 8.9 0 0 1-1.76 2.95ZM85.47 82.17l1.67 2a8.62 8.62 0 0 1 3.2-1.17l.52-2.89a12 12 0 0 0-5.39 2.06ZM82.64 98.08a8.25 8.25 0 0 0 4.64 2.09l.51-2.9A5.9 5.9 0 0 1 85 96ZM85.14 85.93l-1.67-2.05a12.42 12.42 0 0 0-3 5h2.88a8.93 8.93 0 0 1 1.79-2.95ZM90.2 97.27l-.52 2.9a12 12 0 0 0 5.39-2.09l-1.68-2a8.57 8.57 0 0 1-3.19 1.19ZM82.94 91.33h-2.88a8.75 8.75 0 0 0 1.18 5l2.4-2a6.28 6.28 0 0 1-.7-3Z" class="colord9d9e7 svgShape"></path></g><g data-name="Login Screen"><path fill="#b8b8d1" d="M323.77 256.3A12.71 12.71 0 0 1 312 266H63.24c-5.36 0-8.79-4.36-7.64-9.72L89.41 98.74A12.72 12.72 0 0 1 101.22 89H350c5.36 0 8.78 4.36 7.63 9.72Z" class="colorb8b8d1 svgShape"></path><path fill="#e1e9f5" d="M320.61 252a12.72 12.72 0 0 1-11.81 9.72H60.07c-5.36 0-8.78-4.36-7.63-9.72L86.25 94.44a12.72 12.72 0 0 1 11.81-9.72h248.72c5.36 0 8.79 4.36 7.64 9.72Z" class="colorc8c8dc svgShape"></path><path fill="#a106f7" d="M92.37 94.44 58.56 252a2.81 2.81 0 0 0 2.83 3.59h248.73a4.71 4.71 0 0 0 4.37-3.59L348.3 94.44a2.82 2.82 0 0 0-2.83-3.6H96.74a4.7 4.7 0 0 0-4.37 3.6Z" class="colore9e9f2 svgShape"></path><path fill="#161622" d="M108.4 104.92 78.67 243.45a2.48 2.48 0 0 0 2.49 3.16h218.68a4.13 4.13 0 0 0 3.84-3.16l29.73-138.53a2.48 2.48 0 0 0-2.49-3.16H112.24a4.13 4.13 0 0 0-3.84 3.16Z" class="colord9d9e7 svgShape"></path><path fill="#a106f7" d="M158.67 132.44l-39.41.16 1.16-5.49 39.42-.16-1.17 5.49zM129.15 144.93l-12.51.05 1.16-5.49 12.51-.05-1.16 5.49zM156.05 144.82l-24 .1 1.16-5.49 24-.1-1.16 5.49zM201.63 126.78l-14.29.06a2.34 2.34 0 00-2.18 1.8l-3 14.28a1.4 1.4 0 001.41 1.78l14.29-.06a2.35 2.35 0 002.18-1.8l3-14.28a1.39 1.39 0 00-1.41-1.78zM182.05 126.86l-14.29.06a2.35 2.35 0 00-2.18 1.8l-3 14.28a1.39 1.39 0 001.41 1.78l14.29-.06a2.35 2.35 0 002.18-1.8l3-14.28a1.39 1.39 0 00-1.41-1.78zM130.75 159.12l-17.12.07 1.16-5.49 17.12-.07-1.16 5.49zM162.85 158.98l-29.21.12 1.17-5.48 29.2-.12-1.16 5.48zM196.62 158.84l-30.87.13 1.16-5.48 30.88-.13-1.17 5.48zM144.18 171.43l-33.18.14 1.17-5.49 33.17-.14-1.16 5.49zM171.53 171.31l-24.46.11 1.17-5.49 24.45-.1-1.16 5.48zM194 171.22l-19.58.08 1.17-5.48 19.57-.08-1.16 5.48zM120.89 183.89l-12.51.06 1.16-5.49 12.51-.05-1.16 5.48zM160.67 183.73l-36.88.15 1.16-5.48 36.89-.16-1.17 5.49zM191.38 183.6l-27.81.12 1.17-5.49 27.8-.12-1.16 5.49zM122.49 198.08l-17.12.08 1.16-5.49 17.12-.07-1.16 5.48zM154.59 197.95l-29.2.12 1.16-5.48 29.2-.13-1.16 5.49zM188.37 197.81l-30.88.13 1.16-5.49 30.88-.13-1.16 5.49zM135.92 210.4l-33.18.13 1.17-5.48 33.17-.14-1.16 5.49zM163.26 210.28l-24.45.1 1.17-5.48 24.45-.11-1.17 5.49zM185.74 210.19l-19.58.08 1.17-5.49 19.57-.08-1.16 5.49zM112.63 222.86l-12.51.05 1.16-5.48 12.51-.05-1.16 5.48zM152.41 222.69l-36.88.16 1.16-5.49 36.89-.15-1.17 5.48zM183.12 222.57l-27.81.11 1.16-5.48 27.81-.12-1.16 5.49zM227.93 189.45h-14.69a3.3 3.3 0 00-3.12 2.64l-3.48 19a2.14 2.14 0 002.15 2.64h14.7a3.3 3.3 0 003.12-2.64l3.48-19a2.14 2.14 0 00-2.16-2.64zM251.17 189.45h-14.69a3.32 3.32 0 00-3.13 2.64l-3.47 19a2.13 2.13 0 002.15 2.64h14.7a3.3 3.3 0 003.12-2.64l3.48-19a2.14 2.14 0 00-2.16-2.64zM274.41 189.45h-14.69a3.32 3.32 0 00-3.13 2.64l-3.48 19a2.14 2.14 0 002.16 2.64H270a3.3 3.3 0 003.12-2.64l3.48-19a2.14 2.14 0 00-2.19-2.64zM297.65 189.45H283a3.32 3.32 0 00-3.13 2.64l-3.48 19a2.14 2.14 0 002.16 2.64h14.7a3.31 3.31 0 003.12-2.64l3.48-19a2.14 2.14 0 00-2.2-2.64z" class="colore9e9f2 svgShape"></path><path fill="#e1e9f5" d="M224.76 211.21h-16.51l.24-1.32h16.52l-.25 1.32zM248 211.21h-16.51l.24-1.32h16.52l-.25 1.32zM271.24 211.21h-16.51l.24-1.32h16.52l-.25 1.32zM294.48 211.21h-16.51l.24-1.32h16.51l-.24 1.32zM222.44 135.43l-.88 4.82h1.89l-.21 1.11h-3.33l1.08-5.93ZM226.07 141.43a1.89 1.89 0 0 1-2-2.42 2.91 2.91 0 0 1 2.89-2.43 1.9 1.9 0 0 1 2 2.43 2.91 2.91 0 0 1-2.89 2.42Zm.23-1.25a1.29 1.29 0 0 0 1.21-1.17c.15-.81-.26-1.18-.76-1.18a1.26 1.26 0 0 0-1.2 1.18c-.14.79.23 1.17.75 1.17ZM232 136.58a1.33 1.33 0 0 1 1.32.74l.12-.67h1.45l-.86 4.7a2.7 2.7 0 0 1-2.78 2.33c-1.41 0-2.19-.71-2.11-1.83h1.43c0 .35.34.58.84.58a1.14 1.14 0 0 0 1.17-1.08l.13-.67a2 2 0 0 1-1.59.75c-1.16 0-1.91-1-1.63-2.43a2.71 2.71 0 0 1 2.51-2.42Zm.19 1.26a1.32 1.32 0 0 0-1.24 1.16c-.13.75.28 1.17.82 1.17A1.3 1.3 0 0 0 233 139c.13-.75-.28-1.16-.83-1.16ZM236 135.38a1 1 0 0 1 1-.78.65.65 0 0 1 .71.78 1 1 0 0 1-1 .78.65.65 0 0 1-.71-.78Zm-.09 1.27h1.44l-.86 4.71h-1.44ZM241.27 138.8c.11-.64-.18-1-.72-1a1.09 1.09 0 0 0-1.09 1l-.47 2.56h-1.44l.86-4.71h1.44l-.11.62a2.13 2.13 0 0 1 1.55-.67c1.09 0 1.68.74 1.45 2l-.51 2.75h-1.43ZM215 181h-.89l-.39 2.12h-1.44l1.08-5.92h2.34c1.45 0 2 .82 1.82 1.91A2.37 2.37 0 0 1 215 181Zm.1-1.15a.87.87 0 0 0 1-.74c.08-.46-.11-.75-.69-.75h-.78l-.27 1.49ZM220.22 178.31a1.34 1.34 0 0 1 1.32.73l.12-.67h1.44l-.86 4.71h-1.44l.12-.66a2.06 2.06 0 0 1-1.6.73c-1.14 0-1.89-1-1.62-2.43a2.7 2.7 0 0 1 2.52-2.41Zm.19 1.25a1.32 1.32 0 0 0-1.24 1.16c-.14.75.27 1.17.81 1.17a1.32 1.32 0 0 0 1.25-1.16c.14-.73-.23-1.17-.82-1.17ZM225.2 183.15c-1.26 0-2-.7-1.88-1.61h1.43c0 .33.23.55.62.55s.6-.17.64-.38c.14-.76-2.53-.21-2.21-1.94a2 2 0 0 1 2.18-1.46c1.22 0 1.77.67 1.69 1.6h-1.33c0-.32-.19-.53-.6-.53s-.54.13-.59.36c-.13.75 2.51.22 2.22 2a2 2 0 0 1-2.17 1.41ZM229.91 183.15c-1.26 0-2-.7-1.88-1.61h1.43c0 .33.23.55.63.55s.59-.17.63-.38c.14-.76-2.53-.21-2.21-1.94a2 2 0 0 1 2.18-1.46c1.22 0 1.77.67 1.69 1.6h-1.33c0-.32-.19-.53-.6-.53s-.54.13-.58.36c-.14.75 2.5.22 2.21 2a2 2 0 0 1-2.17 1.41ZM233.09 178.37h1.44l.06 3.37 1.41-3.37h1.52l.19 3.35 1.27-3.35h1.36l-2.13 4.71h-1.6l-.18-3.05-1.33 3.05h-1.59ZM242.17 183.15a1.89 1.89 0 0 1-2-2.42 2.89 2.89 0 0 1 2.89-2.42 1.89 1.89 0 0 1 2 2.42 2.91 2.91 0 0 1-2.89 2.42Zm.23-1.25a1.29 1.29 0 0 0 1.21-1.17c.14-.8-.26-1.17-.77-1.17a1.25 1.25 0 0 0-1.19 1.17c-.15.79.22 1.17.75 1.17ZM246.86 183.08h-1.44l.86-4.71h1.44l-.14.79a2.16 2.16 0 0 1 1.63-.84l-.28 1.53h-.4a1.12 1.12 0 0 0-1.27 1.05ZM251.69 178.31a1.41 1.41 0 0 1 1.31.69l.39-2.18h1.45l-1.14 6.24h-1.45l.13-.67a2 2 0 0 1-1.59.74c-1.16 0-1.9-1-1.63-2.43a2.7 2.7 0 0 1 2.53-2.39Zm.2 1.25a1.32 1.32 0 0 0-1.25 1.16c-.13.75.28 1.17.82 1.17a1.3 1.3 0 0 0 1.24-1.16c.14-.73-.27-1.17-.81-1.17Z" class="colorc8c8dc svgShape"></path><path fill="#a106f7" d="M306 148h-85.91a2.45 2.45 0 0 0-2.31 1.95l-2.61 14.3a1.59 1.59 0 0 0 1.59 2h85.86a2.46 2.46 0 0 0 2.31-2l2.61-14.3A1.58 1.58 0 0 0 306 148Z" class="colore9e9f2 svgShape"></path></g><g data-name="Welcome bar"><path fill="#b8b8d1" d="M349 41.19H186.93A3.13 3.13 0 0 0 184 43.6l-5.53 26a1.89 1.89 0 0 0 1.9 2.4h162.08a3.14 3.14 0 0 0 2.92-2.41l5.53-26a1.89 1.89 0 0 0-1.9-2.4Z" opacity=".5" class="colorb8b8d1 svgShape"></path><path fill="#9703f5" d="M345.32 35.69h-168a3.28 3.28 0 0 0-3.05 2.51l-5.77 27.11a2 2 0 0 0 2 2.5h168a3.28 3.28 0 0 0 3-2.5l5.77-27.11a2 2 0 0 0-1.95-2.51Z" data-name="Website screen" class="colord8776a svgShape"></path><path fill="#ffffff" d="M188.48 45.75h2.85l.17 8 3.36-8h2.93l.46 8 3-8h2.87l-4.79 11h-3.22l-.48-7.21-3.08 7.21h-3.23ZM212.58 47.88h-4l-.4 2.22h3.58l-.37 2.06h-3.57l-.42 2.4h4l-.4 2.14h-6.71l1.94-11H213ZM218.13 45.75l-1.57 8.89h3.5l-.37 2.06h-6.16l1.94-11ZM228.76 45.62c2.61 0 4.32 1.47 4.52 3.84h-2.93a2 2 0 0 0-2-1.4 3.46 3.46 0 0 0-3.35 3.15c-.34 1.93.57 3.15 2.21 3.15a3 3 0 0 0 2.52-1.36h2.93a6.28 6.28 0 0 1-5.87 3.83c-3.23 0-5.1-2.3-4.52-5.57a6.59 6.59 0 0 1 6.49-5.64ZM239.58 56.81a4.51 4.51 0 0 1-4.64-5.62 6.83 6.83 0 0 1 6.62-5.6 4.48 4.48 0 0 1 4.62 5.6 6.83 6.83 0 0 1-6.6 5.62Zm.43-2.44a3.54 3.54 0 0 0 3.45-3.18c.34-1.95-.58-3.18-2.32-3.18a3.52 3.52 0 0 0-3.47 3.18c-.34 1.92.56 3.18 2.33 3.18ZM249.4 45.75h3.15l1.73 7.58 4.39-7.58h3.13l-1.93 11h-2.67l1.16-6.57-3.61 6.57h-2.15l-1.3-6.59-1.17 6.59h-2.67ZM270.83 47.88h-4l-.39 2.22H270l-.36 2.06H266l-.43 2.4h4l-.37 2.14h-6.71l1.93-11h6.71ZM283.21 56.7h-5.1l1.93-11H285c2.23 0 3.36 1.1 3.06 2.84a3.12 3.12 0 0 1-2.3 2.49 2.17 2.17 0 0 1 1.64 2.64c-.35 1.86-1.88 3.03-4.19 3.03Zm.87-8.82h-1.75l-.4 2.3h1.74a1.38 1.38 0 0 0 1.56-1.18c.13-.71-.23-1.12-1.15-1.12Zm-.56 4.25h-1.94l-.43 2.42h2a1.44 1.44 0 0 0 1.61-1.19c.11-.78-.35-1.23-1.24-1.23ZM296.33 54.76h-4.09l-1 1.94h-2.79l5.9-11h3.09l2 11h-2.83Zm-1-6.07-2.05 4H296ZM308.46 45.62c2.6 0 4.31 1.47 4.52 3.84H310a1.94 1.94 0 0 0-2-1.4 3.45 3.45 0 0 0-3.32 3.15c-.34 1.93.57 3.15 2.2 3.15a3 3 0 0 0 2.55-1.36h2.93a6.29 6.29 0 0 1-5.87 3.83c-3.23 0-5.1-2.3-4.53-5.57a6.6 6.6 0 0 1 6.5-5.64ZM317.64 51.86l-.86 4.84h-2.67l1.94-11h2.67l-.85 4.8 4.5-4.8h3.13l-5.19 5.36 3.42 5.59h-3.27Z" class="colorea907f svgShape"></path></g><g><g data-name="Arm L"><path fill="#fca993" d="M128.89 97.4s4.79-8.34 4.9-10.83-2.06-8.12-3.19-7.11a10.38 10.38 0 0 0-1.67 1.84s-1.18-2.33-2.28-.82a4.64 4.64 0 0 0-.77 3.31s-.92-3.38-2.08-2.47-.46 3.29-.46 3.29-1.56-3.51-2.29-1.71-2.47 12.28-.94 12.91 8.78 1.59 8.78 1.59Z" data-name="Hand" class="colorfca993 svgShape"></path><path fill="#9703f5" d="M129.31 84c-.22 0-.46-.66-.55-1.52s0-1.58.23-1.6.46.66.55 1.52-.02 1.6-.23 1.6ZM126 85.06c-.21 0-.46-.65-.54-1.52s0-1.57.23-1.59.46.65.54 1.52-.02 1.53-.23 1.59ZM123.1 86.27c-.21 0-.46-.66-.54-1.52s0-1.58.23-1.6.45.66.54 1.52-.02 1.57-.23 1.6Z" class="colord8776a svgShape"></path><path fill="#fca993" d="m119.26 143.68 10.58-48.46-10-1.61S94.21 137.83 103 144.26c8 3.74 16.26-.58 16.26-.58Z" class="colorfca993 svgShape"></path><path fill="#7a33bd" d="M146.46 108.46S122.57 120 116 122.67c-5.22 4.36-7.3 20.09-2.64 24.72a48.59 48.59 0 0 0 17.26-5.18c1.08-4.59 15.84-33.75 15.84-33.75Z" data-name="Upper arm" class="colorffcd5c svgShape"></path></g><g data-name="Leg L"><path fill="#7a33bd" d="M159 349.06c-5.84-2.65-17.66-13.16-17.75-13.66l-.4-8.6-25.18-1.65c-1.11 5.61-2.89 18.84-1.78 19.59 1.43.95 45.52 16.94 48.22 13.81 1.79-2.04 2.76-6.83-3.11-9.49Z" class="colorffcd5c svgShape"></path><path fill="#d89935" d="M154.08 346.25c-.16.21.19.68.45 1.45a8.51 8.51 0 0 1 .18 3.28c-.29 2.69-1 4.95-.53 5.13s1.85-1.86 2.2-5a6 6 0 0 0-.8-4c-.68-.86-1.39-1.02-1.5-.86Z" class="colord89935 svgShape"></path><path fill="#afb1d4" d="M112.57 347.44s.26-3.55 1.26-4.29c5.36-3.94 48.79 10.32 49.47 13.25a2 2 0 0 1-1.18 2.17Z" class="color171c80 svgShape"></path><path fill="#070e3f" d="M115.13 350c1.34.6 44.25 9.94 44.93 10.08 1.08.22 2.28-1.24 2.53-1.65s-27.73-12.74-46.14-13.64c-4.02-.24-5.54 3.28-1.32 5.21Z" class="color070e3f svgShape"></path><path fill="#3d0e7d" d="M136.34 335.56a3.95 3.95 0 1 1-3-4.73 4 4 0 0 1 3 4.73Z" class="colorf4b442 svgShape"></path><path fill="#d89935" d="M142.6 340.11c-.79-1.46 2.24-3.75 2.89-3.39s-2.1 4.83-2.89 3.39ZM145.32 342.59c-.79-1.46 2.23-3.74 2.89-3.38s-2.1 4.79-2.89 3.38ZM148.44 344.79c-.8-1.46 2.23-3.74 2.88-3.39s-2.1 4.83-2.88 3.39Z" class="colord89935 svgShape"></path><g><path fill="#afb1d4" d="m113.34 326.69 28.63 1.39 19.9-147.06h-38.99l-9.54 145.67z" data-name="Leg" class="color171c80 svgShape"></path></g><path fill="#111968" d="M161.87 181 142 328.08l-17.43-.85c9.11-18 29.47-68.57 26.06-122.29-.74-11.72.36-19.32 2.62-23.92Z" data-name="Leg" class="color111968 svgShape"></path><path fill="#111968" d="M135.13 261.86c.26.45-1.85 2.19-4.73 3.9s-5.42 2.72-5.68 2.28 1.85-2.19 4.73-3.9 5.41-2.72 5.68-2.28ZM141.18 259.42c.39.34-1.65 3.38-4.57 6.79s-5.59 5.91-6 5.57 1.65-3.37 4.57-6.79 5.61-5.91 6-5.57ZM138.85 182.38l-2.06 18.83-6.61 1.39-5.45-1.91.21-18.31h13.91z" class="color111968 svgShape"></path></g><g data-name="Foot"><path fill="#7a33bd" d="M236.22 246.4c-5-1.15-14.31-6.84-14.46-7.21l1.47-5.65-19.11-.21c-1.66 4.5-4.13 20.25-3.15 20.66 1.27.52 34.94 1.56 38 .3s2.24-6.74-2.75-7.89Z" class="colorffcd5c svgShape"></path><path fill="#d89935" d="M231.91 245c-.1.19.25.51.57 1.07a6.92 6.92 0 0 1 .67 2.54c.2 2.15 0 4 .39 4.09s1.16-1.74.94-4.23a4.78 4.78 0 0 0-1.26-3c-.68-.61-1.22-.63-1.31-.47Z" class="colord89935 svgShape"></path><path fill="#afb1d4" d="M201 255.59c1.15.24 37.14 0 37.7 0 .87 0 1.66-2.11 1.79-2.47s-24.94-4-39.48-1.81c-.46.75-1.29 4.02-.01 4.28Z" class="color171c80 svgShape"></path><path fill="#3d0e7d" d="M216.85 241.36a3.15 3.15 0 1 1-3.08-3.22 3.16 3.16 0 0 1 3.08 3.22Z" class="colorf4b442 svgShape"></path><path fill="#d89935" d="M222 242c-.86-1 1.15-3.28 1.71-3.11s-.9 4.11-1.71 3.11ZM224.47 243.52c-.85-1 1.15-3.29 1.72-3.11s-.87 4.11-1.72 3.11ZM227.26 244.74c-.86-1 1.15-3.28 1.72-3.11s-.88 4.11-1.72 3.11Z" class="colord89935 svgShape"></path></g><path fill="#afb1d4" d="M134.09 178.44s22.84-3.77 47-7.42c21.17-3.2 43.58-7 49.7 1.67 9.93 14.15-7 62.71-7 62.71l-21.49.68 5-33.48s-25.84 25-50.88 14.07c-20.52-8.95-22.33-38.23-22.33-38.23Z" class="color171c80 svgShape"></path><path fill="#111968" d="M171.32 219.4c0 .13-.53.26-1.53.39a19.41 19.41 0 0 1-4.24.18l-1.41-.08a9.1 9.1 0 0 1-1.53-.18c-1-.22-2.18-.39-3.33-.71l-1.75-.59a12.34 12.34 0 0 1-1.8-.69 26.39 26.39 0 0 1-3.58-1.91 28.84 28.84 0 0 1-6-5 31.5 31.5 0 0 1-3.79-5.07c-1.84-3.11-2.4-5.3-2.16-5.38s1.22 1.84 3.26 4.65a35.46 35.46 0 0 0 9.68 9.19 27.25 27.25 0 0 0 3.33 1.82 12.6 12.6 0 0 0 1.67.7l1.63.61c1.08.34 2.14.56 3.11.83a8.45 8.45 0 0 0 1.44.27l1.34.2c1.71.34 3.12.27 4.1.41s1.55.23 1.56.36ZM208.9 200.91c0-.12.2-.36.65-.66l.81-.53 1-.77a21.16 21.16 0 0 0 4.71-5.52c3-4.94 4.33-9.62 4.86-9.48.25.05.22 1.31-.25 3.25a25.51 25.51 0 0 1-3 7.22 15.85 15.85 0 0 1-5.57 5.64c-.46.23-.88.43-1.26.59a7 7 0 0 1-1 .27c-.59.08-.91.08-.95-.01ZM216.62 197c0-.27.54-.57 1.37-1.14a29.9 29.9 0 0 0 3.13-2.44 35.73 35.73 0 0 0 2.83-2.82c.69-.75 1.1-1.27 1.36-1.18s.24.84-.25 1.9a10.92 10.92 0 0 1-2.69 3.5 10.48 10.48 0 0 1-3.82 2.24c-1.13.37-1.91.22-1.93-.06ZM209.15 225.49c-.21-.52 2.16-1.79 4.65-3.76a31.66 31.66 0 0 0 3-2.71c.74-.75 1.19-1.24 1.43-1.15s.19.87-.34 1.91a10.8 10.8 0 0 1-2.89 3.42c-2.84 2.2-5.7 2.73-5.85 2.29ZM209.41 227.5c0-.56 2.68-.85 5.72-1.73a33.9 33.9 0 0 0 3.81-1.39c1-.41 1.56-.7 1.75-.53s-.15.88-1 1.65a11 11 0 0 1-4 2.07c-3.46.98-6.31.43-6.28-.07Z" class="color111968 svgShape"></path><path fill="#111968" d="m214.24 235.71-11.92.37 5-33.48s-3.24 27.46 6.92 33.11ZM161.87 180.25l.63 18.41-7.21 3.12-6.51-2.81-.69-16.84 13.78-1.88z" class="color111968 svgShape"></path><g><path fill="#7a33bd" d="M181.11 171c-5.67 1 4.34 11.6-.84 10a41.1 41.1 0 0 1-5.26-2.87s-.81 8.09-2.23 8.93c-15.87 9.37-39.39 8.15-51.86-1.65C125 142.54 135.63 105 156.07 105c11.98 0 14.74 43.72 25.04 66Z" class="colorffcd5c svgShape"></path><path fill="#3d0e7d" d="M180.27 181a41.39 41.39 0 0 1-5.27-2.87s-.8 8.09-2.22 8.93c-15.87 9.38-39.39 8.15-51.86-1.65 1-10.21 2.31-20.12 4.06-29.28 3 7.77 10.17 20.12 25.81 18s18.89-25.81 19.47-40.35c3.1 12.77 6.21 27.15 10.84 37.18-5.66 1.04 4.35 11.66-.83 10.04Z" class="colorf4b442 svgShape"></path><path fill="#d89935" d="M133.92 125.34c.26.12-.12 1.44-.75 3.54-.69 2.26-1.55 5.07-2.51 8.19-1.93 6.4-3.49 11.62-4 11.51s.2-5.58 2.16-12.08a57.15 57.15 0 0 1 3.08-8.12c.97-2.01 1.8-3.15 2.02-3.04ZM158.91 181.74c.1.2-1.36 1.25-4 2.54a37.26 37.26 0 0 1-4.76 1.91 30.51 30.51 0 0 1-6.19 1.35 26.31 26.31 0 0 1-6.36-.08 22.9 22.9 0 0 1-5-1.36c-2.73-1.13-4.15-2.3-4-2.47s1.76.51 4.46 1.28a28.54 28.54 0 0 0 4.81.93 30.76 30.76 0 0 0 6-.07 36.85 36.85 0 0 0 5.91-1.15c1.81-.47 3.4-1 4.75-1.5 2.59-.96 4.26-1.62 4.38-1.38Z" class="colord89935 svgShape"></path><path fill="#d89935" d="M146.46 182.62c0 .12-.27.28-.84.45a8.44 8.44 0 0 1-2.48.43 14.37 14.37 0 0 1-8.06-2 18.78 18.78 0 0 1-6-5.66c-1.17-1.76-1.58-3-1.37-3.14s1 .88 2.36 2.36A26 26 0 0 0 136 180a17.35 17.35 0 0 0 7.2 2.3c1 .14 1.79.09 2.36.14s.88.06.9.18ZM175 177.52c-.13 0-.42-.5-.84-1.53-.2-.52-.45-1.15-.7-1.9l-.76-2.56a95.32 95.32 0 0 1-2.62-15.19c-1.13-12-.39-21.77.14-21.74s.67 9.7 1.79 21.55a221 221 0 0 0 2 15.08c.17 1 .33 1.81.47 2.59s.27 1.39.38 2c.23 1.04.27 1.66.14 1.7Z" class="colord89935 svgShape"></path></g><g><path fill="#fca993" d="m154.58 95.22-3.78 10.95 11.05 4.18 2.18-10.09-9.45-5.04z" class="colorfca993 svgShape"></path><path fill="#3d0e7d" d="M148.17 107.05c.12-1.82 1.31-5.31 3-5.8s12.49 2.25 13.19 3.86-.08 4.82-1.35 5.38c-3.4 1.51-14.84-3.44-14.84-3.44Z" class="colorf4b442 svgShape"></path><path fill="#fca993" d="M154.42 97.23s-2.47-9.82 4.83-15 12.62.64 12.5 3.5c-.16 4 2.87 7.34 2.87 7.34l-1.13 1.23s1.12 5.32-1.2 7.25-8.85-.56-8.85-.56Z" data-name="Face" class="colorfca993 svgShape"></path><g data-name="Face detail"><ellipse cx="167.96" cy="92.8" fill="#f9917a" rx="1.33" ry="1.82" transform="rotate(-25.68 167.934 92.806)" class="colorf9917a svgShape"></ellipse><ellipse cx="170.24" cy="88.39" fill="#070e3f" rx=".69" ry=".95" transform="rotate(-25.68 170.21 88.387)" class="color070e3f svgShape"></ellipse><path fill="#070e3f" d="M160.54 86.66c-.11.1.45.79.74 1.76a1.1 1.1 0 010 .16 1 1 0 01-.16-.1c-.29-.19-.55-.41-.65-.34s0 .44.41.72a.82.82 0 00.47.13c.05.7-.17 1.22-.06 1.28s.24-.12.39-.48a2.32 2.32 0 00.07-1.5c-.32-1.16-1.13-1.74-1.21-1.63zM173.75 97c.1.12 0 .39-.27.68a2.05 2.05 0 01-1.53.46c-1.28-.16-1.88-1-1.67-1.27s1 0 1.78.08 1.44-.24 1.69.05zM170 85.12a2.26 2.26 0 00-1.6 0c-.38.17-.51.4-.45.52.17.28.89.17 1.6.45s1.41.67 1.67.48-.04-1.01-1.22-1.45z" class="color070e3f svgShape"></path><path fill="#f9917a" d="M172.49 101.43c.06.14-.37.5-1.21.79a8.4 8.4 0 0 1-3.38.43c-2.7-.16-4.62-1.33-4.46-1.62s2.09.28 4.53.43 4.39-.35 4.52-.03Z" class="colorf9917a svgShape"></path></g><path fill="#070e3f" d="M156.87 92.59c-.22 6.83-13.89 5.87-13.1 1.43 1.11-6.23 2.56-4.61-3.27-7.07s3-3.42.26-8.46c-2-3.58-4-5.93-1.2-8s6.27 2.53 9.2-1.23 1.93-10.81 7.35-6.49 4.56 8.77 9 7 9.6.58 7.4 5.07-16.91-.55-15.85 5.45a46.64 46.64 0 0 1 .21 12.3Z" class="color070e3f svgShape"></path><path fill="#070e3f" d="M162.71 87.52c4.38.27 3.37-3.53 7.25-3.26s5.73-8.39.63-11.19-8.2-2.18-8.88-.24c-.12-1.36-3-6.55-7.55-3.75-5.9 3.65-3.8 9.33-3.8 9.33s-5.44 1-5.19 5.43c.07 1.34-.35 2.81 2.86 4.51-1 1.55-2.76 5.33 3.2 6.66 0 0-1.14 4.21 3.35 4.4 5.74.24 6.6-3.36 6.6-3.36s1.48-3.58-.51-4.28c-2.51-.9-2.12-5.79-.93-6.26 2.31-.92 2.97 2.01 2.97 2.01Z" data-name="Hair" class="color070e3f svgShape"></path></g><g data-name="Arm R"><path fill="#fca993" d="m182.7 105.79 39.57-37.38 7.37 6.25s-30.49 50.58-41.06 47.8-5.88-16.67-5.88-16.67Z" data-name="Forearm" class="colorfca993 svgShape"></path><path fill="#9703f5" d="M200.26 101.54c0 .07-.11.13-.33.19a2.59 2.59 0 0 1-1 .08 4.9 4.9 0 0 1-2.89-1.26 6.66 6.66 0 0 1-1.7-2.55c-.28-.74-.3-1.25-.17-1.29s1 1.65 2.58 3.1 3.5 1.42 3.51 1.73ZM204.36 99.86c.06.22-1.62.93-3.83.54a4.86 4.86 0 0 1-2.53-1.25c-.53-.52-.66-1-.54-1.06s.42.19 1 .51a7.36 7.36 0 0 0 2.29.83c1.87.35 3.56.12 3.61.43Z" class="colord8776a svgShape"></path><g data-name="Hand"><path fill="#fca993" d="M232 66.42s5.52-7 4.57-8.53-6.87 6.46-6.87 6.46 4.6-6.27 3.16-7.13-6.06 5.54-7.59 7.4c-1 1.21-1.64 1.56-1.6-.08s-1.34-3.67-2.47-3.2.73 6.84-.22 8.57c-.17.3 3.84 8.29 8.89 5.3 2.72-1.61 9.1-7.26 7.79-8-1-.59-2.38.83-3 1.6 1.22-1.53 5-6.5 3.77-7.15-1.53-.82-6.43 4.76-6.43 4.76Z" class="colorfca993 svgShape"></path><path fill="#9703f5" d="M232 61.3c.17.13-.48 1.23-1.44 2.45s-1.88 2.11-2.05 2 .48-1.23 1.44-2.46 1.85-2.13 2.05-1.99ZM234.19 64.11c.15.15-.48 1.07-1.41 2.06s-1.82 1.67-2 1.53.47-1.07 1.4-2.07 1.82-1.63 2.01-1.52ZM236.13 67.39c.14.16-.45.9-1.33 1.65s-1.69 1.23-1.83 1.06.45-.9 1.32-1.65 1.71-1.22 1.84-1.06Z" data-name="Line" class="colord8776a svgShape"></path></g><path fill="#7a33bd" d="M162.21 110.6s12.8-4.81 21.29-9.06c5.83.46 9.75 19.2 9.86 21.15-15.53 7.66-18.48 11.94-23 12.69-15.96 2.67-8.15-24.78-8.15-24.78Z" class="colorffcd5c svgShape"></path><path fill="#d89935" d="M190.76 124.08c.23.41-5.34 3.81-12.25 7.88s-12.51 7.36-12.76 7 4.95-4.38 11.92-8.44 12.88-6.83 13.09-6.44Z" class="colord89935 svgShape"></path></g></g><g><path fill="#e1e9f5" d="M221.92 105.79s-11.81 10-14.86 11.62 9.74-11.06 14.86-11.62ZM228.77 104.29S218 115 217.09 113.43s11.68-9.14 11.68-9.14Z" data-name="Line" class="colorc8c8dc svgShape"></path><path fill="#161622" d="M104.21 293.58s-1.77 15.36-2.88 18.64-.46-14.73 2.88-18.64ZM107.7 288.43s-.56 15.16-2.24 14.66 2.24-14.66 2.24-14.66Z" data-name="Line" class="colord9d9e7 svgShape"></path><path fill="#161622" d="M320.14 280.81a7.47 7.47 0 0 1-4.6-4.6.42.42 0 0 0-.81 0 7.45 7.45 0 0 1-4.6 4.6.42.42 0 0 0 0 .81 7.44 7.44 0 0 1 4.6 4.61.43.43 0 0 0 .81 0 7.46 7.46 0 0 1 4.6-4.61.42.42 0 0 0 0-.81ZM61.71 173.92a4.82 4.82 0 0 1-3-3 .27.27 0 0 0-.52 0 4.82 4.82 0 0 1-3 3 .28.28 0 0 0 0 .53 4.82 4.82 0 0 1 3 3 .27.27 0 0 0 .52 0 4.82 4.82 0 0 1 3-3 .28.28 0 0 0 0-.53ZM356.52 77.39a3.72 3.72 0 0 1-2.3-2.31.22.22 0 0 0-.41 0 3.73 3.73 0 0 1-2.31 2.31.21.21 0 0 0 0 .4 3.75 3.75 0 0 1 2.31 2.31.22.22 0 0 0 .41 0 3.74 3.74 0 0 1 2.3-2.31.21.21 0 0 0 0-.4ZM74.63 285a4 4 0 0 1-2.48-2.47.22.22 0 0 0-.43 0 4 4 0 0 1-2.48 2.47.23.23 0 0 0 0 .44 4 4 0 0 1 2.48 2.48.23.23 0 0 0 .43 0 4 4 0 0 1 2.48-2.48.23.23 0 0 0 0-.44ZM227 276.45l-2.82-5.82a.63.63 0 0 0-1.12 0l-2.82 5.82a.62.62 0 0 0 .87.78l1.29-.7v3.89a.73.73 0 0 0 .74.72h1a.73.73 0 0 0 .73-.72v-3.89l1.3.7a.61.61 0 0 0 .83-.78ZM281.74 321.92l-2.74-5.63a.61.61 0 0 0-1.08 0l-2.73 5.63a.59.59 0 0 0 .83.75l1.26-.67v3.76a.7.7 0 0 0 .71.69h.93a.7.7 0 0 0 .72-.69V322l1.25.67a.59.59 0 0 0 .85-.75Z" class="colord9d9e7 svgShape"></path><g data-name="Website screen"><path fill="#b8b8d1" d="M117.4 206.76 110.66 239a3.88 3.88 0 0 1-3.61 3H54.63l8.29-38.26H115a2.34 2.34 0 0 1 2.4 3.02Z" opacity=".5" class="colorb8b8d1 svgShape"></path><path fill="#ffffff" d="M111.48 199.05h-62.6a3.89 3.89 0 0 0-3.62 3l-6.74 32.28a2.36 2.36 0 0 0 2.37 3h62.6a3.88 3.88 0 0 0 3.61-3l6.74-32.33a2.35 2.35 0 0 0-2.36-2.95Z" class="color1996f2 svgShape"></path><path fill="#7a01e2" d="M111.73 199.05H48.62a3.54 3.54 0 0 0-3.3 2.74l-1.14 5.44h68.58l1.13-5.44a2.16 2.16 0 0 0-2.16-2.74ZM92.13 216.87h-19.2l.6-2.88h19.2l-.6 2.88zM101.67 222.9H87.52l.6-2.88h14.15l-.6 2.88zM86.14 222.9H71.67l.6-2.88h14.48l-.61 2.88zM100.41 228.94h-10.8l.61-2.88h10.79l-.6 2.88zM88.25 228.94h-8.51l.61-2.88h8.5l-.6 2.88zM78.37 228.94h-7.96l.6-2.88h7.96l-.6 2.88z" class="color1965f2 svgShape"></path><ellipse cx="56.76" cy="220.97" fill="#7a01e2" rx="10.76" ry="9.44" transform="rotate(-43.13 56.761 220.969)" class="color1965f2 svgShape"></ellipse><path fill="#ffffff" d="M62.51 226.81a8.61 8.61 0 0 1-.68.67 9.25 9.25 0 0 1-6.09 2.39h-.45a7 7 0 0 1-6-3.06 9.3 9.3 0 0 1 6.53-3.47 3 3 0 0 1-2.57-3.49 4.15 4.15 0 0 1 4-3.54 3 3 0 0 1 3.08 3.54 4.18 4.18 0 0 1-3.48 3.49 6.77 6.77 0 0 1 5.66 3.47Z" class="color1996f2 svgShape"></path></g><g data-name="Website screen"><path fill="#b8b8d1" d="m350.73 114.83-10.1 49.77h-69.51a3.1 3.1 0 0 1-3.13-3.88l8.21-42a5 5 0 0 1 4.64-3.9Z" opacity=".5" class="colorb8b8d1 svgShape"></path><path fill="#7a33bd" d="M358.28 108.69h-81.43a5 5 0 0 0-4.64 3.89l-8.21 42a3.1 3.1 0 0 0 3.12 3.88h81.44a5 5 0 0 0 4.64-3.88l8.21-42a3.11 3.11 0 0 0-3.13-3.89Z" class="colorffcd5c svgShape"></path><path fill="#3d0e7d" d="M358.61 108.69h-82.09a4.54 4.54 0 0 0-4.25 3.56l-1.38 7.08h89.2l1.39-7.08a2.85 2.85 0 0 0-2.87-3.56ZM333.43 131.87h-24.98l.74-3.74h24.98l-.74 3.74zM345.94 139.72h-18.41l.73-3.75h18.41l-.73 3.75zM325.75 139.72h-18.83l.73-3.75h18.83l-.73 3.75zM344.41 147.57h-14.04l.73-3.75h14.04l-.73 3.75zM328.6 147.57h-11.07l.73-3.75h11.07l-.73 3.75zM315.74 147.57h-10.36l.74-3.75h10.36l-.74 3.75zM274.08 137c-1.29 7.31 3.58 13.23 10.89 13.23s14.29-5.92 15.58-13.23-3.57-13.24-10.88-13.24-14.29 5.96-15.59 13.24Z" class="colorf4b442 svgShape"></path><path fill="#7a33bd" d="M281.84 133.55 280 143.76a.83.83 0 0 0 .84 1H291a1.27 1.27 0 0 0 1.2-1l1.8-10.21a.83.83 0 0 0-.84-1h-1.06c.24-1 .5-2.91-.34-4.17a3 3 0 0 0-2.73-1.24 4.17 4.17 0 0 0-2.95 1.16 7.51 7.51 0 0 0-1.95 4.25H283a1.28 1.28 0 0 0-1.16 1Zm4.82 4.77a1.08 1.08 0 0 1-.53-1.18 1.66 1.66 0 0 1 1.56-1.33 1.09 1.09 0 0 1 1.09 1.33 1.64 1.64 0 0 1-.94 1.18c.07 1.14.12 3.23.12 3.23h-2.58s.8-2.09 1.28-3.23Zm.26-9.17a2.6 2.6 0 0 1 1.88-.71 2 2 0 0 1 1.79.78 4.62 4.62 0 0 1 .18 3.31h-5.32a6.16 6.16 0 0 1 1.47-3.38Z" class="colorffcd5c svgShape"></path></g></g></svg>