<svg id="SvgjsSvg1001" width="288" height="288" xmlns="http://www.w3.org/2000/svg" version="1.1" xmlns:xlink="http://www.w3.org/1999/xlink" xmlns:svgjs="http://svgjs.com/svgjs"><defs id="SvgjsDefs1002"></defs><g id="SvgjsG1008"><svg xmlns="http://www.w3.org/2000/svg" enable-background="new 0 0 50 50" viewBox="0 0 50 50" width="288" height="288"><path fill="#e4e4e3" d="M17.5,21.1l-4,20.7L2.3,45.1c-0.8,0.3-1.6-0.6-1.2-1.4L9,23.2c0.3-0.7,0.9-1.1,1.6-1.2L17.5,21.1z" class="colorE4E4E3 svgShape"></path><polygon fill="#069ef7" points="16.9 24.5 16.5 26.3 15.6 29.9 11 30.2 6.5 30.5 6.1 30.6 7.9 26 8.1 26 12 25.5 16.8 24.5" class="color59B1E3 svgShape"></polygon><polygon fill="#efefed" points="25 22.2 25 45.8 13.5 41.7 17.5 21.1" class="colorEFEFED svgShape"></polygon><path fill="#efefed" d="M47.7,45.1l-11.2-3.4l-4-20.7l6.9,1c0.7,0.1,1.3,0.5,1.6,1.2l7.9,20.5C49.3,44.5,48.5,45.4,47.7,45.1z" class="colorEFEFED svgShape"></path><polygon fill="#e4e4e3" points="36.5 41.7 25 45.8 25 22.2 32.5 21.1" class="colorE4E4E3 svgShape"></polygon><path fill="#890cda" d="M47.7,45.1l-11.2-3.4l-0.7-3.6l-0.1-0.6h10.8l0.2,0.6l2.1,5.5C49.3,44.5,48.5,45.4,47.7,45.1z" class="color9A7EAA svgShape"></path><polygon fill="#78966b" points="25 28.5 25 33.4 35.7 37.8 34.7 32.6" class="colorFFCA67 svgShape"></polygon><polygon fill="#ffffff" points="44.8 33 34.8 33.1 34.8 33.1 16.7 25.2 16.7 25.2 7.7 26.5 7.9 26 8.1 25.7 16.8 24.5 16.8 24.5 16.9 24.5 34.7 32.2 44.5 32.2" class="colorFFF svgShape"></polygon><polygon fill="#ffffff" points="46.8 38.2 35.8 38.2 35.6 38.2 15.8 30 15.6 29.9 5.9 31.2 6.1 30.6 6.2 30.4 15.7 29.1 15.9 29.2 35.7 37.4 35.8 37.4 46.5 37.4" class="colorFFF svgShape"></polygon><path fill="#83bd57" d="M22.2,39.3c-0.5,1-1.9,1.1-2.9,1.6c-0.9,0.4-1.6,1.2-2.2,2.1l-3.5-1.3l1.2-6.3c0.2-0.1,0.4-0.1,0.5-0.1
				c2.3-0.4,5,0,6.4,1.8C22.2,37.7,22.5,38.6,22.2,39.3z" class="color83BD57 svgShape"></path><path fill="#98cb6a" d="M14.7,35.4l-1.2,6.3L2.3,45.1c-0.8,0.3-1.6-0.6-1.2-1.4l2.7-7.1c1.4,0.7,3.1,0.8,4.7,0.5
				C10.6,36.8,12.6,35.9,14.7,35.4z" class="color98CB6A svgShape"></path><path fill="#8616d8" d="M33.7,27.1c-1.5-0.6-3-1.2-3.9-2.5c-0.6-0.8-0.8-1.9-0.8-2.9v-0.1l3.6-0.5L33.7,27.1z" class="colorD75548 svgShape"></path><path fill="#8d26d6" d="M40.7,25.3c-0.1,0.8,0,1.6,0,2.4c0,0.8-0.1,1.7-0.6,2.3c-0.5,0.6-1.5,1-2.2,0.5c-0.5-1.6-2.2-2.6-3.8-3.2
				c-0.1-0.1-0.3-0.1-0.4-0.2l-1.2-6.1l6.9,1c0.7,0.1,1.3,0.5,1.6,1.2C41,23.2,40.8,24.8,40.7,25.3z" class="colorE9715F svgShape"></path><path fill="#890cda" d="M25,4.2c-3.8,0-6.9,3.1-6.9,6.9c0,3,4.4,10,6.2,12.7c0.3,0.5,1.1,0.5,1.4,0c1.8-2.7,6.2-9.7,6.2-12.7
			C31.9,7.3,28.8,4.2,25,4.2z" class="color9A7EAA svgShape"></path><path fill="#ffffff" d="M29.1,11.1c0,2.2-1.8,4.1-4.1,4.1c-2.3,0-4.1-1.8-4.1-4.1C20.9,8.8,22.7,7,25,7C27.3,7,29.1,8.8,29.1,11.1
			z" class="colorFFF svgShape"></path></svg></g></svg>