<svg id="SvgjsSvg1001" width="288" height="288" xmlns="http://www.w3.org/2000/svg" version="1.1" xmlns:xlink="http://www.w3.org/1999/xlink" xmlns:svgjs="http://svgjs.com/svgjs"><defs id="SvgjsDefs1002"></defs><g id="SvgjsG1008"><svg xmlns="http://www.w3.org/2000/svg" data-name="Layer 1" viewBox="0 0 168 168" width="288" height="288"><path fill="#4a2d56" d="M34.00017,49.99967H66.79063a18.96218,18.96218,0,0,0,34.41907,0h32.79047a8,8,0,0,0,0-16H101.2097a18.96218,18.96218,0,0,0-34.41907,0H34.00017a8,8,0,0,0,0,16Zm68.568-12h31.432a4,4,0,0,1,0,8h-31.432a18.73423,18.73423,0,0,0,0-8Zm-18.568-11a15,15,0,1,1-15,15A15.01672,15.01672,0,0,1,84.00017,26.99967Zm-50,11h31.432a18.73423,18.73423,0,0,0,0,8h-31.432a4,4,0,0,1,0-8Z" class="color2d4356 svgShape"></path><path fill="#970bce" d="M80.00017 44.99967a2 2 0 000 4h8a2 2 0 000-4h-2v-2.35a6.00478 6.00478 0 004-5.65 2 2 0 00-4 0 2 2 0 01-4 0 2 2 0 00-4 0 6.00478 6.00478 0 004 5.65v2.35zM101.59294 90.363a7.588 7.588 0 003.01416.63477 7.14964 7.14964 0 002.66553-.5127c3.96875-1.60254 5.79688-6.48242 4.0752-10.87891l-.01465-.03613-1.22656-2.959a8.9676 8.9676 0 00-4.70605-4.98242 7.31691 7.31691 0 00-5.66895-.11328c-3.97314 1.59961-5.80322 6.47754-4.06494 10.90918l1.228 2.959A8.97242 8.97242 0 00101.59294 90.363zm-.36572-15.1377a3.10787 3.10787 0 011.17236-.22852 3.61258 3.61258 0 011.41846.30566 4.9722 4.9722 0 012.5791 2.80469l1.23291 2.97461c.915 2.35938.085 4.91113-1.84961 5.69238a3.35169 3.35169 0 01-2.6001-.083 4.97775 4.97775 0 01-2.57666-2.80469l-1.228-2.959C98.45036 78.56705 99.28 76.00944 101.22722 75.22526zM68.26775 71.51627a7.31432 7.31432 0 00-5.67139.11328 8.93692 8.93692 0 00-4.69092 4.94629L56.66423 79.57l-.01465.03613c-1.72119 4.39648.10742 9.27637 4.08154 10.88086a7.12315 7.12315 0 002.6582.51172 7.59909 7.59909 0 003.01514-.63574A8.94742 8.94742 0 0071.089 85.41959l1.25635-3.03125C74.069 77.99284 72.23894 73.11491 68.26775 71.51627zm.36816 9.375l-1.25635 3.03125a4.95388 4.95388 0 01-2.5625 2.76953 3.34566 3.34566 0 01-2.59375.084c-1.94043-.7832-2.77051-3.335-1.85547-5.69434l1.24707-3.00977a4.94611 4.94611 0 012.56445-2.76953 3.31531 3.31531 0 012.59277-.07617C68.71745 76.00944 69.547 78.56705 68.63591 80.89127zM139.00017 103.86893V99.25059l5.64209 5.21783a2.00029 2.00029 0 002.71582-2.9375l-8.35791-7.72943V85.99967a2 2 0 00-4 0v6.67676H126.852l1.05829 1.80664c.52081.88885.9425 1.60858 1.28516 2.19336h5.80469v6h-2.54492a9.83755 9.83755 0 01.38867 1.4707 9.9527 9.9527 0 01.1377 1.56226l.486.967h1.53259v5.77045c.001.06244-.00012.12518 0 .18787v1.36493a2 2 0 104 0v-4.37189l5.561 5.76056a1.99976 1.99976 0 002.87793-2.77734zM78.30809 102.67643a10.89438 10.89438 0 01.68915 3.77832c.00067.07764-.00854.14539-.00922.22168H89.01c-.00061-.07336-.00952-.13837-.00885-.21289a10.93573 10.93573 0 01.68719-3.78711zM29.00017 109.6276v4.37207a2 2 0 004 0v-7.32324H35.0396a10.04336 10.04336 0 01.11292-2.51758 9.93817 9.93817 0 01.39081-1.48242H33.00017v-6h5.80157l.258-.44043L41.145 92.67643H33.00017V85.99967a2 2 0 00-4 0v7.80182l-8.35791 7.72943a2.00029 2.00029 0 002.71582 2.9375l5.64209-5.21783v4.61835l-8.439 8.74207a1.99976 1.99976 0 102.87793 2.77734zM95.60948 96.67643a11.48746 11.48746 0 01.92487-4H71.43919a11.56515 11.56515 0 01.92029 4z" class="color0bceb2 svgShape"></path><path fill="#4a2d56" d="M121 9a3 3 0 10-3-3A3.00344 3.00344 0 00121 9zm0-4.5A1.5 1.5 0 11119.5 6 1.50148 1.50148 0 01121 4.5zM37.06656 23.50627a2 2 0 102 2A2.00229 2.00229 0 0037.06656 23.50627zm0 3a1 1 0 111-1A1.001 1.001 0 0137.06656 26.50627zM58.00206 6a2 2 0 102 2A2.00229 2.00229 0 0058.00206 6zm0 3a1 1 0 111-1A1.001 1.001 0 0158.00206 9zM160 56.824a2 2 0 102 2A2.00229 2.00229 0 00160 56.824zm0 3a1 1 0 111-1A1.001 1.001 0 01160 59.824zM11 14a2 2 0 10-2 2A2.00229 2.00229 0 0011 14zM8 14a1 1 0 111 1A1.001 1.001 0 018 14z" class="color2d4356 svgShape"></path><polygon fill="#970bce" points="90.104 13.749 91.59 11.794 90.651 11.262 89.697 13.452 89.665 13.452 88.696 11.277 87.74 11.825 89.212 13.734 89.212 13.765 86.911 13.468 86.911 14.532 89.227 14.235 89.227 14.266 87.74 16.174 88.632 16.738 89.65 14.532 89.681 14.532 90.62 16.722 91.606 16.159 90.104 14.281 90.104 14.25 92.466 14.532 92.466 13.468 90.104 13.781 90.104 13.749" class="color0bceb2 svgShape"></polygon><polygon fill="#970bce" points="8.734 50.73 7.878 51.829 8.392 52.153 8.978 50.883 8.996 50.883 9.536 52.144 10.104 51.82 9.239 50.738 9.239 50.72 10.599 50.883 10.599 50.27 9.239 50.45 9.239 50.432 10.095 49.306 9.555 49 9.005 50.261 8.987 50.261 8.429 49.009 7.878 49.324 8.726 50.423 8.726 50.441 7.401 50.27 7.401 50.883 8.734 50.712 8.734 50.73" class="color0bceb2 svgShape"></polygon><polygon fill="#970bce" points="146.17 27.028 146.17 25.984 143.853 26.291 143.853 26.26 145.312 24.342 144.391 23.821 143.455 25.969 143.423 25.969 142.472 23.836 141.535 24.373 142.979 26.245 142.979 26.276 140.722 25.984 140.722 27.028 142.994 26.736 142.994 26.767 141.535 28.639 142.41 29.192 143.408 27.028 143.438 27.028 144.359 29.176 145.327 28.624 143.853 26.782 143.853 26.751 146.17 27.028" class="color0bceb2 svgShape"></polygon><polygon fill="#970bce" points="157.443 5.586 158.701 3.931 157.907 3.481 157.099 5.334 157.072 5.334 156.252 3.494 155.444 3.958 156.689 5.573 156.689 5.599 154.742 5.348 154.742 6.248 156.702 5.996 156.702 6.023 155.444 7.638 156.198 8.115 157.06 6.248 157.085 6.248 157.88 8.101 158.714 7.625 157.443 6.036 157.443 6.009 159.442 6.248 159.442 5.348 157.443 5.612 157.443 5.586" class="color0bceb2 svgShape"></polygon><circle cx="2" cy="149" r="2" fill="#4a2d56" class="color2d4356 svgShape"></circle><path fill="#4a2d56" d="M11 147H8a2 2 0 000 4h3a2 2 0 000-4zM160 147h-3a2 2 0 000 4h3a2 2 0 000-4z" class="color2d4356 svgShape"></path><circle cx="166" cy="149" r="2" fill="#4a2d56" class="color2d4356 svgShape"></circle><path fill="#970bce" d="M118.15387 155h-8.30774a2.00641 2.00641 0 000 4h8.30774a2.00641 2.00641 0 000-4zM58.15387 155H49.84613a2.00641 2.00641 0 000 4h8.30774a2.00641 2.00641 0 000-4zM104 155H64a2 2 0 000 4H79.94v2H72a2 2 0 000 4H97a2 2 0 000-4H88.06v-2H104a2 2 0 000-4z" class="color0bceb2 svgShape"></path><path fill="#4a2d56" d="M150.7213,147H143.818a4.90647,4.90647,0,0,0,.2149-.48077l.69629-1.96484a4.54175,4.54175,0,0,0-.24609-3.64746,4.186,4.186,0,0,0-2.41943-2.01953L129.799,132.04752l.7641-10.3186-4.24585,3.17035-.60175,8.12579a2.0008,2.0008,0,0,0,1.02051,1.89453l13.5752,7.57031a2.02515,2.02515,0,0,0,.48486.19238.2269.2269,0,0,1,.1626.11719.52012.52012,0,0,1-.00146.42285l-.69629,1.96484a1.29116,1.29116,0,0,1-1.03955.81152l-16.47168-6.39648a1.99385,1.99385,0,0,0-.35156-.10059,1.99094,1.99094,0,0,1-1.29053-1.45605l-1.36243-8.23889-3.60852,2.69446,1.02319,6.187a5.95914,5.95914,0,0,0,4.28857,4.69922L130.75047,147H105.7393c2.21625-5.368,5.17383-13.86755,5.97424-16.18878l16.49268-12.31445c3.36426-2.459,3.21924-6.98926,2.06445-9.27344l-1.31787-2.62262a6.10076,6.10076,0,0,0-.04639-1.74554,8.80741,8.80741,0,0,0-1.3667-3.10742c-.11963-.19531-.37048-.61615-7.157-12.20178l-.69653-1.38611a5.47626,5.47626,0,0,0-3.52588-2.99023c-.11591-.0304-.23364-.04883-.35089-.07092a12.5312,12.5312,0,0,1-1.35608,3.96027,1.33456,1.33456,0,0,1,.69574-.01923,1.21368,1.21368,0,0,1,.43225.22272c1.08838,1.858,8.412,14.35443,8.55261,14.58295a3.46755,3.46755,0,0,1,.78821,2.60864,1.97745,1.97745,0,0,1-1.65784,1.54565H97.99773c-.89734-.00006-1.00488-.69354-.99707-1.46094.01563-1.53223.51318-1.53516,1.07764-1.53906h17.11963a1.99976,1.99976,0,0,0,1.7168-3.02539l-2.7085-4.53418a1.9997,1.9997,0,1,0-3.43359,2.05078l.90088,1.50879h-6.69879l-1.07758-2.38379a3.49157,3.49157,0,0,1,.5329-3.62457,11.49734,11.49734,0,0,1-4.15552-.85706,7.33435,7.33435,0,0,0,.00055,6.17792l.31073.6875H98.06609c-3.08936.01855-5.03027,2.125-5.06543,5.5a5.58273,5.58273,0,0,0,1.45215,4.16016,4.78684,4.78684,0,0,0,3.51416,1.33984h7.59052l1.47687,3.26758-4.6543,4.99609c-.03906.042-.07568.085-.11084.12988-.34961.44629-.58105.74121-9.03857,25.627a4.28048,4.28048,0,0,0-.20441.9798H74.97166a4.28183,4.28183,0,0,0-.20441-.9798c-8.45752-24.88477-8.689-25.17969-9.03906-25.627-.03516-.04492-.07178-.08789-.11084-.12988l-4.6543-4.99707,1.47632-3.2666h7.57837a4.79743,4.79743,0,0,0,3.52686-1.33984,5.58451,5.58451,0,0,0,1.45215-4.16211c-.03516-3.373-1.97559-5.47949-5.07715-5.498H67.41081l.28906-.63965a7.39478,7.39478,0,0,0,.02142-6.225,11.4974,11.4974,0,0,1-4.15338.85632,3.51944,3.51944,0,0,1,.50989,3.67242L63.022,100.99967H56.3239l.90088-1.50879a1.9997,1.9997,0,1,0-3.43359-2.05078l-2.7085,4.53418a1.99976,1.99976,0,0,0,1.7168,3.02539H69.90739c.57617.00391,1.07373.00684,1.08936,1.53711a2.01262,2.01262,0,0,1-.28418,1.29883,1.21985,1.21985,0,0,1-.72559.16406H44.76335a2.636,2.636,0,0,1-1.25684-.67676,2.17087,2.17087,0,0,1-.478-1.76172,5.70886,5.70886,0,0,1,.83447-1.71484c.14063-.22852,7.47-12.735,8.55505-14.58734a1.16674,1.16674,0,0,1,.7428-.25934,1.48091,1.48091,0,0,1,.38928.0694,12.53,12.53,0,0,1-1.36188-3.97052c-.11713.02216-.23486.04059-.35065.071a5.45128,5.45128,0,0,0-3.5083,2.95313s-7.75244,13.43164-7.87256,13.627a8.81745,8.81745,0,0,0-1.36621,3.10742,6.09414,6.09414,0,0,0-.04608,1.74463l-1.31525,2.61768c-1.15723,2.28809-1.30225,6.81836,2.04541,9.26563L56.28386,130.8112c.80048,2.32135,3.7583,10.82172,5.975,16.18878H37.24724l9.30176-3.61261a5.95625,5.95625,0,0,0,4.28711-4.68945l1.02478-6.1969-3.60852-2.69452-1.364,8.24884a1.98854,1.98854,0,0,1-1.28906,1.44629,1.99385,1.99385,0,0,0-.35156.10059L28.77654,145.9987a1.2934,1.2934,0,0,1-1.0415-.81543l-.69336-1.957a.5242.5242,0,0,1-.00293-.42676.23049.23049,0,0,1,.1626-.11719,2.00919,2.00919,0,0,0,.48486-.19238l13.5752-7.57031a2.0008,2.0008,0,0,0,1.02051-1.89453l-.60175-8.126-4.24585-3.17041.7641,10.31885-12.26465,6.83984a4.18951,4.18951,0,0,0-2.41943,2.01953,4.54412,4.54412,0,0,0-.24463,3.65137l.69336,1.957A4.938,4.938,0,0,0,24.17973,147H17.27867a2.017,2.017,0,1,0,0,4H150.7213a2.017,2.017,0,1,0,0-4ZM50.83824,87.99967l.00006.00012-.00012-.00006Zm16.56329,59a1.437,1.437,0,0,1-1.13672-.78516c-2.48633-5.85937-6.35889-17.16992-6.39746-17.28418a2.00246,2.00246,0,0,0-.6958-.95508l-17.02-12.707c-1.64209-1.20117-1.13623-3.68457-.85059-4.248l.1189-.23663a6.18508,6.18508,0,0,0,3.31323,1.21613h13.317l-1.3092,2.89648a2,2,0,0,0,.75342,2.51465l4.98193,5.34863c.62793,1.53711,3.43164,9.62793,8.35889,24.13965Zm33.1958,0-3.44092-.10059c4.92627-14.49121,7.73633-22.60059,8.36475-24.13965l4.98291-5.34863a2.00105,2.00105,0,0,0,.75244-2.51465l-1.30933-2.89648h13.3396a6.1679,6.1679,0,0,0,3.29144-1.2157l.12067.24011c.2832.55957.78906,3.043-.86963,4.25586l-17.00342,12.69531a2.00246,2.00246,0,0,0-.6958.95508c-.03857.11426-3.91064,11.42285-6.397,17.28516A1.61255,1.61255,0,0,1,100.59734,146.99967Z" class="color2d4356 svgShape"></path></svg></g></svg>