<svg id="SvgjsSvg1001" width="288" height="288" xmlns="http://www.w3.org/2000/svg" version="1.1" xmlns:xlink="http://www.w3.org/1999/xlink" xmlns:svgjs="http://svgjs.com/svgjs"><defs id="SvgjsDefs1002"></defs><g id="SvgjsG1008"><svg xmlns="http://www.w3.org/2000/svg" data-name="Layer 7" viewBox="0 0 512 512" width="288" height="288"><defs><linearGradient id="b" x1="370.23" x2="122.67" y1="344.74" y2="97.18" gradientUnits="userSpaceOnUse"><stop offset="0" stop-color="#6b01b6" class="stopColor13b601 svgShape"></stop><stop offset=".57" stop-color="#6b01b6" class="stopColor13b601 svgShape"></stop><stop offset="1" stop-color="#d9b4f4" class="stopColorcbf4b4 svgShape"></stop></linearGradient><linearGradient id="c" x1="289.48" x2="222.96" y1="285.38" y2="218.85" gradientUnits="userSpaceOnUse"><stop offset="0" stop-color="#d9b4f4" class="stopColorcbf4b4 svgShape"></stop><stop offset=".57" stop-color="#ffffff" class="stopColorfff svgShape"></stop><stop offset="1" stop-color="#ffffff" class="stopColorfff svgShape"></stop></linearGradient><radialGradient id="a" cx="256" cy="3359.51" r="200.83" fx="256" fy="3359.51" gradientTransform="matrix(1 0 0 .45 0 -1110.66)" gradientUnits="userSpaceOnUse"><stop offset="0" stop-color="#6b01b6" stop-opacity=".6" class="stopColor13b601 svgShape"></stop><stop offset="1" stop-color="#6b01b6" stop-opacity="0" class="stopColor13b601 svgShape"></stop></radialGradient></defs><path fill="#e9d9f4" d="m496.53,129.86c-13.43-49.48-64.89-100.93-114.37-114.37C351.82,7.93,311.18.14,256.01,0c-55.17.14-95.81,7.92-126.15,15.49C80.39,28.93,28.93,80.38,15.49,129.86,7.93,160.19.14,200.84,0,256.01c.14,55.17,7.92,95.81,15.49,126.15,13.44,49.48,64.89,100.93,114.37,114.37,30.34,7.57,70.98,15.35,126.15,15.49,55.16-.14,95.81-7.92,126.15-15.49,49.48-13.44,100.93-64.89,114.37-114.37,7.57-30.33,15.35-70.98,15.49-126.15-.14-55.17-7.92-95.81-15.49-126.15Z" class="colore5f4d9 svgShape"></path><path fill="url(#a)" d="m444.69,366.22c-10.54-17.58-50.91-35.87-89.72-40.64-23.8-2.69-55.68-5.46-98.96-5.5-43.28.05-75.17,2.81-98.96,5.5-38.81,4.78-79.18,23.06-89.72,40.64-5.94,10.78-12.04,25.22-12.15,44.83.11,19.6,6.21,34.05,12.15,44.83,10.54,17.58,50.91,35.87,89.72,40.64,23.8,2.69,55.69,5.46,98.96,5.5,43.28-.05,75.16-2.82,98.96-5.5,38.82-4.77,79.18-23.06,89.72-40.64,5.93-10.78,12.04-25.22,12.15-44.83-.11-19.6-6.22-34.05-12.15-44.83Z"></path><path fill="url(#b)" d="m401.18,227.08c-.94-48.83-7.74-84.84-7.65-84.87-2.83-5.52-7.79-10.14-13.87-12.5,0,0,0,0,0,0-39.86-15.46-79.05-30.21-117.27-42.81-3.91-1.29-8.02-1.29-11.93,0-38.2,12.56-77.4,27.28-117.25,42.72-5.36,2.08-9.86,5.93-12.78,10.6.22.03-8.19,26.3-9.62,84.33-.85,58.04,6.38,75.42,6.14,75.44,3.91,12.75,11.23,25.73,21.72,38.93,11.73,14.74,27.57,29.95,46.71,44.92,31.68,24.87,61.33,39.73,62.57,40.25,2.69,1.32,5.54,1.98,8.48,1.98,2.94,0,5.79-.67,8.48-1.99,1.25-.52,30.93-15.44,62.6-40.29,19.14-14.97,34.99-30.19,46.72-44.92,11.24-14.13,18.84-28,22.51-41.61-.15-.02,5.17-21.33,4.43-70.17Z"></path><path fill="url(#c)" d="m272.21,265.17v30.94c0,8.71-7.06,15.78-15.78,15.78-8.72,0-15.78-7.06-15.78-15.78v-30.5c-11.38-5.65-19.2-17.38-19.2-30.94,0-19.08,15.46-34.55,34.54-34.55,19.08,0,34.55,15.46,34.55,34.54,0,13.22-7.43,24.7-18.34,30.51Z"></path></svg></g></svg>