<svg id="SvgjsSvg1001" width="288" height="288" xmlns="http://www.w3.org/2000/svg" version="1.1" xmlns:xlink="http://www.w3.org/1999/xlink" xmlns:svgjs="http://svgjs.com/svgjs"><defs id="SvgjsDefs1002"></defs><g id="SvgjsG1008"><svg xmlns="http://www.w3.org/2000/svg" xmlns:xlink="http://www.w3.org/1999/xlink" data-name="Layer 1" viewBox="0 0 512 512" width="288" height="288"><defs><linearGradient id="a" x1="256" x2="256" y1="27.712" y2="477.917" gradientUnits="userSpaceOnUse"><stop offset="0" stop-color="#000000" class="stopColor00efd1 svgShape"></stop><stop offset="1" stop-color="#000000" class="stopColor00acea svgShape"></stop></linearGradient><linearGradient id="b" x1="218.912" x2="218.912" y1="27.712" y2="477.917" xlink:href="#a"></linearGradient><linearGradient id="c" x1="219" x2="219" y1="27.712" y2="477.917" xlink:href="#a"></linearGradient><linearGradient id="d" x1="327.145" x2="327.145" y1="27.712" y2="477.917" xlink:href="#a"></linearGradient></defs><path fill="url(#a)" d="M343.178,8.457A8,8,0,0,0,337.41,6H101.683A7.736,7.736,0,0,0,94,14V431.475A7.341,7.341,0,0,0,101.683,439H279.305l.741,58.864a8.179,8.179,0,0,0,4.392,7.158,7.991,7.991,0,0,0,8.274-.584l34.433-24.7,34.433,24.745a7.993,7.993,0,0,0,8.288.647,8.365,8.365,0,0,0,4.379-7.3L374.738,439h35.579A7.341,7.341,0,0,0,418,431.475V89.861a7.854,7.854,0,0,0-2.074-5.544ZM345,33.869,391.533,82H345Zm-17.855,270a50.65,50.65,0,1,1-50.651,50.65A50.708,50.708,0,0,1,327.145,303.873Zm4.667,159.547a8,8,0,0,0-9.334,0l-26.627,19.123-.881-69.675a66.517,66.517,0,0,0,63.989.207l-.584,69.423ZM374.873,423l.191-22.459A66.123,66.123,0,0,0,393.8,354.4a66.82,66.82,0,0,0-66.651-66.759A68.262,68.262,0,0,0,281.17,306H152.6a8,8,0,0,0,0,16h116.2a68.769,68.769,0,0,0-8.312,32.5c0,.4.024.5.03,1.5H152.6a8,8,0,0,0,0,16H262.754a64.639,64.639,0,0,0,16.057,28.248L279.1,423H110V22H329V89.861A8.48,8.48,0,0,0,337.41,98H402V423Z"></path><path fill="url(#b)" d="M218.912,144.666a44.259,44.259,0,1,0-44.259-44.259A44.309,44.309,0,0,0,218.912,144.666Zm0-72.518a28.259,28.259,0,1,1-28.259,28.259A28.291,28.291,0,0,1,218.912,72.148Z"></path><path fill="url(#c)" d="M253.98,143h0a8.151,8.151,0,0,0-6.448,3.417,35.325,35.325,0,0,1-57.236-.039A8.11,8.11,0,0,0,183.847,143h0A41.136,41.136,0,0,0,143,183.94V248a8.2,8.2,0,0,0,8.229,8H286.6c4.418,0,8.4-3.584,8.4-8V183.941A41.288,41.288,0,0,0,253.98,143ZM279,184v56H159V183.94a24.775,24.775,0,0,1,21.123-24.366,51.745,51.745,0,0,0,77.432.029c11.872,1.758,21.229,12.4,21.228,24.4Z"></path><path fill="url(#d)" d="M327.145,395.063a40.54,40.54,0,1,0-40.54-40.54A40.586,40.586,0,0,0,327.145,395.063Zm0-65.08a24.54,24.54,0,1,1-24.54,24.54A24.568,24.568,0,0,1,327.145,329.983Z"></path></svg></g></svg>