<svg id="SvgjsSvg1001" width="288" height="288" xmlns="http://www.w3.org/2000/svg" version="1.1" xmlns:xlink="http://www.w3.org/1999/xlink" xmlns:svgjs="http://svgjs.com/svgjs"><defs id="SvgjsDefs1002"></defs><g id="SvgjsG1008"><svg xmlns="http://www.w3.org/2000/svg" enable-background="new 0 0 76 76" viewBox="0 0 76 76" width="288" height="288"><path fill="#3c3448" d="M42.0366821,56.1204834
		c0.7498932-7.7720947,7.6830215-13.4850159,15.4551201-12.7351227c7.3592644,0.7099876,12.8714714,6.9644852,12.7998543,14.2254105
		l-2.2473068-0.2168694c-0.1595078-0.0154381-0.3147354,0.0585518-0.4030914,0.1926384
		c-0.0401459,0.060215-0.0636597,0.1282692-0.0703125,0.1982231c-0.008194,0.0840874,0.008316,0.1706696,0.0504761,0.2473907
		l2.9354401,5.4327507c0.0681686,0.127079,0.1957245,0.211998,0.3395538,0.2258949
		c0.1439438,0.0138931,0.2859879-0.0450134,0.3772049-0.1567726l3.9200134-4.7712173
		c0.1020203-0.1236382,0.1274338-0.2934761,0.0656815-0.4418144c-0.0616455-0.1479836-0.1998901-0.2502403-0.3595123-0.2656822
		l-1.7429047-0.1681709c0.2177048-8.8380318-6.4542542-16.4961128-15.3895569-17.358242
		c-9.3474197-0.9019127-17.6852036,5.9689827-18.5871201,15.3159256c-0.4175835,4.3276253,0.8151131,8.605011,3.4716721,12.0438995
		l2.2711754-1.7539444C42.7140083,63.275116,41.6894073,59.718998,42.0366821,56.1204834L42.0366821,56.1204834z
		 M42.0366821,56.1204834" class="color343f48 svgShape"></path><path fill="#6834bb" d="M63.569931 72.8030624c1.0114136-.4914627 1.9794846-1.0871964 2.8759537-1.770462l-1.7381668-2.282692c-.7463341.5681763-1.5514526 1.0632019-2.3929176 1.4729462L63.569931 72.8030624zM56.6984406 71.632019L56.8096046 74.5c1.1269798-.0439453 2.2531242-.2010727 3.3464928-.4666367l-.6775627-2.7884064C58.5704575 71.465271 57.6349144 71.5956802 56.6984406 71.632019L56.6984406 71.632019zM69.082016 68.5430145c.7329102-.856781 1.3826828-1.7895813 1.9309082-2.77285l-2.506218-1.397171c-.4553528.8164063-.9952621 1.592186-1.6051331 2.3046722L69.082016 68.5430145zM46.1298599 67.5058212l-2.0275688 2.0302048c.7979774.7971573 1.6773262 1.517128 2.6145134 2.1398163l1.5876732-2.390419C47.5256081 68.7677231 46.793766 68.1690216 46.1298599 67.5058212L46.1298599 67.5058212zM53.6858025 71.4292831c-.9255486-.1608047-1.835659-.4148483-2.7056274-.7538147l-1.0422974 2.6737976c1.047287.4085617 2.14291.7135544 3.2553978.9076157L53.6858025 71.4292831zM45.6821098 56.9005432c.5590363.0003586 1.118187-.0071259 1.6771049.0023766.6103439.010334.9064293.3311234.9070396.9596367.0006943.5811272-.3189049.9167595-.9064445.9207993-1.1044121.0075989-2.2089462.0097389-3.3133392-.0009499-.6562042-.006176-.9515762-.3209076-.9439774-.9605865.0073662-.6137886.3058243-.9070206.943367-.9203224.272686-.0055847.5453758-.0011902.8180656-.0011902C45.1367493 56.9003067 45.40942 56.9003067 45.6821098 56.9005432zM55.2884407 46.8027573c0-.5454979-.0080757-1.0911102.0022583-1.6363716.0113983-.6011963.3200912-.8962135.919014-.9022713.6262589-.0064125.9512062.2844467.9576187.9034615.0117569 1.1317291.0115204 2.2636948-.0003548 3.3953056-.0059395.5628357-.3375359.8572578-.9165268.8605804-.6156845.0035667-.9363556-.2795753-.9596329-.8617706-.0119972-.2996483-.004158-.5998917-.0047531-.8998947-.000473-.2864647-.0001183-.5726929-.0001183-.8590393H55.2884407zM55.7568741 67.6625977c0-.5454941-.0080948-1.0911102.002121-1.6363678.0114021-.6011963.320076-.8962173.9190178-.9022751.626255-.0064087.9513206.2844467.9577522.9035797.0117416 1.1316071.0113831 2.2635727-.0003738 3.3951874-.0059395.5628357-.3376541.857254-.9166412.8607025-.6155701.0034409-.9363594-.2796936-.9596367-.8618927-.0118752-.29953-.004158-.5998917-.0046158-.8998947-.0004921-.2863464-.0001335-.5726929-.0001335-.8590393C55.7551956 67.6625977 55.7560272 67.6625977 55.7568741 67.6625977zM55.9529419 56.0310516c.9947891-.8378983 1.9616699-1.6790047 2.9571877-2.4846001 1.6571388-1.341114 3.2935066-2.7128716 5.1414146-3.795784.184906-.1084366.3837204-.2027359.5876389-.2667503.2729263-.0855141.392189.054039.3311234.3188858-.0703049.3051147-.2362213.5719833-.3940659.8392067-.723526 1.2242508-1.6083412 2.3330574-2.4882813 3.4435234-1.4760361 1.8623848-3.0050392 3.6807022-4.5946121 5.4479523-.8480988.9431267-2.1215324.9858818-2.932457.0289803-1.2407722-1.4641571-2.3677483-3.0134697-3.2603989-4.7207413-.1566544-.29953-.2888412-.612957-.3352814-.9493027-.0551071-.3998909.10606-.5302963.5118866-.4787521.3425217.0434685.6467018.1807632.947876.331955 1.138279.5716248 2.1748581 1.3022766 3.1996956 2.0511017C55.7317963 55.8748741 55.8404694 55.9508858 55.9529419 56.0310516z" class="color347bbb svgShape"></path><path fill="none" d="M47.7741852 18.0400562c1.1086884 0 2.0133362-.9668808 2.0133362-2.1486111V6.2271552c0-1.1839857-.9046478-2.1487284-2.0133362-2.1487284s-2.0069199.9647427-2.0069199 2.1487284v9.6642895C45.7672653 17.0731754 46.6654968 18.0400562 47.7741852 18.0400562zM19.9915485 18.0400562c1.1086884 0 2.0154724-.9668808 2.0154724-2.1486111V6.2271552c0-1.1839857-.9067841-2.1487284-2.0154724-2.1487284-1.1065483 0-2.0047817.9647427-2.0047817 2.1487284v9.6642895C17.9867668 17.0731754 18.8850002 18.0400562 19.9915485 18.0400562zM33.8828659 18.0400562c1.1086884 0 2.0154724-.9668808 2.0154724-2.1486111V6.2271552c0-1.1839857-.9067841-2.1487284-2.0154724-2.1487284-1.1086845 0-2.0047817.9647427-2.0047817 2.1487284v9.6642895C31.8780842 17.0731754 32.7741814 18.0400562 33.8828659 18.0400562z"></path><rect width="9.664" height="8.605" x="9.439" y="25.004" fill="#6834bb" class="color347bbb svgShape"></rect><rect width="9.664" height="8.605" x="22.337" y="25.004" fill="#6834bb" class="color347bbb svgShape"></rect><rect width="9.664" height="8.605" x="35.245" y="25.004" fill="#6834bb" class="color347bbb svgShape"></rect><rect width="9.664" height="8.605" x="48.143" y="25.004" fill="#6834bb" class="color347bbb svgShape"></rect><rect width="9.664" height="8.597" x="9.439" y="36.484" fill="#6834bb" class="color347bbb svgShape"></rect><rect width="9.664" height="8.597" x="22.337" y="36.484" fill="#6834bb" class="color347bbb svgShape"></rect><rect width="9.664" height="8.586" x="9.439" y="47.965" fill="#6834bb" class="color347bbb svgShape"></rect><rect width="9.664" height="8.586" x="22.337" y="47.965" fill="#6834bb" class="color347bbb svgShape"></rect><rect width="9.664" height="8.586" x="22.337" y="47.965" fill="#6834bb" class="color347bbb svgShape"></rect><rect width="9.664" height="8.605" x="35.245" y="25.004" fill="#6834bb" class="color347bbb svgShape"></rect><rect width="9.664" height="8.605" x="22.337" y="25.004" fill="#6834bb" class="color347bbb svgShape"></rect><rect width="9.664" height="8.597" x="22.337" y="36.484" fill="#6834bb" class="color347bbb svgShape"></rect><rect width="9.664" height="8.605" x="9.439" y="25.004" fill="#6834bb" class="color347bbb svgShape"></rect><rect width="9.664" height="8.597" x="9.439" y="36.484" fill="#6834bb" class="color347bbb svgShape"></rect><rect width="9.664" height="8.586" x="9.439" y="47.965" fill="#6834bb" class="color347bbb svgShape"></rect><path fill="none" d="M47.7741852,4.0784268c-1.1086884,0-2.0069199,0.9647427-2.0069199,2.1487284v9.6642895
		c0,1.1817303,0.8982315,2.1486111,2.0069199,2.1486111s2.0133362-0.9668808,2.0133362-2.1486111V6.2271552
		C49.7875214,5.0431695,48.8828735,4.0784268,47.7741852,4.0784268z"></path><rect width="9.664" height="8.605" x="48.143" y="25.004" fill="#6834bb" class="color347bbb svgShape"></rect><path fill="none" d="M33.8828659 4.0784268c-1.1086845 0-2.0047817.9647427-2.0047817 2.1487284v9.6642895c0 1.1817303.8960972 2.1486111 2.0047817 2.1486111 1.1086884 0 2.0154724-.9668808 2.0154724-2.1486111V6.2271552C35.8983383 5.0431695 34.9915543 4.0784268 33.8828659 4.0784268zM19.9915485 4.0784268c-1.1065483 0-2.0047817.9647427-2.0047817 2.1487284v9.6642895c0 1.1817303.8982334 2.1486111 2.0047817 2.1486111 1.1086884 0 2.0154724-.9668808 2.0154724-2.1486111V6.2271552C22.007021 5.0431695 21.1002369 4.0784268 19.9915485 4.0784268z"></path><path fill="#3c3448" d="M59.2370796,9.5376606h-6.8711319V6.2271552
		C52.3659477,3.6250939,50.3096199,1.5,47.7741852,1.5c-2.5354309,0-4.5917587,2.1250939-4.5917587,4.7271552V9.529109h-4.707798
		V6.2271552C38.4746284,3.6250939,36.4183006,1.5,33.8828659,1.5c-2.5354309,0-4.5917587,2.1250939-4.5917587,4.7271552V9.529109
		h-4.7077961V6.2271552C24.5833111,3.6250939,22.5269833,1.5,19.9915485,1.5c-2.5268803,0-4.583209,2.1250939-4.583209,4.7271552
		V9.529109H8.0086946c-4.0201368,0-7.3013067,3.2810516-7.3013067,7.3098574V58.091774
		c0,4.0288086,3.2811697,7.3034439,7.3013067,7.3034439H38.608242c-0.616993-1.3538208-1.080883-2.7899475-1.3689079-4.288784
		H8.0086946c-1.6522837,0-3.0038495-1.3515663-3.0038495-3.0146599V20.281065h57.236084v18.8765545
		c1.5230675,0.4826698,2.963707,1.1462173,4.2974548,1.9654732V16.8389664
		C66.5383835,12.8101606,63.2658882,9.5376606,59.2370796,9.5376606z M22.007021,15.8914452
		c0,1.1817303-0.9067841,2.1486111-2.0154724,2.1486111c-1.1065483,0-2.0047817-0.9668808-2.0047817-2.1486111V6.2271552
		c0-1.1839857,0.8982334-2.1487284,2.0047817-2.1487284c1.1086884,0,2.0154724,0.9647427,2.0154724,2.1487284V15.8914452z
		 M35.8983383,15.8914452c0,1.1817303-0.9067841,2.1486111-2.0154724,2.1486111
		c-1.1086845,0-2.0047817-0.9668808-2.0047817-2.1486111V6.2271552c0-1.1839857,0.8960972-2.1487284,2.0047817-2.1487284
		c1.1086884,0,2.0154724,0.9647427,2.0154724,2.1487284V15.8914452z M49.7875214,15.8914452
		c0,1.1817303-0.9046478,2.1486111-2.0133362,2.1486111s-2.0069199-0.9668808-2.0069199-2.1486111V6.2271552
		c0-1.1839857,0.8982315-2.1487284,2.0069199-2.1487284s2.0133362,0.9647427,2.0133362,2.1487284V15.8914452z" class="color343f48 svgShape"></path><path fill="#6834bb" d="M35.2450027 36.484417v8.5968132h6.226944c1.0121307-1.187191 2.1663055-2.2505112 3.4372292-3.165844V36.484417H35.2450027zM48.1428375 36.484417v3.545784c2.4854317-1.1440811 5.2536469-1.7869682 8.1747169-1.7869682.5017891 0 .9972839.0249443 1.4894562.0619965V36.484417H48.1428375zM35.2450027 56.551609h1.6703377c.1507149-3.1144218 1.0520363-6.0321655 2.5235558-8.5862465h-4.1938934V56.551609z" class="color347bbb svgShape"></path></svg></g></svg>