<svg id="SvgjsSvg1001" width="288" height="288" xmlns="http://www.w3.org/2000/svg" version="1.1" xmlns:xlink="http://www.w3.org/1999/xlink" xmlns:svgjs="http://svgjs.com/svgjs"><defs id="SvgjsDefs1002"></defs><g id="SvgjsG1008"><svg xmlns="http://www.w3.org/2000/svg" viewBox="0 0 24 24" width="288" height="288"><path fill="#911cff" d="m21.316 9.552-1.886-.63.89-1.777a1 1 0 0 0-.188-1.155L18.01 3.868a1 1 0 0 0-1.154-.187l-1.778.89-.63-1.887A1 1 0 0 0 13.5 2h-3a1 1 0 0 0-.949.684L8.922 4.57l-1.778-.89a.996.996 0 0 0-1.154.188L3.868 5.99a1 1 0 0 0-.187 1.155l.89 1.778-1.887.629A.999.999 0 0 0 2 10.5v3a.999.999 0 0 0 .684.948l1.886.63-.89 1.777a1 1 0 0 0 .188 1.155l2.122 2.122a.998.998 0 0 0 1.154.187l1.778-.89.63 1.887A1 1 0 0 0 10.5 22h3a1 1 0 0 0 .949-.684l.629-1.886 1.778.89a1 1 0 0 0 1.154-.188l2.122-2.122a1 1 0 0 0 .187-1.155l-.889-1.778 1.886-.629A.999.999 0 0 0 22 13.5v-3a.999.999 0 0 0-.684-.948ZM12 15a3 3 0 1 1 3-3 3.003 3.003 0 0 1-3 3Z" class="colorb2b1ff svgShape"></path><path fill="#161622" d="M12 16a4 4 0 1 1 4-4 4.004 4.004 0 0 1-4 4Zm0-6a2 2 0 1 0 2 2 2.002 2.002 0 0 0-2-2Z" class="color6563ff svgShape"></path></svg></g></svg>