<svg xmlns="http://www.w3.org/2000/svg" viewBox="0 0 400 400" width="288" height="288"><defs><linearGradient id="a" x1="115.687" x2="284.485" y1="152.273" y2="152.273" gradientUnits="userSpaceOnUse"><stop offset="0" stop-color="#060606" class="stopColord7e4f7 svgShape"></stop><stop offset=".919" stop-color="#251f1f" class="stopColorcbdaeb svgShape"></stop><stop offset="1" stop-color="#6f6969" class="stopColorcad9ea svgShape"></stop></linearGradient></defs><g data-name="Layer 1"><path fill="#8e8e8e" d="M259.6249,331.1667l-55.89-30.96a7.5216,7.5216,0,0,0-7.3,0l-55.89,30.96a7.5251,7.5251,0,0,1-11.12-7.49l13.2-109.59a84.37,84.37,0,0,0,114.95-.03l13.18,109.62A7.5321,7.5321,0,0,1,259.6249,331.1667Z" class="color4285f4 svgShape"></path><circle cx="200.086" cy="152.273" r="84.399" fill="url(#a)" opacity=".29"></circle><path fill="#ffffff" d="M200.0863,71.8739a80.3989,80.3989,0,1,1-80.3989,80.3989,80.49,80.49,0,0,1,80.3989-80.3989m0-4a84.3989,84.3989,0,1,0,84.3989,84.3989,84.3989,84.3989,0,0,0-84.3989-84.3989Z" opacity=".29" class="colore8e9ed svgShape"></path><path fill="#f1f1f1" d="M201.9764,113.5723l11.29,22.8758a2.1075,2.1075,0,0,0,1.587,1.153l25.2449,3.6683a2.1078,2.1078,0,0,1,1.1682,3.5953l-18.2674,17.8062a2.108,2.108,0,0,0-.6062,1.8657l4.3124,25.1429a2.1078,2.1078,0,0,1-3.0583,2.2219l-22.58-11.8708a2.108,2.108,0,0,0-1.9617,0l-22.58,11.8708a2.1078,2.1078,0,0,1-3.0583-2.2219l4.3123-25.1429a2.1077,2.1077,0,0,0-.6062-1.8657l-18.2673-17.8062a2.1078,2.1078,0,0,1,1.1682-3.5953l25.2448-3.6683a2.1079,2.1079,0,0,0,1.5871-1.153l11.29-22.8758A2.1078,2.1078,0,0,1,201.9764,113.5723Z" class="colorfffeff svgShape"></path><circle cx="200.086" cy="152.273" r="60.453" fill="none" stroke="#fffefe" stroke-miterlimit="10" stroke-width="5.849" class="colorStrokefffeff svgStroke"></circle></g></svg>