<svg id="SvgjsSvg1001" width="288" height="288" xmlns="http://www.w3.org/2000/svg" version="1.1" xmlns:xlink="http://www.w3.org/1999/xlink" xmlns:svgjs="http://svgjs.com/svgjs"><defs id="SvgjsDefs1002"></defs><g id="SvgjsG1008"><svg xmlns="http://www.w3.org/2000/svg" fill-rule="evenodd" stroke-linejoin="round" stroke-miterlimit="2" clip-rule="evenodd" viewBox="0 0 32 32" width="288" height="288"><path fill="#ffffff" d="M25,27.207c0,0.3 -0.181,0.571 -0.458,0.686c-0.278,0.115 -0.598,0.051 -0.81,-0.162c-0.514,-0.513 -1.103,-1.102 -1.603,-1.602c-0.643,-0.643 -1.667,-0.699 -2.377,-0.131c-1.067,0.854 -2.546,2.037 -3.288,2.631c-0.272,0.217 -0.657,0.217 -0.928,0c-0.742,-0.594 -2.221,-1.777 -3.288,-2.631c-0.711,-0.568 -1.735,-0.512 -2.378,0.131c-0.499,0.5 -1.088,1.089 -1.602,1.602c-0.213,0.213 -0.532,0.277 -0.81,0.162c-0.277,-0.115 -0.458,-0.386 -0.458,-0.686l0,-22.207c0,-0.53 0.21,-1.039 0.585,-1.414c0.376,-0.376 0.884,-0.586 1.415,-0.586l14,0c0.53,0 1.039,0.21 1.414,0.586c0.375,0.375 0.586,0.884 0.586,1.414l0,22.207Z" class="colorfff svgShape"></path><path fill="#911cff" d="M25 5c0-.53-.211-1.039-.586-1.414-.375-.376-.884-.586-1.414-.586l-14 0c-.531 0-1.039.21-1.415.586-.375.375-.585.884-.585 1.414l0 7 18 0 0-7zm-12 4l6 0c.552 0 1-.448 1-1 0-.552-.448-1-1-1l-6 0c-.552 0-1 .448-1 1 0 .552.448 1 1 1M11 17l10 0c.552 0 1-.448 1-1 0-.552-.448-1-1-1l-10 0c-.552 0-1 .448-1 1 0 .552.448 1 1 1M11 21l10 0c.552 0 1-.448 1-1 0-.552-.448-1-1-1l-10 0c-.552 0-1 .448-1 1 0 .552.448 1 1 1" class="color61adff svgShape"></path><path fill="#161622" d="M26,27.207l0,-22.207c0,-0.796 -0.316,-1.559 -0.879,-2.122c-0.562,-0.563 -1.326,-0.878 -2.121,-0.878l-14,0c-0.796,0 -1.559,0.315 -2.122,0.878c-0.562,0.563 -0.878,1.326 -0.878,2.122l0,22.207c0,0.704 0.424,1.34 1.076,1.609c0.651,0.271 1.401,0.121 1.899,-0.377c0.514,-0.514 1.103,-1.103 1.602,-1.602c0.283,-0.283 0.734,-0.309 1.046,-0.059c1.067,0.855 2.546,2.037 3.288,2.631c0.637,0.51 1.541,0.51 2.177,0c0.743,-0.594 2.221,-1.776 3.289,-2.631c0.312,-0.25 0.763,-0.224 1.045,0.059c0.5,0.499 1.089,1.088 1.603,1.602c0.498,0.498 1.248,0.648 1.899,0.377c0.651,-0.269 1.076,-0.905 1.076,-1.609m-2,-0.621l0,-21.586c0,-0.266 -0.105,-0.52 -0.293,-0.707c-0.187,-0.188 -0.442,-0.293 -0.707,-0.293l-14,0c-0.265,0 -0.52,0.105 -0.707,0.293c-0.188,0.187 -0.293,0.441 -0.293,0.707l0,21.586l1.163,-1.164c1.004,-1.003 2.601,-1.092 3.709,-0.205l3.128,2.502l3.127,-2.502c1.109,-0.887 2.706,-0.798 3.709,0.205l1.164,1.164Z" class="color525a66 svgShape"></path></svg></g></svg>