<svg xmlns="http://www.w3.org/2000/svg" viewBox="0 0 300 300" width="288" height="288"><g data-name="Layer 1"><circle cx="150" cy="157.76" r="106.64" fill="#ffff" class="coloreaeef9 svgShape"></circle><path fill="#bdbdbd" d="M202.35 171.33H97.65A54.35 54.35 0 0 1 43.36 117V97.65a15.52 15.52 0 0 1 15.51-15.51h182.26a15.52 15.52 0 0 1 15.51 15.51V117a54.35 54.35 0 0 1-54.29 54.33ZM58.87 93.77A3.88 3.88 0 0 0 55 97.65V117a42.7 42.7 0 0 0 42.66 42.65h104.7A42.7 42.7 0 0 0 245 117V97.65a3.88 3.88 0 0 0-3.88-3.88Z" class="colorb0b9cf svgShape"></path><path fill="#bdbdbd" d="M101.83 231.44h96.34a10 10 0 0 1 10 10v21a2 2 0 0 1-2 2H93.83a2 2 0 0 1-2-2v-21a10 10 0 0 1 10-10Z" class="colorfafbff svgShape"></path><rect width="95.01" height="11.63" x="102.5" y="242.1" fill="#bdbdbd" rx="2" class="coloreaeef9 svgShape"></rect><path fill="#bdbdbd" d="M121.07 221.74h57.86a5 5 0 0 1 5 5v4.69h-67.86v-4.69a5 5 0 0 1 5-5zM91.83 51.11h116.34a7.75 7.75 0 0 1 7.75 7.76 7.75 7.75 0 0 1-7.75 7.75H91.83a7.75 7.75 0 0 1-7.75-7.75 7.75 7.75 0 0 1 7.75-7.76z" class="coloreaeef9 svgShape"></path><path fill="#bdbdbd" d="M125.76 192.66h48.47v34.9h-48.47z" class="coloreaeef9 svgShape"></path><path fill="#bdbdbd" d="M91.83 66.62h116.34v96.85a35 35 0 0 1-35 35h-46.34a35 35 0 0 1-35-35V66.62Z" class="colorfafbff svgShape"></path><circle cx="150" cy="129.64" r="35.87" fill="#bdbdbd" class="coloreaeef9 svgShape"></circle><path fill="#d6dce8" d="M150 90.86a38.78 38.78 0 1 0 38.78 38.78A38.78 38.78 0 0 0 150 90.86Zm0 71.74a33 33 0 1 1 33-33 33 33 0 0 1-33 33Z" class="colord6dce8 svgShape"></path><path fill="#950fd8" d="m152.19 109.85 4.37 8.86a2.44 2.44 0 0 0 1.83 1.34l9.78 1.42a2.44 2.44 0 0 1 1.35 4.16l-7.07 6.89a2.42 2.42 0 0 0-.7 2.16l1.67 9.74a2.44 2.44 0 0 1-3.54 2.57l-8.75-4.6a2.44 2.44 0 0 0-2.26 0l-8.75 4.6a2.44 2.44 0 0 1-3.54-2.57l1.67-9.74a2.42 2.42 0 0 0-.7-2.16l-7.07-6.89a2.44 2.44 0 0 1 1.35-4.16l9.78-1.42a2.44 2.44 0 0 0 1.83-1.34l4.37-8.86a2.45 2.45 0 0 1 4.38 0Z" class="colorff5ab5 svgShape"></path></g></svg>