<svg id="SvgjsSvg1001" width="288" height="288" xmlns="http://www.w3.org/2000/svg" version="1.1" xmlns:xlink="http://www.w3.org/1999/xlink" xmlns:svgjs="http://svgjs.com/svgjs"><defs id="SvgjsDefs1002"></defs><g id="SvgjsG1008"><svg xmlns="http://www.w3.org/2000/svg" viewBox="0 0 66 66" width="288" height="288"><path fill="#ddebfd" d="m28.83 29.41-4.46-.39a.953.953 0 0 0-.77.28l-8.17 8.09c-.11.11-.19.23-.26.37L9.37 49.9l8.05 8.13 6.99-6.92c.11-.11.19-.24.24-.38l2.16-6.43c.05-.14.13-.28.24-.38l3.33-3.3c.83-.83.84-2.17.01-3.01a2.13 2.13 0 0 0-3.01-.01L20.91 44l7.92-14.59z" class="colorddebfd svgShape"></path><path fill="#161622" d="M17.42 58.75a.72.72 0 0 1-.52-.22L8.85 50.4a.719.719 0 0 1-.14-.82l5.79-12.15c.1-.21.24-.4.4-.57l8.17-8.09c.36-.35.86-.53 1.35-.49l4.46.39c.24.02.46.16.58.38.12.22.11.48 0 .69L23.9 40.03l2.98-2.95c.54-.54 1.23-.85 2.02-.83.76 0 1.48.3 2.01.85a2.846 2.846 0 0 1-.02 4.03l-3.33 3.3c-.03.03-.05.06-.06.1l-2.16 6.43c-.08.25-.23.48-.41.67l-6.99 6.92c-.15.13-.33.2-.52.2zm-7.17-9L17.43 57l6.47-6.41c.03-.03.05-.06.06-.1l2.16-6.43c.08-.25.23-.48.42-.67l3.34-3.3c.27-.26.41-.61.42-.99 0-.37-.14-.73-.41-.99a1.4 1.4 0 0 0-.99-.42h-.01c-.37 0-.72.14-.99.41l-6.48 6.41a.73.73 0 0 1-1.15-.87l7.39-13.62-3.36-.3c-.08 0-.15.02-.2.07l-8.17 8.09c-.05.05-.09.1-.11.16l-5.57 11.71z" class="color1576ed svgShape"></path><path fill="#4e6575" d="M62.02 5.03v10.85c0 1.11-.9 2.02-2.01 2.02H11.28c-1.11 0-2.01-.91-2.01-2.02V5.03c0-1.11.9-2.01 2.01-2.01h48.73c1.11-.01 2.01.89 2.01 2.01z" class="color4e6575 svgShape"></path><path fill="#911cff" d="M62.02 5.03v10.85c0 1.11-.9 2.02-2.01 2.02H11.28c-1.11 0-2.01-.91-2.01-2.02V5.03c0-1.11.9-2.01 2.01-2.01h48.73c1.11-.01 2.01.89 2.01 2.01z" class="color7cb7ff svgShape"></path><path fill="#9dd281" d="M62.02 5.03v8.15H30.44c-5.61 0-10.16-4.55-10.16-10.16h39.74c1.1-.01 2 .89 2 2.01z" opacity=".3" class="colorfff svgShape"></path><path fill="#e2e2e2" d="M53.8 10.46c0 .6-.24 1.14-.64 1.54-.4.4-.94.64-1.54.64H19.67c-1.2 0-2.18-.98-2.18-2.18 0-.6.24-1.14.64-1.54.4-.4.94-.64 1.54-.64h31.95c1.2 0 2.18.98 2.18 2.18z" class="colore2e2e2 svgShape"></path><path fill="#161622" d="M51.62 13.36H19.67c-1.6 0-2.9-1.3-2.9-2.9 0-.77.3-1.5.85-2.05.55-.55 1.28-.85 2.05-.85h31.95c1.6 0 2.9 1.3 2.9 2.9 0 .77-.3 1.5-.85 2.05s-1.28.85-2.05.85zM19.67 9c-.39 0-.75.15-1.03.43a1.451 1.451 0 0 0 1.02 2.48h31.95c.39 0 .75-.15 1.03-.43A1.451 1.451 0 0 0 51.62 9H19.67z" class="color1576ed svgShape"></path><path fill="#9dd281" d="M62.02 11.35v-6.3c0-1.13-.91-2.04-2.04-2.04H53.1c0 1.67 1.35 3.02 3.02 3.02h2.9v2.31a2.992 2.992 0 0 0 3 3.01z" opacity=".3" class="colorfff svgShape"></path><path fill="#161622" d="M60.01 18.63H53.4c-.4 0-.73-.33-.73-.73s.33-.73.73-.73h6.61c.71 0 1.29-.58 1.29-1.3V5.03c0-.71-.58-1.29-1.29-1.29H11.28c-.71 0-1.29.58-1.29 1.29v10.85c0 .72.58 1.3 1.29 1.3h37.18c.4 0 .73.33.73.73s-.33.73-.73.73H11.28c-1.51 0-2.74-1.23-2.74-2.75V5.03c0-1.51 1.23-2.74 2.74-2.74h48.73c1.51 0 2.74 1.23 2.74 2.74v10.85c0 1.51-1.23 2.75-2.74 2.75z" class="color1576ed svgShape"></path><path fill="#7ca444" d="M22.83 8.28v39.4c0 1.25 1.01 2.26 2.26 2.26H46.2c1.24 0 2.26-1.01 2.26-2.26V8.28H22.83z" class="color7ca444 svgShape"></path><path fill="#6cbf40" d="M22.83 8.28v39.39c0 1.25 1.01 2.27 2.27 2.27h21.1c1.25 0 2.27-1.02 2.27-2.27V8.28H22.83z" class="colorb9d7ff svgShape"></path><path fill="#9dd281" d="M46.2 8.09H29.72v16.64c0 10.35 8.39 13.9 18.74 13.9V10.36c0-1.25-1.01-2.27-2.26-2.27z" opacity=".3" class="colorfff svgShape"></path><path fill="#9dd281" d="M46.24 21.83v-8.34c0-1.72-1.39-3.11-3.11-3.11H34c-1.26 0-2.28-1.02-2.28-2.28h14.54c1.21 0 2.2.98 2.2 2.2v13.76a2.23 2.23 0 0 1-2.22-2.23z" class="colorfff svgShape"></path><path fill="#161622" d="M46.2 50.66H25.09c-1.65 0-2.98-1.34-2.98-2.98V8.28c0-.4.33-.73.73-.73h25.63c.4 0 .73.33.73.73v25.91c0 .4-.33.73-.73.73s-.73-.33-.73-.73V9H23.56v38.67c0 .85.69 1.53 1.53 1.53H46.2c.84 0 1.53-.69 1.53-1.53v-9.24c0-.4.33-.73.73-.73s.73.33.73.73v9.24a2.998 2.998 0 0 1-2.99 2.99z" class="color1576ed svgShape"></path><path fill="#161622" d="M39.75 45.82h-8.21c-.4 0-.73-.33-.73-.73 0-1.73-1.41-3.14-3.14-3.14-.4 0-.73-.33-.73-.73V16.81c0-.4.33-.73.73-.73 1.73 0 3.14-1.41 3.14-3.14 0-.4.33-.73.73-.73h8.21c.4 0 .73.33.73.73 0 1.73 1.41 3.14 3.14 3.14.4 0 .73.33.73.73v24.41c0 .4-.33.73-.73.73-1.73 0-3.14 1.41-3.14 3.14a.74.74 0 0 1-.73.73zm-7.54-1.46h6.87c.31-1.95 1.86-3.5 3.81-3.81V17.48a4.607 4.607 0 0 1-3.81-3.81h-6.87a4.607 4.607 0 0 1-3.81 3.81v23.07c1.95.31 3.5 1.86 3.81 3.81z" class="color1576ed svgShape"></path><circle cx="35.64" cy="26.59" r="4.02" fill="#6cbf40" class="colorb9d7ff svgShape"></circle><path fill="#161622" d="M35.64 31.34c-2.62 0-4.75-2.13-4.75-4.75s2.13-4.75 4.75-4.75 4.75 2.13 4.75 4.75-2.13 4.75-4.75 4.75zm0-8.04c-1.82 0-3.3 1.48-3.3 3.3 0 1.82 1.48 3.3 3.3 3.3s3.3-1.48 3.3-3.3c0-1.82-1.48-3.3-3.3-3.3z" class="color1576ed svgShape"></path><path fill="#ddebfd" d="m17.42 58.03 6.12-6.06c.68-.67 1.19-1.49 1.49-2.4l1.42-4.22c.28-.84.75-1.6 1.38-2.22l2.54-2.52c.83-.83.84-2.17.01-3.01a2.13 2.13 0 0 0-3.01-.01L20.91 44" class="colorddebfd svgShape"></path><path fill="#161622" d="M17.42 58.75a.72.72 0 0 1-.52-.22.727.727 0 0 1 .01-1.03l6.12-6.06c.6-.59 1.05-1.32 1.32-2.11l1.42-4.22c.32-.94.86-1.81 1.56-2.51l2.55-2.52c.27-.26.41-.61.42-.99 0-.37-.14-.73-.41-.99a1.4 1.4 0 0 0-.99-.42h-.01c-.37 0-.72.14-.99.41l-6.48 6.41a.727.727 0 1 1-1.02-1.04l6.48-6.41c.54-.54 1.23-.85 2.02-.83.76 0 1.48.3 2.01.85a2.846 2.846 0 0 1-.02 4.03l-2.54 2.52c-.54.54-.96 1.21-1.21 1.94l-1.42 4.22a6.865 6.865 0 0 1-1.67 2.68l-6.12 6.06c-.14.16-.32.23-.51.23z" class="color1576ed svgShape"></path><path fill="#911cff" d="m18.33 60.78-1.83 1.83c-.5.5-1.3.5-1.8 0L4.35 52.26c-.49-.49-.5-1.3 0-1.8l1.83-1.83c.49-.49 1.3-.49 1.79.01L18.33 59c.5.49.5 1.29 0 1.78z" class="color7cb7ff svgShape"></path><path fill="#9dd281" d="m18.33 60.78-1.29 1.29-8.92-8.92c-.49-.49-.5-1.3 0-1.8l1.28-1.28 8.92 8.92c.51.5.51 1.3.01 1.79z" opacity=".3" class="colorfff svgShape"></path><path fill="#161622" d="M15.6 63.71c-.53 0-1.03-.21-1.41-.59L3.83 52.77c-.78-.78-.78-2.04 0-2.82l1.83-1.83c.37-.37.87-.58 1.4-.58h.01c.53 0 1.03.21 1.4.59l10.36 10.36a1.989 1.989 0 0 1 .01 2.82l-1.83 1.83c-.37.37-.88.57-1.41.57zM7.07 48.99c-.14 0-.28.05-.38.15l-1.83 1.83a.55.55 0 0 0 0 .77L15.22 62.1c.21.21.56.21.77 0l1.83-1.83c.1-.1.16-.23.16-.38a.57.57 0 0 0-.16-.39L7.46 49.15a.57.57 0 0 0-.39-.16z" class="color1576ed svgShape"></path></svg></g></svg>