<svg xmlns="http://www.w3.org/2000/svg" xmlns:xlink="http://www.w3.org/1999/xlink" enable-background="new 0 0 4460.094 2100" viewBox="0 0 4460.094 2100"><ellipse cx="2103.688" cy="1828.342" fill="#5cbec6" rx="760.644" ry="16.226"/><path fill="#262e51" d="M482.18 1269.029s11.286 17.592 14.605 27.218c3.319 9.626 3.186 39.566-8.697 43.815 0 0-28.347 5.709-38.615-24.209s.528-55.054 2.257-60.91c1.729-5.856 5.395-10.433 8.738-14.505 3.344-4.072 14.547-6.816 15.799-.797 1.253 6.02.381 21.687 5.913 29.388z"/><path fill="#ff867a" d="M402.355 1391.504c5.978 5.24 6.723 12.923 6.606 14.224-.455 5.04-5.951.084-6.257 4.4-.306 4.316 6.991 7.016 11.256 1.427 3.812-4.995 3.629-16.305.526-28.459-6.546 10.086-8.929 8.19-12.131 8.408z"/><path fill="#dbcfc1" d="M435.265 1318.392c-.633 2.117-35.736 20.769-34.932 22.359 5.817 18.056 13.808 34.525 17.021 47.091-6.546 10.087-13.29 12.868-16.493 13.081-17.176-15.055-49.827-64.625-34.826-80.658 23.832-25.47 63.229-35.911 77.448-39.649 4.25-1.116-3.822 23.092-8.218 37.776z"/><path fill="#bfdde2" d="M374.778 1732.512c11.657.769 15.932.149 27.601.007 24.477-.298 48.982.111 73.468.062 20.152-.041 40.306-.134 60.462.001.431-.02.862-.034 1.293-.054 10.575-.496 20.997-.064 31.578.314 9.873.352 27.585.17 37.627 2.506 2.951.687-21.591 1.726-30.29 1.563-11.384-.213-22.759-.555-34.145-.651-1.739-.015-3.479-.017-5.218-.028-1.358.048-2.711.082-4.074.146-22.217 1.035-44.313.892-66.576.914-22.592.022-45.178.331-67.774.202-10.849-.062-21.695-.278-32.543-.517-9.078-.2-17.141.201-22.134-2.481-1.302-.702 21.498-2.593 30.725-1.984z"/><path fill="#ff867a" d="M550.57 1706.349c-2.439 2.571-11.558 17.673-15.563 18.093a16.348 16.348 0 0 1-5.234-.3c2.264-2.038 4.341-6.835 6.105-12.061 1.187-3.518 3.75-9.592 2.617-16.475l12.766-3.548s4.244 11.366 4.808 12.472c-1.608-.03-3.994.232-5.499 1.819z"/><path fill="#434a59" d="M520.182 1729.842c1.284-1.427 3.726-3.114 8.264-4.836.449-.17.891-.471 1.326-.864 1.238.277 3.074.526 5.234.3 4.005-.42 13.124-15.522 15.563-18.093 1.505-1.587 3.891-1.849 5.499-1.818 1.27 2.49 3.292 6.967 3.039 9.789-.365 4.075-.946 15.708.045 19.352l-5.088.016-1.696-10.588s-3.932-.396-5.608 1.85c-.629.842-1.132 2.286-1.517 3.761-.796 3.058-3.523 5.014-6.835 5.024l-15.994.049c-2.061.005-3.508-2.523-2.232-3.942z"/><path fill="#ff867a" d="M442.706 1706.349c-2.843 2.571-14.335 17.673-18.406 18.093a15.861 15.861 0 0 1-5.187-.3c2.584-2.038 5.415-6.835 8-12.061 1.74-3.518 5.257-9.592 5.206-16.475l13.323-3.548s2.458 11.366 2.849 12.472c-1.603-.03-4.031.232-5.785 1.819z"/><path fill="#434a59" d="M408.627 1729.842c1.509-1.427 4.215-3.114 9.024-4.836.475-.17.965-.471 1.462-.864 1.195.277 2.991.526 5.187.3 4.071-.42 15.563-15.522 18.406-18.093 1.755-1.587 4.182-1.849 5.785-1.818.878 2.49 2.198 6.967 1.501 9.789-1.006 4.075-3.414 15.708-2.996 19.352l-5.09.016-.032-10.588s-3.87-.396-5.899 1.85c-.761.842-1.492 2.286-2.107 3.761-1.277 3.058-4.31 5.014-7.625 5.024l-16.001.049c-2.065.005-3.114-2.523-1.615-3.942z"/><path fill="#529ae3" d="M495.834 1404.987c-8.489-14.662-17.744-27.261-17.744-27.261s-56.925 9.714-64.882 8.416c-18.711 88.992 4.652 320.707 4.652 320.707s9.28 4.828 26.214 6.172c16.729 1.328 25.901-4.727 25.901-4.727-1.736-28.997-8.758-155.698-11.087-221.271 3.365 24.669 17.772 58.957 27.891 95.41 16.923 60.962 31.333 123.651 31.428 125.86 0 0 45.17 1.871 47.484-3.422 3.333-7.625-50.771-266.916-69.857-299.884z"/><path fill="#54678c" d="M410.681 1400.727c9.445 1.693 42.52 7.508 51.138 7.508 10.086 0 31.124-1.42 31.124-1.42s-7.693 10.714-28.705 13.9c-15.716 2.383-42.7-2.686-55.306-5.393a348.467 348.467 0 0 1 1.749-14.595z"/><path fill="#fff6e9" d="M495.834 1404.987c2.478-8.508-8.273-45.31-5.264-62.404 6.076-34.505-1.612-54.117-8.92-58.895-10.616-6.941-29.833-14.266-43.433-1.536-25.785 24.134-16.66 24.485-17.879 39.887-1.537 19.424-20.643 57.483-27.181 73.118 33.149 22.791 71.2 30.74 102.677 9.83z"/><path fill="#dbcfc1" d="M429.418 1408.678a.796.796 0 0 0 .764-.575c.212-.73 5.179-17.976 5.533-26.033.136-3.112.23-8.02.337-13.702.171-8.999.364-19.198.798-25.49.519-7.516 6.019-22.35 9.66-32.167 1.298-3.5 2.323-6.265 2.875-8.011 2.054-6.505 8.773-14.705 8.84-14.786a.796.796 0 1 0-1.229-1.013c-.284.345-6.985 8.523-9.131 15.32-.539 1.709-1.61 4.596-2.849 7.937-3.672 9.902-9.221 24.866-9.755 32.611-.437 6.332-.631 16.552-.801 25.57-.107 5.671-.2 10.569-.337 13.663-.346 7.869-5.42 25.483-5.471 25.66a.795.795 0 0 0 .766 1.016z"/><path fill="#dbcfc1" d="M408.144 1361.165c3.003-7.159 5.866-14.48 8.073-21.261l45.479-7.07s-29.554 24.941-53.552 28.331z"/><path fill="#54678c" d="M436.912 1432.43c2.353 3.961 5.743 8.594 9.963 11.62-.457-3.636-.81-7.341-1.004-11.168-.105-2.061 3.532-2.057 3.636 0 1.157 22.825 7.679 41.53 12.278 63.903.414 2.016-3.09 2.88-3.507.852-3.656-17.785-8.485-33.311-10.964-50.343-5.472-3.063-9.872-8.795-12.758-13.651-.812-1.369 1.541-2.585 2.356-1.213z"/><path fill="#ff867a" d="m469.326 1260.586 1.536 17.803c.197 3.207-7.32 11.869-12.633 8.073-1.555-1.111.171-5.623 1.401-9.028l2.955-13.8 6.741-3.048z"/><path fill="#ff867a" d="M471.349 1250.135s.159 5.049-.663 8.571c-1.213 5.194-5.207 6.882-10.54 6.377-5.2-.492-6.701-1.964-7.03-5.702-.082-.927-.06-2.285.213-3.479.453-1.984 1.964-5.154 3.861-7.02.865-.851 1.655-2.347 2.197-3.049 3.937-5.109 11.244-3.425 11.962 4.302z"/><path fill="#ff867a" d="M471.933 1254.823c.386-.512.688-1.076.957-1.659.51-1.106 1.527-2.631 2.807-1.062 1.862 2.282-1.182 8.026-4.143 7.207-2.198-.609-.593-3.195.379-4.486z"/><path fill="#c66c67" d="M460.468 1255.127c.016.086-.219.152-.534.079-.329-.062-.757-.269-1.116-.714a2.01 2.01 0 0 1-.389-.869c-.078-.382-.018-.708.066-.861.047-.089.089-.121.14-.106a.104.104 0 0 1 .062.037c.065.094.125.333.231.614.086.211.192.443.352.665.014.03.033.051.054.079.246.344.557.572.795.74.209.149.354.244.339.336z"/><path fill="#fff" d="M462.748 1257.085c-2.506-.232-5.289-1.311-6.294-2.029-.343-.246-.823-.066-.89.312-1.256 7.109 5.67 5.247 7.479 2.602.262-.383.196-.84-.295-.885z"/><path fill="#262e51" d="M467.906 1249.336c-.98-1.127-1.85-2.026-3.456-2.01-.449.005-.57.562-.034.805 1.475.67 1.952.847 3.075 1.834.5.441.985.027.415-.629zM458.002 1246.156c.692-.317 1.447-.142 2.094.039.432.121.604.619.02.68-1.611.167-1.56-.017-2.33.177-.546.138-.574-.534.216-.896z"/><path fill="#c66c67" d="M462.217 1265.668a.5.5 0 0 1-.005-1c3.97-.04 5.845-2.051 5.863-2.072a.5.5 0 0 1 .745.668c-.086.096-2.159 2.358-6.597 2.403l-.006.001z"/><path fill="#262e51" d="M463.194 1243.144s4.428 1.733 4.969 7.004-.322 23.461-.322 27.975 9.126 7.545 15.034 11.594c5.908 4.05 9.152 16.707 9.412 19.752 0 0 .847-19.198-2.605-27.164-3.452-7.966-6.838-16.198-8.431-21.443-1.593-5.245.996-20.646-4.514-22.571-5.511-1.925-13.543 4.853-13.543 4.853z"/><path fill="#ff5f4a" d="M381.418 1249.214s-11.342-.721-11.945-3.001c-.562-2.125 2.539-4.05 4.23-7.859 1.57-3.535 1.598-7.9 1.598-7.9l14.899-.291-8.782 19.051z"/><path fill="#eaeaea" d="M390.052 1226.467s-18.734 41.605-30.241 45.957c-11.508 4.351 13.01 14.472 21.954 7.516 8.945-6.956 28.695-46.486 28.695-46.486l-20.408-6.987z"/><path fill="#ff5f4a" d="M421.285 1196.939a397.707 397.707 0 0 1-25.75-10.71l-15.702 45.868c9.565.759 19.312 2.133 28.917 4.344 6.012 1.384 12.092-2.034 14.09-7.871l5.618-16.411c2.116-6.179-1.058-12.924-7.173-15.22z"/><path fill="#eaeaea" d="m329.854 1131.418-37.391 108.097s40.577-11.132 87.37-7.418l15.702-45.868c-27.986-12.847-51.104-38.19-65.681-54.811z"/><path fill="#ff5f4a" d="M329.854 1131.418c5.126 5.845 11.31 12.769 18.389 19.849.681 7.244.312 20.651-5.6 42.837-5.136 19.275-14.473 32.807-22.818 40.135-16.697 2.351-27.362 5.276-27.362 5.276l37.391-108.097z"/><ellipse cx="309.357" cy="1184.68" fill="#a64f3c" rx="57.85" ry="13.509" transform="rotate(-71.101 309.382 1184.69)"/><path fill="#eaeaea" d="m270.718 1169.39.843-2.463a12.611 12.611 0 0 1 14.844-8.186l41.726 9.901c-1.556 6.422-3.563 13.313-5.993 20.413a240.016 240.016 0 0 1-5.701 15.024L277.1 1184.8a12.613 12.613 0 0 1-6.382-15.41z"/><path fill="#95b7bf" d="M322.138 1189.055c2.43-7.1 4.437-13.991 5.993-20.413l-5.205-1.235-15.789 32.115 9.299 4.558a239.656 239.656 0 0 0 5.702-15.025z"/><path fill="#fff" d="M290.626 1240.52c4.975 1.25 11.107-6.59 15.421-13.482 5.995-9.578 12.066-22.945 17.096-37.639 5.03-14.694 8.424-28.978 9.557-40.22.834-8.28.772-18.513-4.263-20.236-3.263-1.117-7.425 1.693-12.365 8.354-4.524 6.1-9.197 14.613-13.771 25.215l2.101.499c4.446-10.305 9.012-18.562 13.377-24.448 4.143-5.587 7.777-8.362 9.97-7.609 1.659.568 2.438 3.132 2.8 5.183.561 3.182.574 7.498.036 12.829-1.117 11.085-4.474 25.2-9.453 39.745-4.979 14.544-10.976 27.756-16.887 37.2-2.843 4.542-5.498 7.945-7.891 10.115-1.543 1.399-3.732 2.953-5.389 2.38-1.404-.48-2.158-2.424-2.544-3.969-.607-2.431-.812-5.762-.608-9.9.414-8.424 2.481-19.523 5.915-31.587l-1.951-.956c-3.478 12.215-5.666 23.858-6.087 32.439-.462 9.407 1.081 14.784 4.587 15.985.115.038.232.073.349.102z"/><path fill="#a64f3c" d="m401.818 1201.105 15.479 4.43a.952.952 0 0 0 1.178-.654l.21-.733a.952.952 0 0 0-.654-1.178l-15.479-4.43a.952.952 0 0 0-1.178.654l-.21.733a.953.953 0 0 0 .654 1.178zM400.579 1205.432l15.479 4.43a.952.952 0 0 0 1.178-.654l.21-.733a.952.952 0 0 0-.654-1.178l-15.479-4.43a.952.952 0 0 0-1.178.654l-.21.733a.954.954 0 0 0 .654 1.178zM399.341 1209.76l15.479 4.43a.952.952 0 0 0 1.178-.654l.21-.733a.952.952 0 0 0-.654-1.178l-15.479-4.43a.952.952 0 0 0-1.178.654l-.21.733a.953.953 0 0 0 .654 1.178z"/><path fill="#fff" d="M390.698 1189.142a1.21 1.21 0 0 0 .468-2.329c-.172-.07-17.359-7.135-28.338-17.399a1.209 1.209 0 0 0-1.652 1.767c11.311 10.574 28.358 17.579 29.078 17.872.146.058.296.087.444.089zM357.308 1167.479a1.209 1.209 0 0 0 .842-2.088l-4.825-4.55a1.209 1.209 0 1 0-1.659 1.759l4.824 4.55c.231.217.524.326.818.329z"/><path fill="#ff867a" d="M394.635 1272.498s.521-6.917 1.558-9.275c.543-1.234 2.696-5.763 5.111-9.182 2.199-3.114 4.82-5.358 3.612-5.614-4.798-1.017-6.088 4.657-7.708 4.919-1.62.263-12.513-12.318-15.006-11.812-2.493.505 4.655 6.556 4.179 6.876-.475.32-5.415-5.885-6.092-4.425-.678 1.461-2.044 5.546-1.734 6.397 1.614 4.424 8.271 11.967 7.801 13.32-.47 1.354-2.978 6.56-2.305 6.94s9.403 2.048 10.584 1.856z"/><path fill="#fff6e9" d="M485.126 1295.101c-8.323-8.76-71.375 23.548-76.982 21.518-3.562-1.289-.259-46.964-11.594-52.57-3.946-1.951-15.164-1.15-15.424 1.875-1.899 22.09-18.466 75.413 22.667 82.749 47.019 8.386 92.279-42.05 81.333-53.572z"/><path fill="#ffe164" d="M2766.971 887.072H1588.612c-53.549 0-97.362 43.813-97.362 97.362v435.39c0 53.549 43.813 97.362 97.362 97.362h1178.359c53.549 0 97.362-43.813 97.362-97.362v-435.39c0-53.549-43.813-97.362-97.362-97.362z"/><path fill="#ff5f4a" d="M2665.829 887.072H1487.47c-53.549 0-97.362 43.813-97.362 97.362v435.39c0 53.549 43.813 97.362 97.362 97.362h1178.359c53.549 0 97.361-43.813 97.361-97.362v-435.39c0-53.549-43.812-97.362-97.361-97.362z"/><path fill="#ff7f61" d="M1811.435 887.072s127.161 74.282 159.997 144.782c32.836 70.5 32.864 189.282 150.048 250.099 149.351 77.511 189.052 235.232 189.052 235.232h156.913s-73.73-252.249-190.942-303.29c-136.441-59.415-129.129-132.71-137.062-166.365-28.521-120.993-121.512-160.458-121.512-160.458h-206.494z"/><path fill="#ce4949" d="M1752.155 887.073h-254.427c-2.502 0-4.982.094-7.442.264l-24.613 4.642c-43.664 13.725-75.565 54.674-75.565 102.714v319.224l18.336 46.391a35.763 35.763 0 0 0 30.464 22.513 35.771 35.771 0 0 0 33.608-17.477L1747.71 899.18a35.722 35.722 0 0 0 4.445-12.107z"/><path fill="#fff" d="M1618.74 1251.438c1.352 19.26 6.834 32.514 22.933 32.514 15.648 0 20.661-10.532 20.661-23.86 0-16.229-8.157-25.775-35.743-39.91-40.736-21.033-56.12-38.781-56.12-73.246 0-40.115 24.517-66.424 70.976-66.424 54.645 0 70.281 34.146 70.732 70.159h-51.873c-.901-16.331-3.886-30.364-19.188-30.364-11.987 0-17.347 7.772-17.347 20.857 0 13.432 5.238 20.359 30.741 33.104 43.467 21.887 61.92 40.396 61.92 79.826 0 38.763-22.658 69.652-75.294 69.652-57.028 0-74.43-32.495-75.575-72.308h53.177zM1795.649 1084.82v234.515h-53.891V1084.82h53.891zM1980.964 1319.335h-39.607c-.92-6.195-1.737-12.033-1.962-18.51-10.137 18.247-27.624 22.921-46.048 22.921-46.79 0-68.227-35.088-68.227-120.176 0-92.916 32.062-122.936 83.235-122.936 66.263 0 71.567 52.392 72.14 70.675h-53.928c-.573-11.431-2.169-28.224-19.967-28.224-20.089 0-24.98 26.275-24.98 80.851 0 56.388 4.806 77.463 24.182 77.463 16.362 0 21.253-13.714 21.253-38.992V1227.4H1904v-42.311h76.965l-.001 134.246zM2012.828 1319.335V1084.82h58.96c35.652 110.533 43.931 137.104 46.343 147.814h.957c-2.328-29.509-3.06-68.158-3.06-104.754v-43.06h47.584v234.515h-58.096c-37.041-121.898-43.997-145.524-46.635-155.661h-1.079c1.858 28.214 2.834 71.658 2.834 110.019v45.642h-47.808zM2310.232 1084.82v164.204c0 15.272 3.192 32.497 22.239 32.497 18.371 0 21.769-14.85 21.769-32.272V1084.82h54.135v162.684c0 47.753-23.378 76.242-77.086 76.242-54.356 0-74.947-28.235-74.947-76.712V1084.82h53.89zM2440.819 1084.82h76.954c40.706 0 69.963 22.536 69.963 71.089 0 48.993-26.234 71.876-72.356 71.876h-21.035v91.55h-53.525V1084.82zm53.525 101.743h13.996c18.567 0 25.627-9.058 25.627-31.105 0-21.823-9.368-30.167-24.519-30.167h-15.104v61.272z"/><circle cx="2912.691" cy="755.186" r="82.168" fill="#f2a25c"/><path fill="#fff" d="m2965.361 736.301-30.663.127a3.417 3.417 0 0 1-3.431-3.403l-.127-30.663a3.417 3.417 0 0 0-3.431-3.403l-30.499.127a3.417 3.417 0 0 0-3.403 3.431l.127 30.663a3.417 3.417 0 0 1-3.403 3.431l-30.663.127a3.417 3.417 0 0 0-3.403 3.431l.127 30.499a3.417 3.417 0 0 0 3.431 3.403l30.663-.127a3.417 3.417 0 0 1 3.431 3.403l.127 30.663a3.417 3.417 0 0 0 3.431 3.403l30.499-.127a3.417 3.417 0 0 0 3.403-3.431l-.127-30.663a3.417 3.417 0 0 1 3.403-3.431l30.663-.127a3.417 3.417 0 0 0 3.403-3.431l-.126-30.499a3.419 3.419 0 0 0-3.432-3.403z"/><path fill="#5cbec6" d="M3066.252 651.274c27.386-12.988 46.438-40.916 46.438-73.28 0-44.812-36.371-81.184-81.184-81.184-38.426 0-70.684 26.845-79.017 62.782a78.575 78.575 0 0 0-2.166 18.402c0 25.761 12.123 48.709 30.85 63.539a72.406 72.406 0 0 0 15.586 9.741c-3.68 1.085-7.359 2.276-10.933 3.791a123.564 123.564 0 0 0-28.451 15.621 95.322 95.322 0 0 1 22.897 16.92c8.773 8.773 15.663 18.993 20.477 30.375 4.987 11.792 7.516 24.309 7.516 37.206s-2.529 25.414-7.516 37.206c-4.814 11.383-11.704 21.602-20.477 30.375a96.476 96.476 0 0 1-8.409 7.481 249.558 249.558 0 0 0 38.967 6.244c6.818.539 13.746.862 20.675.862 12.231 0 24.355-.862 36.044-2.599 32.148-4.543 62.35-15.261 89.41-30.955v-32.052c.002-57.259-38.316-105.428-90.707-120.475zM1865.366 204.669l-36.175.15a4.03 4.03 0 0 1-4.048-4.015l-.15-36.175a4.032 4.032 0 0 0-4.048-4.015l-35.98.149a4.032 4.032 0 0 0-4.015 4.048l.15 36.175a4.03 4.03 0 0 1-4.015 4.048l-36.175.15a4.032 4.032 0 0 0-4.015 4.048l.149 35.981a4.032 4.032 0 0 0 4.048 4.015l36.175-.15a4.03 4.03 0 0 1 4.048 4.015l.15 36.175a4.032 4.032 0 0 0 4.048 4.015l35.98-.149a4.032 4.032 0 0 0 4.015-4.048l-.15-36.175a4.03 4.03 0 0 1 4.015-4.048l36.175-.15a4.032 4.032 0 0 0 4.015-4.048l-.149-35.98a4.031 4.031 0 0 0-4.048-4.016z"/><path fill="#529ae3" d="M2337.071 315.353h-196.557c-52.137 0-94.795 42.658-94.795 94.795v177.315c0 52.138 42.658 94.796 94.795 94.796h196.557c52.138 0 94.796-42.658 94.796-94.796V410.148c0-52.138-42.658-94.795-94.796-94.795z"/><path fill="#54678c" d="M2215.865 603.816a31.468 31.468 0 0 1-23.466-10.499l-93.482-104.6 46.928-41.941 71.169 79.633 131.034-132.613 44.77 44.237-154.57 156.432a31.462 31.462 0 0 1-22.383 9.351z"/><path fill="#7dbef4" d="M2215.865 606.848c-.289 0-.579-.003-.868-.011-9.477-.237-18.539-4.429-24.858-11.5l-93.483-104.6 4.522-4.042 93.483 104.6a28.54 28.54 0 0 0 21.204 9.487c7.549 0 14.922-3.079 20.227-8.449l154.571-156.432 4.314 4.263-154.57 156.432c-6.437 6.516-15.383 10.252-24.542 10.252z"/><path fill="#ffe164" d="m1295.508 548.915-8.153-1.438c.445-4.485.652-9.039.589-13.653a119.898 119.898 0 0 0-.591-10.296l8.155-1.438c4.302-.759 7.626-4.413 7.661-8.782.046-5.781-5.15-9.95-10.572-8.994l-8.376 1.477a119.466 119.466 0 0 0-8.228-22.482l7.213-4.164c3.784-2.184 5.657-6.755 4.195-10.872-1.934-5.448-8.243-7.588-13.011-4.835l-7.439 4.295a121.634 121.634 0 0 0-15.394-18.299l5.4-6.435c2.808-3.347 3.005-8.283.224-11.652-3.681-4.458-10.341-4.312-13.88-.094l-5.526 6.586a120.611 120.611 0 0 0-20.693-12.01l2.846-7.82c1.494-4.105-.009-8.811-3.775-11.026-4.984-2.93-11.192-.515-13.075 4.659l-2.91 7.995a119.285 119.285 0 0 0-23.582-4.165v-8.282c0-4.369-3.022-8.277-7.318-9.069-5.685-1.049-10.693 3.344-10.693 8.85v8.501a119.698 119.698 0 0 0-23.589 4.147l-2.828-7.771c-1.494-4.105-5.67-6.744-9.979-6.02-5.701.959-8.904 6.8-7.021 11.973l2.909 7.994a120.373 120.373 0 0 0-20.713 12.004l-5.352-6.378c-2.808-3.347-7.635-4.398-11.436-2.244-5.03 2.851-6.042 9.435-2.503 13.652l5.503 6.558a121.286 121.286 0 0 0-15.397 18.32l-7.207-4.161c-3.784-2.184-8.679-1.521-11.514 1.803-3.751 4.399-2.45 10.932 2.318 13.685l7.371 4.256a119.434 119.434 0 0 0-8.212 22.497l-8.143-1.436c-4.303-.759-8.676 1.539-10.203 5.632-2.02 5.417 1.437 11.111 6.859 12.067l8.369 1.476a121.417 121.417 0 0 0-.589 13.653c.047 3.469.252 6.902.591 10.296l-8.155 1.438c-4.302.759-7.626 4.413-7.661 8.782-.046 5.781 5.15 9.95 10.572 8.994l8.375-1.477a119.466 119.466 0 0 0 8.228 22.482l-7.212 4.164c-3.784 2.185-5.657 6.755-4.195 10.872 1.934 5.448 8.242 7.588 13.01 4.836l7.439-4.295a121.634 121.634 0 0 0 15.394 18.299l-5.4 6.435c-2.808 3.347-3.005 8.283-.224 11.652 3.681 4.458 10.341 4.312 13.88.094l5.526-6.586a120.611 120.611 0 0 0 20.693 12.01l-2.846 7.82c-1.494 4.105.009 8.811 3.775 11.025 4.984 2.93 11.192.515 13.075-4.659l2.91-7.995a119.282 119.282 0 0 0 23.583 4.165v8.282c0 4.369 3.022 8.277 7.318 9.069 5.686 1.049 10.693-3.344 10.693-8.85v-8.501a119.698 119.698 0 0 0 23.589-4.147l2.828 7.771c1.494 4.105 5.67 6.744 9.979 6.019 5.701-.959 8.904-6.799 7.021-11.973l-2.91-7.994a120.4 120.4 0 0 0 20.713-12.004l5.352 6.378c2.808 3.347 7.635 4.398 11.436 2.244 5.03-2.851 6.042-9.435 2.503-13.653l-5.503-6.558a121.303 121.303 0 0 0 15.397-18.321l7.207 4.161c3.783 2.185 8.679 1.521 11.513-1.803 3.751-4.399 2.45-10.932-2.318-13.685l-7.371-4.256a119.434 119.434 0 0 0 8.212-22.497l8.36 1.474c5.422.956 10.618-3.213 10.572-8.994-.033-4.365-3.357-8.019-7.659-8.778zm-127.927 28.494c-23.145 0-41.907-18.762-41.907-41.907 0-23.144 18.762-41.907 41.907-41.907 23.144 0 41.907 18.762 41.907 41.907 0 23.145-18.763 41.907-41.907 41.907z"/><path fill="#ff5f4a" d="m1526.013 474.744 14.531-58.282-36.405-9.077c.044-1.454.074-2.911.074-4.376 0-4.81-.243-9.564-.713-14.252l35.672-11.59-18.561-57.126-35.713 11.604a142.587 142.587 0 0 0-16.464-22.676l22.837-34.845-50.238-32.925-21.121 32.227a140.564 140.564 0 0 0-27.431-8.969V226.95h-60.066v37.507a140.42 140.42 0 0 0-17.918 5.142l-19.879-31.812-50.938 31.831 19.92 31.879a143.214 143.214 0 0 0-12.458 13.812l-33.773-16.472-26.33 53.987 33.711 16.442a140.944 140.944 0 0 0-3.231 18.359l-37.309 3.921 6.279 59.737 37.305-3.921a140.813 140.813 0 0 0 6.996 17.272l-29.572 23.105 36.982 47.332 29.615-23.137a142.6 142.6 0 0 0 15.04 10.955l-12.846 35.294 56.444 20.544 12.83-35.249a142.374 142.374 0 0 0 18.593 1.293l7.8 36.699 58.753-12.488-7.801-36.699a141.558 141.558 0 0 0 16.427-8.778l26.091 27.018 43.208-41.726-26.093-27.02a141.888 141.888 0 0 0 9.331-16.112l36.421 9.079zM1362.446 321.31c45.05 0 81.7 36.65 81.7 81.7 0 45.05-36.65 81.7-81.7 81.7s-81.7-36.651-81.7-81.7 36.651-81.7 81.7-81.7z"/><path fill="#5cbec6" d="M570.25 693.178h227.283c43.755 0 79.555 35.8 79.555 79.555v69.277c0 43.755-35.8 79.555-79.555 79.555H570.25c-43.755 0-79.555-35.8-79.555-79.555v-69.277c0-43.755 35.8-79.555 79.555-79.555z"/><path fill="#5cbec6" d="m717.919 876.811 98.619 96.285-26.303-96.285z"/><path fill="#fff" d="M784.043 786.412H583.74c-5.04 0-9.163-4.124-9.163-9.163v-1.434c0-5.04 4.123-9.163 9.163-9.163h200.303c5.04 0 9.163 4.124 9.163 9.163v1.434c0 5.039-4.123 9.163-9.163 9.163zM655.631 828.331h-71.89c-5.04 0-9.163-4.123-9.163-9.163v-1.434c0-5.04 4.123-9.163 9.163-9.163h71.89c5.04 0 9.163 4.123 9.163 9.163v1.434c0 5.04-4.124 9.163-9.163 9.163zM754.944 828.331h-71.648c-5.04 0-9.163-4.123-9.163-9.163v-1.434c0-5.04 4.123-9.163 9.163-9.163h71.648c5.04 0 9.163 4.123 9.163 9.163v1.434c0 5.04-4.124 9.163-9.163 9.163z"/><circle cx="783.326" cy="818.451" r="9.88" fill="#fff" transform="rotate(-78.627 783.333 818.426)"/><path fill="#e7f2f2" d="M2847.756 168.116h-153.615c-61.061 0-111.019 49.959-111.019 111.019 0 61.061 49.959 111.019 111.019 111.019h153.615c61.061 0 111.019-49.959 111.019-111.02 0-61.059-49.958-111.018-111.019-111.018z"/><path fill="#e7f2f2" d="m2737.867 346.645-95.877 93.609 25.572-93.609z"/><path fill="#fff" d="M2869.948 258.759H2671.95c-4.002 0-7.277-3.275-7.277-7.277v-4.657c0-4.002 3.275-7.277 7.277-7.277h197.998c4.002 0 7.277 3.275 7.277 7.277v4.657c0 4.002-3.275 7.277-7.277 7.277zM2745.105 299.513h-73.155c-4.002 0-7.277-3.275-7.277-7.277v-4.657c0-4.002 3.275-7.277 7.277-7.277h73.155c4.002 0 7.277 3.275 7.277 7.277v4.657c0 4.002-3.275 7.277-7.277 7.277zM2841.657 299.513h-72.919c-4.002 0-7.277-3.275-7.277-7.277v-4.657c0-4.002 3.275-7.277 7.277-7.277h72.919c4.002 0 7.277 3.275 7.277 7.277v4.657c0 4.002-3.275 7.277-7.277 7.277z"/><circle cx="2867.619" cy="289.907" r="9.606" fill="#fff"/><path fill="#434a59" d="M1675.45 649.661c-7.309 0-13.234-5.925-13.234-13.234v-76.523c0-7.309 5.925-13.234 13.234-13.234s13.234 5.925 13.234 13.234v76.523c-.001 7.31-5.926 13.234-13.234 13.234zM1853.004 786.639h-76.522c-7.309 0-13.234-5.925-13.234-13.234s5.925-13.234 13.234-13.234h76.522c7.309 0 13.234 5.925 13.234 13.234s-5.925 13.234-13.234 13.234zM1772.853 684.706c-3.98 0-7.914-1.787-10.52-5.192-4.442-5.805-3.336-14.11 2.468-18.552l60.773-46.501c5.804-4.441 14.11-3.337 18.552 2.468 4.441 5.805 3.336 14.11-2.468 18.552l-60.773 46.501a13.175 13.175 0 0 1-8.032 2.724z"/><path fill="#f27c79" d="M823.167 1236.774c14.544-31.127 128.572 47.736 128.572 47.736s77.218-97.495 96.197-86.743c21.852 12.379-12.669 101.498-68.734 144.733-53.442 41.211-170.691-74.359-156.035-105.726z"/><path fill="#ce4949" d="M823.167 1236.774c-9.909 21.208 40.483 80.907 90.682 104.615 14.331-17.929 21.441-49.759 24.266-65.895-30.699-19.744-103.522-63.175-114.948-38.72z"/><path fill="#f27c79" d="M1436.775 1318.328c-13.847 12.083-25.445 20.816-30.292 18.427-13.613-6.711-72.766-108.649-85.631-99.024-12.864 9.625 18.125 166.344 82.892 162.373 26.191-1.606 50.378-15.917 69.974-33.504-21.049-14.495-32.512-37.584-36.943-48.272z"/><path fill="#b1d5de" d="M1522.15 1297.694c1.119-16.779-4.8-30.242-14.774-31.881-13.151-2.161-45.556 30.66-70.601 52.515 4.431 10.688 15.894 33.778 36.943 48.272 28.863-25.903 47.766-58.912 48.432-68.906z"/><path fill="#fff" d="m1625.379 826.153-290.628 492.309-65.855-166.613-260.412 137.763-61.326-107.169 255.254-143.45-169.604-101.07z"/><path fill="#529ae3" d="m1625.379 826.153-290.628 492.309-65.856-166.613-260.411 137.763-61.326-107.169 255.254-143.45-169.604-101.07 592.571-111.77zm19.346-32.45a37.764 37.764 0 0 0-26.348-4.674l-592.571 111.77a37.78 37.78 0 0 0-12.337 69.577l113.537 67.659-198.356 111.474a37.774 37.774 0 0 0-14.28 51.698l61.326 107.169a37.615 37.615 0 0 0 13.42 13.678c10.971 6.538 24.97 7.335 37.035.952l223.12-118.035 50.348 127.378a37.767 37.767 0 0 0 15.799 18.569 37.778 37.778 0 0 0 51.868-13.251l290.628-492.309a37.778 37.778 0 0 0-13.189-51.655z"/><ellipse cx="1537.509" cy="1950.033" fill="#5cbec6" rx="172.166" ry="8.187"/><path fill="#434a59" d="M1645.646 1939.746c-5.01 1.225-7.4 5.707-7.736 7.568-.408 2.262-6.245 1.334-10.264-.679-4.018-2.013-5.159-5.284-9.073-9.531-2.42-2.626-4.762-3.439-6.198-3.678-.342 2.118-.767 4.001-1.296 5.202-2.003 4.554-.634 12.023 3.313 13.046 3.947 1.022 37.984 3.339 44.997-.52 4.243-2.333-5.142-6.921-13.743-11.408z"/><path fill="#ff867a" d="M1618.574 1937.104c3.914 4.247 5.055 7.518 9.073 9.531 4.018 2.013 9.855 2.94 10.264.679.336-1.861 2.726-6.343 7.736-7.568-5.622-2.933-10.909-5.824-11.836-8.014-2.344-5.54-2.883-14.005-5.321-15.51-2.438-1.505-14.624-.751-14.866 3.536 0 0-.294 7.757-1.248 13.668 1.437.24 3.778 1.052 6.198 3.678z"/><path fill="#434a59" d="M1438.29 1939.693c5.1.767 7.886 5.014 8.389 6.838.611 2.215 6.34.764 10.16-1.604 3.819-2.368 4.66-5.729 8.174-10.313 2.173-2.834 4.431-3.855 5.84-4.224.532 2.078 1.126 3.915 1.761 5.064 2.406 4.354 1.719 11.917-2.12 13.292s-37.527 6.76-44.86 3.552c-4.435-1.94 4.496-7.358 12.656-12.605z"/><path fill="#ff867a" d="M1465.012 1934.613c-3.514 4.583-4.354 7.945-8.174 10.313-3.82 2.368-9.549 3.82-10.16 1.604-.503-1.823-3.289-6.071-8.389-6.838 5.334-3.43 10.338-6.787 11.063-9.051 1.833-5.729 1.604-14.209 3.896-15.927 2.292-1.719 14.496-2.071 15.125 2.177 0 0 .994 7.698 2.479 13.499-1.409.368-3.667 1.389-5.84 4.223z"/><path fill="#5cbec6" d="M1563.187 1443.631c-10.029-36.287-103.773-68.101-117.695-16.278-4.273 15.905-21.089 28.193-26.602 82.447-9.784 96.295 17.553 402.191 25.776 408.121 8.223 5.93 38.812 11.888 40.862 1.84 2.625-12.87 10.729-336.763 8.647-378.888 2.458 13.224 99.344 372.774 105.796 380.839 6.452 8.065 29.242 5.833 39.731-1.016 3.043-1.987-52.934-327.341-52.934-327.341s-13.445-113.049-23.581-149.724z"/><path fill="#4297b2" d="M1474.536 1551.924c-28.773-3.532-47.345-8.72-57.403-12.203.268-9.381.705-17.897 1.333-25.346 7.697 2.058 25.85 6.572 56.577 12.326 42.489 7.956 96.085 16.696 96.085 16.696s-34.954 10.042-73.89 9.89c-1.759-6.831-2.832-11.165-3.064-12.413.142 2.876.237 7.073.289 12.387-6.599-.11-13.291-.522-19.927-1.337z"/><path fill="#e7f2f2" d="M1592.354 1537.535c-8.297-45.412-18.606-102.304-22.853-150.319-3.626-40.997 4.372-77.67.798-90.609-5.867-21.242-19.358-32.035-46.787-34.679-29.738-2.866-37.911 13.442-50.63 28.821-9.835 11.894-15.952 47.367-31.356 99.006-3.899 13.069-24.435 79.804-30.229 120.103-6.634 46.138 182.967 38.133 181.057 27.677z"/><path fill="#434a59" d="M1553.895 1207.679c-3.647-3.288-8.377-5.079-13.279-5.365-1.564-.091-9.838-2.291-13.709 4.431-3.871 6.722 2.407 22.123 3.257 24.745.85 2.622 3.163 15.425 6.827 17.796 3.663 2.371 5.844-3.077 11.281-7.212 5.453-4.147 20.339-21.128 5.623-34.395z"/><path fill="#ff867a" d="m1541.442 1239.821 3.122 27.539c.155 4.546-16.609 12.892-23.932 7.322-2.144-1.631 5.26-12.559 5.26-12.559l5.654-20.329 9.896-1.973z"/><path fill="#c66c67" d="m1527.737 1255.488 2.889-10.388 8.169-.611c.001 0-1.938 10.546-11.058 10.999z"/><path fill="#ff867a" d="m1542.991 1222.519 2.823 8.833c.631 8.487-7.124 15.823-15.63 15.554-10.609-.336-15.515-3.083-14.229-12.838.754-5.72 7.176-15.399 9.718-19.134 2.972-4.367 7.505-5.972 11.462-4.848 3.76 1.066-1.575 5.252 5.856 12.433z"/><path fill="#c66c67" d="M1524.889 1243.931c3.657.565 13.857.558 13.907.558-1.043.662-2.018 1.57-3.193 1.974-1.673.574-3.602.5-5.418.442-8.219-.26-13.012-1.97-14.158-7.262 2.155.949 6.325 3.896 8.862 4.288zM1527.184 1228.355a7.49 7.49 0 0 1-2.556-2.578c-.491-.815-1.659.094-1.173.901a8.444 8.444 0 0 0 2.826 2.849c.805.494 1.713-.675.903-1.172z"/><path fill="#434a59" d="M1533.786 1223.255c-.143-.082-.569-.366-1.016.077-.336.334-.633.814-.73 1.299a.895.895 0 0 0 .901 1.068c.783-.021 1.802-1.893.845-2.444zM1524.574 1220.12c-.143-.082-.569-.366-1.016.077-.336.334-.633.814-.73 1.3a.894.894 0 0 0 .901 1.067c.783-.021 1.802-1.894.845-2.444z"/><path fill="#fff" d="M1530.835 1233.901c-1.678-.724-5.859-2.45-10.504-3.795a.6.6 0 0 0-.758.469c-.182 1.033-.404 3.073.357 4.393 1.489 2.581 5.943 5.151 11.094-.092a.602.602 0 0 0-.189-.975z"/><path fill="#ff867a" d="M1545.077 1230.376c.673-.661 1.238-1.416 1.757-2.204.987-1.498 2.8-3.495 4.302-.938 2.185 3.718-3.508 11.41-7.61 9.579-3.047-1.359-.145-4.771 1.551-6.437z"/><path fill="#434a59" d="M1535.497 1219.167c1.205.735 2.408 1.723 3.276 2.862.413.541-.401 1.127-.813.587-.745-.977-1.832-1.884-2.867-2.515-.567-.347-.171-1.285.404-.934zM1524.347 1216.495c.861-.148 1.733-.221 2.607-.286.667-.05.805.958.134 1.009-.875.066-1.746.138-2.607.286-.657.113-.789-.896-.134-1.009z"/><path fill="#4297b2" d="m1476.595 1914.564.062-.001a1.053 1.053 0 0 0 .99-1.112c-.01-.18-1.06-18.108-2.594-27.53-1.561-9.583 2.992-166.968 4.714-192.107 1.738-25.374.02-142.781.003-143.964a1.053 1.053 0 1 0-2.106.032c.018 1.182 1.734 118.501.003 143.788-1.725 25.178-6.263 182.944-4.692 192.589 1.518 9.316 2.56 27.134 2.571 27.313.031.559.495.992 1.049.992zM1633.559 1918.179a1.054 1.054 0 0 1-.389-1.154c.225-4.733-16.791-96.865-19.638-108.252-2.819-11.278-20.783-117.094-22.21-129.302-1.457-12.475-19.051-131.098-19.229-132.295a1.053 1.053 0 0 1 2.083-.309c.177 1.197 17.776 119.852 19.237 132.36 1.424 12.187 19.349 117.785 22.161 129.035 1.476 5.903 6.885 34.205 11.263 58.157 2.53 13.846 4.653 25.852 6.139 34.72 2.673 15.958 2.426 16.296 2.053 16.808a1.051 1.051 0 0 1-1.47.232zm-.394-1.093zm.156-.369.002-.003-.002.003zm.003-.004a.018.018 0 0 1 .004-.005l-.004.005z"/><path fill="#b1d5de" d="M1486.397 1382.183c-15.652 5.336-32.977 7.453-45.084 8.287-1.848 6.169-6.469 21.346-11.622 39.805 21.548 4.663 62.319-7.665 84.392-24.81 23.491-18.248 39.04-59.405 39.04-59.405s-39.04 26.684-66.726 36.123z"/><path fill="#434a59" d="M1549.53 1207.676s1.119-14.584 8.949-12.955c7.83 1.629 9.369 10.578 6.712 14.913s-9.526 5.593-11.754 4.335c-2.229-1.259-4.606-5.594-3.907-6.293z"/><path fill="#ff867a" d="M1492.176 1330.68c-18.667 15.872-35.459 29.475-41.45 26.522-13.613-6.711-72.767-108.649-85.631-99.024-12.864 9.625 18.125 166.343 82.892 162.373 30.473-1.868 58.233-20.935 79.206-42.351-19.346-10.354-30.666-35.791-35.017-47.52z"/><path fill="#e7f2f2" d="M1554.144 1288.497c-11.434-1.879-38.218 21.989-61.968 42.183 4.351 11.729 15.67 37.166 35.017 47.52 23.602-24.1 38.608-51.175 39.2-60.059 1.119-16.78-2.275-28.005-12.249-29.644z"/><path fill="#ff867a" d="M1381.389 1253.781c1.494-7.099 7.346-14.846 1.725-13.678-5.621 1.168-6.662 8.616-10.505 9.825-3.844 1.209-14.014-21.197-17.476-18.326-2.3 1.906 5.911 12.873 5.048 13.11s-7.851-11.385-10.614-8.877c-3.388 3.076-4.701 8.397-2.908 13.866-1.358-1.174-2.687-1.915-3.48-1.296-2.132 1.664 21.658 39.61 33.988 21.749 2.666-3.864 1.922-5.444 4.222-16.373z"/><path fill="#c66c67" d="M1464.06 1367.089c-.188 0-.378-.027-.568-.083-.597-.177-14.675-4.423-19.324-12.914a2 2 0 0 1 3.509-1.921c3.855 7.041 16.82 10.96 16.951 10.999a2 2 0 0 1-.568 3.919z"/><path fill="#5cbec6" d="M587.816 1944.837c14.361 1.155 19.627.224 34.003.01 30.153-.448 60.342.167 90.507.093 24.825-.061 49.654-.202 74.485.001.531-.029 1.061-.051 1.593-.082 13.027-.745 25.867-.097 38.901.471 12.163.53 33.983.255 46.354 3.766 3.635 1.031-26.599 2.594-37.315 2.349-14.024-.321-28.038-.834-42.064-.978-2.143-.022-4.285-.026-6.428-.042-1.672.072-3.339.124-5.019.219-27.37 1.555-54.591 1.34-82.016 1.373-27.832.033-55.657.497-83.493.304-13.365-.093-26.726-.418-40.09-.778-11.183-.3-21.116.301-27.267-3.729-1.605-1.05 26.483-3.891 37.849-2.977z"/><path fill="#404859" d="M815.535 1938.152c-5.67-2.451-6.414-7.486-8.844-12.253-.164-.321-1.127-7.181-1.136-7.728-.04-2.368-6.913-8.624-10.078-3.677-6.238 9.75-14.187-5.126-13.803-1.071 1.142 12.071-3.319 31.288 1.185 32.588 9.595 2.768 54.333 5.827 55.159 1.126.494-2.822-12.677-4.747-22.483-8.985zM589.401 1844.551c.146-.33 20.751-17.411 21.17-17.764 1.81-1.527 3.491-13.138-2.342-12.466-11.498 1.326-5.61-11.027-8.511-8.168-8.634 8.512-32.725 24.232-33.097 28.906-1.269 15.936-4.632 31.942 1.015 47.947 9.926 4.758 19.605-33.559 21.765-38.455z"/><path fill="#434a59" d="M592.444 1831.097c8.572 15.36 15.872 15.158 15.872 15.158s121.539-80.442 151.905-148.983c11.76-26.543 14.857-47.646 23.875-85.324 10.473-43.76 17.902-81.532 19.51-81.965 1.417 13.463-.445 68.235.281 98.322a585.633 585.633 0 0 1-8.804 116.294l-18.571 168.04s17.818 9.604 23.87 10.984c8.101 1.831 20.298.665 20.298.665s54.911-162.455 60.403-266.805c3.907-74.075 3.211-100.099-2.951-156.563a998.91 998.91 0 0 0-4.263-33.977c0-.055-.014-.096-.014-.15-.027-.219-.068-.437-.096-.656-6.94-48.431-15.739-82.723-22.611-94.8-6.817-15.479-130.472 33.813-130.294 40.385.301 10.889.15 22.392-.396 34.346a77.411 77.411 0 0 1-.096 1.749c-.874 18.02-2.65 37.092-5.082 56.711l-.574 4.591c-6.551 50.832-28.278 168.631-28.278 168.631l-100.199 135.18c.002-.002.754 8.38 6.215 18.167z"/><path fill="#262b35" d="M878.132 1500.921c-.411-3.789-.838-7.509-1.275-11.174l-155.413 11.954s27.115 15.248 72.882 16.122c38.056.727 70.884-6.028 84.796-7.637-.314-3.003-.643-6.083-.99-9.265z"/><path fill="#262b35" d="M799.035 1537.464c3.933-16.236 7.595-32.584 8.24-49.334.101-2.629 4.2-2.642 4.099 0-.659 17.112-4.367 33.835-8.386 50.424-.622 2.562-4.575 1.477-3.953-1.09z"/><path fill="#ff5f4a" d="M712.724 1260.258c5.929-19.09 25.867-34.307 45.487-39.06a1.6 1.6 0 0 0 .023.074c28.008-8.116 71.308 1.224 85.217 6.47 38.805 14.636 22.378 129.621 30.667 160.515 1.036 2.498 8.019 102.212 9.39 105.253-11.129 20.22-137.41 27.354-185.787-1.784 2.42-26.165 23.066-71.017 22.213-123.38-.721-44.231-12.038-92.539-7.21-108.088z"/><path fill="#ce4949" d="M750.788 1322.981s25.318 36.847 67.294 49.09c24.074 7.022 42.813 7.569 54.43 6.76-.772-7.154-1.063-16.141-1.219-26.168-19.321-3.032-64.028-11.279-120.505-29.682z"/><path fill="#ff867a" d="M723.116 1259.789c23.956-24.628 60.119 39.548 144.324 45.904 29.313 2.213 94.759-125.453 118.173-117.829 16.882 5.497-11.752 157.347-110.849 171.329-99.097 13.981-175.787-74.587-151.648-99.404z"/><path fill="#c66c67" d="M859.024 1309.846c7.689-.286 15.708-1.108 23.234-2.739 2.231-.483 1.216-3.877-.998-3.397-7.215 1.563-14.949 2.322-22.328 2.597-2.28.085-2.187 3.624.092 3.539z"/><path fill="#ff867a" d="M979.746 1176.048c3.339-7.794 2.945-19.136 7.538-14.243 4.592 4.893.586 12.717 3.451 16.455 2.865 3.739 27.645-10.865 29.028-5.792.919 3.368-14.302 8.345-13.635 9.151.667.806 15.158-5.618 16.116-1.363 1.175 5.219-1.143 11.19-6.532 15.218 2.087-.211 3.857-.027 4.2 1.097.922 3.024-47.325 23.345-47.123-2.024.044-5.487 1.816-6.5 6.957-18.499z"/><path fill="#ff5f4a" d="M718.865 1254.883c20.375-20.947 60.283 22.583 119.62 41.11.331 15.425-8.316 50.255-27.813 61.044-64.389-20.221-110.42-83.018-91.807-102.154z"/><path fill="#ce4949" d="M802.632 1283.325c-.28 0-.563-.059-.835-.184-8.742-4.031-15.704-8.305-23.075-12.831-5.905-3.625-12.011-7.375-19.887-11.598-17.239-9.243-31.739-6.664-31.883-6.638a1.996 1.996 0 0 1-.749-3.922c.643-.123 15.964-2.908 34.519 7.041 7.978 4.278 14.135 8.058 20.088 11.714 7.583 4.656 14.131 8.676 22.658 12.607a1.997 1.997 0 0 1-.836 3.811z"/><path fill="#262b35" d="M686.429 1705.044a1.75 1.75 0 0 1-1.673-1.244c-1.864-6.157-.142-25.394-.068-26.211a1.757 1.757 0 0 1 1.9-1.583 1.75 1.75 0 0 1 1.584 1.9c-.489 5.37-1.452 20.308-.068 24.881a1.748 1.748 0 0 1-1.675 2.257z"/><path fill="#7f635d" d="M800.377 1169.198s4.91-13.004-5.317-16.562c-2.655-14.029-15.866-6.071-21.394 2.424-5.763 4.254-10.217 4.877-8.79 16.876 1.08 9.079 6.355 17.928 6.355 17.928s25.064-7.938 29.146-20.666z"/><path fill="#ff867a" d="m773.347 1180.059-6.011 41.691c.412 4.245 17.607 12.212 23.733 6.138.67-.665-.653-6.868-.958-13.766-.511-11.553-.492-25.935-.492-25.935l-16.272-8.128z"/><path fill="#ff867a" d="M774.305 1171.818s2.189 26.011 8.188 27.367c4.793 1.084 7.865.963 13.898-.024 5.027-.822 7.417-5.778 7.141-12.4-.358-8.591-3.129-16.401-4.846-20.497-1.831-4.368-4.832-7.208-8.364-7.343-.937 3.732-7.975 9.582-16.017 12.897z"/><path fill="#ff867a" d="M776.234 1180.013c-.721-.897-2-3.539-2.514-4.586-.977-1.99-2.733-5.524-4.958-2.369-3.237 4.589 2.329 12.326 5.587 11.714 1.588-.298 3.702-2.5 1.885-4.759z"/><path fill="#434a59" d="M788.209 1171.612c.169-.045.685-.22 1.022.358.254.435.426 1.009.393 1.535a.951.951 0 0 1-1.219.849c-.797-.237-1.329-2.44-.196-2.742zM798.529 1170.92c.169-.045.685-.22 1.022.358.254.435.426 1.009.393 1.535a.951.951 0 0 1-1.219.849c-.797-.237-1.329-2.44-.196-2.742z"/><path fill="#ce4949" d="M789.919 1168.134c-.682-.473-1.939-.53-2.697-.266-.783.272-1.713.838-2.15 1.591a.465.465 0 0 0-.126.253l-.002.005a.33.33 0 0 0 .109.405.528.528 0 0 0 .69.152c1.164-.591 2.624-.956 3.906-1.082.618-.06.735-.902.27-1.058zM800.276 1167.718a.432.432 0 0 0-.142-.039c-.371-.034-.844-.154-1.312-.217a.603.603 0 0 0-.097-.017c-.012-.001-.024.001-.036.001-.685-.075-1.339.003-1.627.691a.377.377 0 0 0-.015.253c-.026.321.19.679.593.634.898-.102 1.795-.197 2.702-.209.662-.009.549-1.017-.066-1.097z"/><path fill="#fff" d="M790.647 1181.943s6.413.737 10.908-.884c0 0 .755 3.906-3.676 5.454-4.432 1.547-7.232-4.57-7.232-4.57z"/><path fill="#c66c67" d="M795.566 1180.943a.885.885 0 0 1-.049-1.768c1.405-.08 2.196-1.461 2.204-1.475a.884.884 0 1 1 1.553.847c-.05.092-1.258 2.257-3.655 2.394-.019.002-.036.002-.053.002zM802.049 1194.932c-2.087 1.181-5.896 2.553-11.846 1.916-9.819-1.05-11.528-3.738-11.393-2.2.132 1.487 1.223 12.753 11.094 13.792a622.753 622.753 0 0 1-.189-8.508c1.916-.068 4.005-.335 6.674-.771 2.59-.423 4.474-1.95 5.66-4.229z"/><ellipse cx="3255.497" cy="1812.116" fill="#5cbec6" rx="328.688" ry="22.004"/><path fill="#54678c" d="M2958.046 1111.307h12.402c26.637 0 326.104 21.593 327.21 48.23l25.199 607.131c1.105 26.637-19.592 48.23-46.228 48.23h-289.38c-26.637 0-49.126-21.593-50.232-48.23l-25.199-607.131c-1.106-26.636 19.591-48.23 46.228-48.23z"/><path fill="#e7f2f2" d="M2974.977 1111.307h289.38c26.637 0 49.126 21.593 50.232 48.23l25.199 607.131c1.105 26.637-19.592 48.23-46.228 48.23h-289.38c-26.637 0-49.126-21.593-50.232-48.23l-25.199-607.131c-1.106-26.636 19.591-48.23 46.228-48.23z"/><path fill="#529ae3" d="M2976.876 1118.108h285.575c23.635 0 43.591 19.16 44.572 42.795l25.098 604.683c.987 23.787-17.496 43.071-41.283 43.071h-281.915c-25.504 0-47.038-20.675-48.096-46.18l-24.969-601.575c-.982-23.634 17.383-42.794 41.018-42.794z"/><path fill="#434a59" d="M3079.071 1141.026h86.233a2.885 2.885 0 0 0 2.898-3.023l-.033-.797c-.069-1.663-1.486-3.024-3.149-3.024h-86.233a2.886 2.886 0 0 0-2.898 3.024l.033.797c.069 1.662 1.486 3.023 3.149 3.023zM3177.214 1137.604c.078 1.89 1.674 3.422 3.564 3.422a3.256 3.256 0 0 0 3.28-3.422c-.079-1.89-1.674-3.422-3.564-3.422a3.255 3.255 0 0 0-3.28 3.422zM3062.154 1137.604c.078 1.89 1.674 3.422 3.564 3.422a3.256 3.256 0 0 0 3.28-3.422c-.078-1.89-1.674-3.422-3.564-3.422s-3.359 1.532-3.28 3.422z"/><path fill="#fff" d="M3202.075 1382.811h-147.381c-20.752 0-37.027 16.979-36.165 37.731l1.131 27.25c.861 20.752 18.545 37.731 39.297 37.731h147.381c20.752 0 37.027-16.979 36.165-37.731l-1.131-27.25c-.861-20.752-18.544-37.731-39.297-37.731z"/><path fill="#529ae3" d="M3081.935 1437.209c.561 3.269 2.552 5.268 6.207 5.268 3.698 0 4.805-1.55 4.714-3.749-.121-2.909-2.098-4.215-7.641-5.722-10.124-2.708-13.289-6.525-13.523-12.155-.336-8.108 6.088-12.285 14.505-12.285 9.951 0 15.311 4.787 16.069 12.229h-10.486c-.43-2.516-1.667-4.587-5.222-4.587-2.729 0-4.157 1.259-4.067 3.41.103 2.49 1.924 3.215 7.365 4.739 10.732 3.016 13.845 7.043 14.099 13.147.318 7.655-5.163 12.71-15.821 12.71-9.943 0-16.003-4.983-16.785-13.007h10.586zM3107.787 1407.086h10.757l.323 7.784h-10.757l-.323-7.784zm.482 11.602h10.757l1.279 30.813h-10.757l-1.279-30.813zM3155.364 1445.793c.408 9.832-3.339 15.455-14.886 15.455-10.887 0-14.079-5.628-14.625-10.292h10.433c.442 1.823 1.779 2.994 4.355 2.994 3.603 0 4.45-2.145 4.254-6.875l-.086-2.072c-1.397 2.637-4.271 3.574-7.716 3.574-7.446 0-12.094-5.966-12.464-14.866-.399-9.61 4.787-15.673 11.869-15.673 4.631 0 6.664 1.559 7.5 3.213-.006-.649.112-1.974.226-2.564h10.133c.007 1.568.1 5.241.284 9.673l.723 17.433zm-19.735-12.382c.202 4.866 1.774 7.622 4.773 7.622 3.442 0 4.361-2.326 4.14-7.64-.216-5.21-.717-7.584-4.636-7.584-2.571 0-4.514 1.903-4.277 7.602zM3160.96 1428.328c-.264-6.368-.38-8.247-.497-9.64h10.522c.14.549.348 2.312.416 3.45 1.248-2.146 3.938-4.099 8.23-4.099 6.352 0 9.688 4.288 9.965 10.981l.85 20.481h-10.757l-.776-18.695c-.121-2.922-.837-4.67-3.53-4.67-2.467 0-3.703 1.332-3.525 5.617l.737 17.747h-10.757l-.878-21.172z"/><path fill="#fff" d="M2928.876 1382.811h.602a2.177 2.177 0 0 0 2.188-2.283l-4.546-109.525c-.052-1.256-1.122-2.283-2.378-2.283h-.603a2.178 2.178 0 0 0-2.188 2.283l4.546 109.525c.053 1.255 1.123 2.283 2.379 2.283z"/><path fill="#212422" d="M3310.365 1241.418s-95.838 36.27-107.116 61.458-8.007 42.419-51.687 52.757c-43.68 10.338-57.24.796-87.411 16.738s-19.574 36.431-45.557 49.723c-25.983 13.292-70.343 37.415-70.343 37.415l4.189 100.922s135.308-73.846 150.384-90.584c15.076-16.738 19.187-43.323 35.472-44.8 16.285-1.477 59.257 13.785 87.731 0 28.474-13.784 47.749-71.277 53.309-79.647 5.56-8.369 34.691-15.754 34.691-15.754l-3.662-88.228z"/><path fill="#8a9998" d="M3322.899 1365.02c-18.503 4.943-52.963 12.73-74.958 16.841-30.803 5.757-44.334 11.896-44.334 11.896s19.864 17.022 55.561 20.124c23.905 2.077 50.108-7.527 65.34-15.334l-1.609-33.527z"/><path fill="#404859" d="M3491.13 1813.073c4.409-1.906 4.987-5.821 6.877-9.527.127-.25.876-5.583.883-6.009.031-1.841 5.376-6.705 7.836-2.859 4.85 7.581 11.031-3.986 10.733-.833-.888 9.385 2.581 24.328-.922 25.338-7.461 2.153-42.247 4.531-42.889.876-.384-2.194 9.857-3.69 17.482-6.986zM3380.608 1813.073c4.409-1.906 4.987-5.821 6.877-9.527.127-.25.876-5.583.883-6.009.031-1.841 5.375-6.705 7.836-2.859 4.85 7.581 11.031-3.986 10.733-.833-.888 9.385 2.581 24.328-.922 25.338-7.461 2.153-42.247 4.531-42.889.876-.384-2.194 9.857-3.69 17.482-6.986z"/><path fill="#f2a25c" d="M3344.843 1234.284c-24.493-7.342-36.352 96.848-45.564 102.03-8.787 4.943-88.428 16.234-113.808 18.486-5.151.457-2.606 27.729 3.742 33.131 24.371 20.737 54.586 20.761 124.813-.889 30.816-9.5 39.519-37.886 44.72-62.47 8.954-42.318-.856-86.377-13.903-90.288z"/><path fill="#54678c" d="M3371.371 1434.9c1.013-22.548 2.028-59.967 2.915-62.713 13.893-43.095 103.767-9.705 113.462 2.09 15.241 18.018 14.343 41.087 17.727 79.798 1.521 17.397 18.532 345.643 18.532 345.643s-11.871 3.74-25.379 2.512c-9.582-.871-16.101-2.512-16.101-2.512-30.733-119.024-51.966-339.471-51.966-339.471-1.927 52.309-5.192 342.206-5.192 342.206s-20.902.439-38.083 1.824c-12.689 1.023-16.249-4.856-16.249-4.856s-2.048-203.164.334-364.521z"/><path fill="#40516b" d="m3494.287 1384.106-109.87 36.437s37.122 9.327 78.602 4.415c18.026-2.135 30.893-3.96 39.687-5.341-1.381-14.293-3.403-25.72-8.419-35.511z"/><path fill="#ffe164" d="M3365.681 1419.822c-5.295-83.486-49.133-154.36-34.36-178.304 25.767-41.762 78.42-31.846 98.963-7.755 27.074 31.75 77.154 140.448 71.078 157.629-7.212 10.616-18.42 18.83-79.274 27.835-11.512 1.704-43.891 1.681-56.407.595z"/><path fill="#af5546" d="M3328.345 1181.949s-6.481-3.366-1.788-9.113c13.726-16.808 26.76-7.251 31.174 5.584 2.958 8.6-1.478 17.341-1.478 17.341s-23.784-4.2-27.908-13.812z"/><path fill="#ff867a" d="m3352.727 1188.337 18.242 27.253c2.221 4.242-5.765 13.978-12.103 15.104-1.736.308-4.493 1.172-4.881-2.475l-7.839-29.001 6.581-10.881z"/><path fill="#af5546" d="M3343.941 1165.399s-1.976-5.391-9.298-4.821c-7.322.57-6.147 4.349-9.353 11.656-3.205 7.307 2.153 13.812 11.683 15.822 6.666 1.406 15.683-14.815 6.968-22.657z"/><path fill="#ff867a" d="m3347.316 1178.092 6.708 9.518c2.589 4.431 2.389 10.015-1.291 13.593-3.394 3.3-5.647 5.379-10.674 6.247-4.189.724-7.426-2.533-9.016-7.831-2.062-6.873-2.009-13.789-1.772-17.488.253-3.96 2.396-6.83 5.261-7.945 3.236-1.259 3.461 3.627 10.784 3.906z"/><path fill="#c66c67" d="M3338.793 1192.727a6.312 6.312 0 0 1-3.046-.315c-.757-.269-1.032.949-.283 1.215a7.13 7.13 0 0 0 3.368.347c.788-.108.756-1.356-.039-1.247z"/><path fill="#fff" d="M3343.235 1194.057c-1.497.372-5.186 1.349-8.992 2.82a.506.506 0 0 0-.269.702c.406.787 2.623 1.907 3.809 2.404 2.318.972 5.847.538 6.078-5.368.013-.356-.28-.644-.626-.558z"/><path fill="#ff867a" d="M3351.243 1186.685c.095-.882.056-1.766-.037-2.648-.175-1.676-.048-4.208 2.567-3.245 3.803 1.4 4.249 10.381.177 11.495-3.023.827-2.947-3.381-2.707-5.602z"/><path fill="#af5546" d="M3341.163 1182.322s3.505-.417 3.641-.125c.136.292-.131 1.118-.131 1.118s-4.021-.063-4.481.253c-.46.316-.509-1.064.017-1.233.526-.168.954-.013.954-.013zM3333.89 1183.727s-3.108.925-3.138 1.244.441.981.441.981 3.407-1.56 3.892-1.44c.486.12.12-1.17-.378-1.13-.498.041-.817.345-.817.345z"/><path fill="#ffe164" d="M3397.405 1220.305c-11.401 22.887 102.137 59.714 100.417 64.253-3.574 9.428-13.818 89.387-22.779 113.425-1.806 4.846 23.687 16.089 29.4 12.955 16.265-8.924 35.25-74.004 36.406-124.568.667-29.197-20.934-38.807-43.891-49.024-38.288-17.041-93.48-29.233-99.553-17.041z"/><path fill="#40516b" d="M3430.562 1462.232a1.985 1.985 0 0 1-1.983-1.922c-.492-15.427-9.623-23.685-9.715-23.766a1.988 1.988 0 0 1-.176-2.8 1.983 1.983 0 0 1 2.796-.183c.429.376 10.513 9.399 11.063 26.623a1.985 1.985 0 0 1-1.92 2.047l-.065.001z"/><path fill="#ff867a" d="M3481.844 1397.55s-19.288 7.917-21.879 10.94c-2.591 3.023-7.562 18.308-5.436 17.287s7.739-10.666 7.739-10.666-3.598 13.818-1.295 14.97c2.303 1.151 3.455 0 3.455 0s1.101 2.447 3.501 1.583c2.4-.864 9.021-12.811 9.021-12.811s-1.871 9.212-.432 9.932c1.439.72 6.477-11.227 9.788-12.523 3.311-1.295 8.541-3.769 9.668-9.945 1.128-6.176-7.797-13.805-14.13-8.767z"/><path fill="#434a59" d="M3334.17 1188.83c.099.663-.148 1.249-.551 1.309s-.81-.429-.908-1.092c-.099-.663.148-1.249.551-1.309.403-.06.81.429.908 1.092zM3342.315 1187.023c.099.663-.148 1.249-.551 1.309-.403.06-.81-.429-.908-1.092-.099-.663.148-1.249.551-1.309.403-.06.809.429.908 1.092z"/><path fill="#ff867a" d="M3190.451 1360.306s-29.267 7.589-34.914 11.216-15.265 9.076-14.579 10.653c.686 1.577 14.604-4.452 14.604-4.452s3.988 9.909 8.822 11.421c4.834 1.512 7.486-2.072 7.486-2.072s18.646-2.584 22.752-11.936c4.107-9.352-4.171-14.83-4.171-14.83z"/><path fill="#f2a25c" d="M3449.3 1263.788c-.182 0-.367-.025-.551-.078-23.766-6.792-46.767-21.219-46.996-21.363a2 2 0 1 1 2.135-3.383c.225.142 22.759 14.269 45.961 20.9a2 2 0 0 1-.549 3.924zM3507.752 1294.33c-.431 0-.866-.139-1.231-.425l-9.932-7.773a2.001 2.001 0 0 1 2.465-3.151l9.931 7.773a2 2 0 0 1-1.233 3.576z"/><path fill="#54678c" d="M3685.876 880.93s-5.044 67.008-92.883 58.097c-105.471-10.7-137.881-85.86-99.58-116.708s151.289-44.698 180.015-19.778 12.448 78.389 12.448 78.389z"/><ellipse cx="3850.856" cy="1988.479" fill="#5cbec6" rx="362.211" ry="14.724"/><path fill="#404859" d="M3735.583 1967.349c12.772-5.592 14.396-16.964 19.832-27.749.366-.727 2.467-16.219 2.482-17.455.065-5.344 15.512-19.538 22.707-8.408 14.183 21.939 29.733-12.344 28.91-3.187-2.45 27.256 10.059 71.205-.093 74.186-21.627 6.351-122.571 13.733-124.484 3.132-1.149-6.363 28.559-10.848 50.646-20.519zM3952.621 1967.349c12.772-5.592 14.396-16.964 19.832-27.749.367-.727 2.467-16.219 2.482-17.455.065-5.344 15.512-19.538 22.707-8.408 14.183 21.939 29.733-12.344 28.91-3.187-2.45 27.256 10.059 71.205-.093 74.186-21.627 6.351-122.571 13.733-124.484 3.132-1.15-6.363 28.558-10.848 50.646-20.519z"/><path fill="#7f635d" d="M3980.721 967.089c-25.505-56.333-219.435-129.418-270.591-141.456-3.743 56.725-29.909 92.062-60.867 153.249-43.277 85.535 75.219 946.512 75.219 946.512s15.169 11.725 51.39 11.725c46.388 0 54.763-11.725 54.763-11.725l-26.636-799.621 138.792 799.621s6.974 7.804 52.95 11.268c42.174 3.177 48.882-11.268 48.882-11.268s-34.646-893.687-63.902-958.305z"/><path fill="#4c3b38" d="m3993.797 1042.696-324.458 7.523s79.129 45.964 211.02 56.121c50.87 3.917 90.637 6.073 120.321 7.244-2.28-26.466-4.58-50.353-6.883-70.888z"/><path fill="#54678c" d="M4000.775 844.368c8.578-124.377 31.087-193.083 19.217-235.533-15.22-54.429-94.84-91.531-140.403-97.856-37.476-5.202-129.51-2.035-162.859 21.321-53.485 37.458-84.78 501.406-84.78 501.406s43.915 29.04 166.412 44.657c159.6 20.347 213.647 0 213.647 0s-21.407-86.477-11.234-233.995z"/><path fill="#434a59" d="M4003.448 1024.792c-2.475-21.945-4.669-50.294-5.257-84.404l-138.057-61.811c-.001 0 60.192 114.803 143.314 146.215z"/><path fill="#c6c0ba" d="m3715.643 838.469 173.035-20.329-.664 6.891c-.495 5.143-170.963 25.19-170.963 25.19a25.198 25.198 0 0 1-5.137.031l-359.059-34.525c-6.632-.639-11.49-6.533-10.852-13.165l.002-.022 373.638 35.929z"/><path fill="#e2ddd7" d="m3888.679 818.141-173.036 20.328-373.637-35.929 173.035-20.329z"/><path fill="#c6c0ba" d="m3714.89 850.196-365.892-33.829a8.615 8.615 0 0 1-7.822-8.566l-.351-253.389c-.013-9.579 7.741-17.356 17.321-17.369l339.013 34.599c9.579-.013 17.355 7.741 17.369 17.321l.362 261.233z"/><path fill="#fff" d="M3515.427 691.828c.844 12.324-5.756 23.063-14.743 23.987-8.987.924-16.957-8.317-17.802-20.641-.844-12.324 5.756-23.063 14.743-23.987 8.987-.924 16.957 8.317 17.802 20.641z"/><path fill="#4c3b38" d="M3803.997 1128.345a2.572 2.572 0 0 1-2.568-2.485c-.564-16.981-18.5-39.996-18.681-40.227a2.57 2.57 0 0 1 4.042-3.177c.782.994 19.157 24.565 19.779 43.234a2.57 2.57 0 0 1-2.484 2.654l-.088.001zM4022.431 1909.985a1.028 1.028 0 0 1-1.003-1.26c.044-.19 4.346-19.276-.011-44.801-3.112-18.221-1.924-44.801-.876-68.251.443-9.909.861-19.268.861-26.605 0-14.31-1.582-35.303-2.976-53.825-.951-12.624-1.849-24.549-2.107-32.564-.338-10.484-4.381-67.061-8.292-121.774-3.462-48.458-7.042-98.565-8.229-119.039-.52-8.963-1.332-22.469-2.294-38.486-3.659-60.854-9.782-162.706-9.782-181.441 0-23.198-8.175-116.004-8.257-116.939a1.028 1.028 0 0 1 .934-1.115 1.023 1.023 0 0 1 1.115.934c.082.935 8.265 93.831 8.265 117.12 0 18.674 6.12 120.487 9.778 181.319.963 16.018 1.775 29.525 2.294 38.491 1.186 20.459 4.766 70.56 8.228 119.01 4.091 57.252 7.955 111.329 8.294 121.854.258 7.971 1.154 19.873 2.103 32.476 1.398 18.558 2.982 39.592 2.982 53.98 0 7.384-.419 16.765-.863 26.697-1.043 23.348-2.226 49.811.847 67.814 4.431 25.957.033 45.417-.012 45.611a1.024 1.024 0 0 1-.999.794zM3810.188 1914.98c-.568 0-1.028-.46-1.028-1.028v-59.734c0-1.526.038-5.073.093-10.232 1.356-127.119-.803-203.342-6.418-226.551-9.748-40.288-18.562-225.131-19.092-241.046-.159-4.766-1.096-15.295-2.282-28.627-3.602-40.496-9.631-108.275-5.334-139.309 5.646-40.776 7.596-102.952 7.616-103.575.016-.567.504-1.026 1.059-.996.568.017 1.014.491.997 1.059-.019.624-1.974 62.908-7.636 103.794-4.265 30.802 1.752 98.435 5.346 138.844 1.189 13.364 2.128 23.919 2.289 28.742.53 15.897 9.326 200.498 19.036 240.631 5.656 23.375 7.833 99.768 6.476 227.057-.054 5.148-.092 8.687-.092 10.21v59.734a1.03 1.03 0 0 1-1.03 1.027z"/><path fill="#f27872" d="M3443.412 840.815c11.382 6.49 73.606 7.944 73.606 7.944s4.427-19.532-12.072-29.47c-8.174-4.924-24.938-5.482-24.938-5.482s-.623-2.41-14.259-3.638c-9.542-.859-11.403 6.697-11.661 11.313-.491-3.617-2.49-9.331-9.792-13.248-11.431-6.132-12.266 26.091-.884 32.581z"/><path fill="#54678c" d="M4011.662 589.614s201.066 270.682 145.958 378.745c-59.265 116.216-356.518-85.909-339.78-131.389 3.872-10.52 47.3-60.409 47.3-60.409l190.743 100.871s-95.167-149.638-90.927-220.006c3.66-60.767 46.706-67.812 46.706-67.812z"/><path fill="#434a59" d="M4118.017 927.472a3.701 3.701 0 0 1-3.313-2.049c-12.769-25.535-59.712-44.358-60.183-44.547a3.703 3.703 0 0 1 2.722-6.886c2.038.806 50.045 20.049 64.081 48.122a3.7 3.7 0 0 1-1.655 4.966 3.676 3.676 0 0 1-1.652.394zM4005.872 790.88c-.941 0-1.865-.44-2.45-1.265-46.311-65.327-61.34-166.74-61.487-167.757a3.002 3.002 0 0 1 2.542-3.397 3.008 3.008 0 0 1 3.398 2.542c.144 1.002 14.978 101.012 60.441 165.143a3 3 0 0 1-2.444 4.734z"/><path fill="#ff867a" d="M3840.04 794.665s-47.63-33.775-56.858-25.142c-9.228 8.633-33.612 26.102-28.14 29.927 5.472 3.826 21.683-11.327 21.683-11.327s-19.263 23.4-17.579 27.241c1.685 3.841 6.511 2.138 6.511 2.138s.425 5.228 3.589 7.981 23.551-11.886 23.551-11.886 43.449 42.037 59.212 13.361c15.765-28.676-11.969-32.293-11.969-32.293z"/><path fill="#725252" d="M3775.614 366.677c-22.203 13.027 6.436 47.01 7.733 53.732 1.297 6.722 33.619 46.782 44.754 45.493 11.135-1.29 18.245-28.762 18.07-32.217-.175-3.455 6.799-33.526.491-38.546-6.308-5.019-27.747-14.204-27.747-14.204s9.815-2.162 6.826-4.794c-13.453-11.845-33.092-19.459-50.127-9.464z"/><path fill="#ff867a" d="m3830.165 430.879 26.797 76.934c1.331 7.695-11.55 43.693-44.805 36.292-4.514-1.005-8.2-22.348-6.159-30.898l5.45-53.188 18.717-29.14z"/><path fill="#ff867a" d="m3820.272 412.575 13.234 29.935c4.31 11.052-4.677 27.459-26.303 31.102-23.002 3.875-27.997-6.753-29.714-19.422-2.228-16.435.502-44.444 2.377-52.803 3.013-13.44 10.776-3.38 22.016 1.927 4.7 2.219 14.926 3.271 18.39 9.261z"/><path fill="#fff" d="M3779.545 436.951s10.645 2.537 25.496.696c0 0-2.515 7.863-8.297 11.191-5.783 3.329-13.289-.496-17.199-11.887z"/><path fill="#ff867a" d="M3826.837 416.825c.699-3.711 2.598-9.063 7.593-5.319 7.266 5.447 3.993 23.505-5.462 23.285-7.021-.165-2.499-16.013-2.131-17.966z"/><path fill="#c66c67" d="M3790.376 428.384c-2.33-.3-4.4-1.098-6.33-2.437-1.461-1.014-2.756 1.43-1.31 2.433a15.768 15.768 0 0 0 7 2.692c1.748.225 2.402-2.461.64-2.688z"/><path fill="#434a59" d="M3799.723 415.423c-.285-.036-1.162-.21-1.633.832-.355.784-.556 1.783-.425 2.653.153 1.016 1.208 1.555 2.133 1.137 1.282-.578 1.839-4.378-.075-4.622zM3782.606 416.634c-.285-.036-1.161-.21-1.633.832-.355.784-.556 1.783-.425 2.653.153 1.016 1.207 1.555 2.133 1.138 1.282-.578 1.839-4.378-.075-4.623z"/><path fill="#725252" d="M3785.92 407.918c-2.005.229-3.914.781-5.757 1.529-1.707.693-3.07-2.981-1.364-3.673a24.708 24.708 0 0 1 6.518-1.662c1.851-.213 2.448 3.594.603 3.806zM3798.241 404.419c2.383.274 4.781.411 7.152.787 2.494.395 1.931 4.273-.562 3.879-2.371-.375-4.769-.513-7.152-.787-2.512-.289-1.94-4.166.562-3.879zM3815.912 406.713s1.911 3.473 2.141 9.427c.229 5.954-1.011 10.778 3.867 10.882 4.784.102 3.22-5.393 4.918-10.196 1.698-4.804-2.561-10.902-7.253-11.717-4.692-.816-3.673 1.604-3.673 1.604z"/><path fill="#c66c67" d="M3832.702 456.414c-1.075-3.441-15.291 10.211-31.171 11.925-10.487 1.132-17.142-.798-20.467-2.241 3.761 6.382 11.101 10.048 26.138 7.515a47.753 47.753 0 0 0 2.914-.595l-1.672 16.317c13.003-4.06 25.288-29.626 24.258-32.921z"/><path fill="#434a59" d="M3639.759 938.41a2.998 2.998 0 0 1-2.989-3.297l8.056-81.018c.165-1.649 1.648-2.844 3.282-2.688a3 3 0 0 1 2.688 3.282l-8.057 81.018a2.999 2.999 0 0 1-2.98 2.703z"/><defs><path id="a" d="m1946.756 1883.819 245.536 3.761a149.747 149.747 0 0 0 119.906-57.046c58.489-74.209 147.327-206.268 140.93-317.047-9.482-164.209-9.432-205.764-181.471-167.36-172.038 38.404-357.002 124.688-363.878 192.364-6.877 67.675 38.977 345.328 38.977 345.328z"/></defs><clipPath id="b"><use overflow="visible" xlink:href="#a"/></clipPath><g clip-path="url(#b)"><path fill="#348c93" d="M2346.908 1696.481c-26.457-67.962-90.095 5.685-102.716-31.557-12.621-37.243 189.99-200.282 74.832-236.966-115.159-36.683-158.69 186.016-198.511 170.603-39.821-15.413-47.026-78.228-100.988-26.066-29.326 28.347-39.401 112.396-42.357 185.82-2.942 73.076 36.577 136.082 97.721 156.413l38.021 12.643c48.108 15.997 102.306 3.048 143.783-34.728 55.426-50.478 117.401-126.326 90.215-196.162z"/><path fill="#5cbec6" d="M2070.395 1658.296c1.515-.864 3.27-.25 3.925 1.379l43.397 108.244a6459.262 6459.262 0 0 1 6.783-16.699c17.772-43.578 47.042-94.302 76.818-140.854l-1.045-56.399c-.034-1.833 1.275-3.473 2.925-3.662 1.649-.19 3.012 1.143 3.047 2.978l.891 48.05c48.086-74.175 95.627-135.564 96.415-136.578 1.124-1.447 3.011-1.694 4.221-.552 1.207 1.142 1.272 3.241.147 4.688-.792 1.018-48.93 63.181-97.173 137.778l35.523-5.792c1.648-.27 3.065.994 3.172 2.816.104 1.824-1.145 3.52-2.79 3.789l-40.694 6.633c-29.516 46.154-58.485 96.365-76.056 139.449a6237.89 6237.89 0 0 0-6.999 17.235l116.869-40.611c1.607-.559 3.211.413 3.579 2.169.369 1.757-.635 3.634-2.242 4.192l-121.409 42.189c-37.985 94.366-44.064 117.233-44.125 117.467-.462 1.805-2.12 2.971-3.704 2.602a2.667 2.667 0 0 1-.221-.062c-1.445-.475-2.249-2.156-1.809-3.876.249-.972 6.136-23.312 44.494-118.568l-45.5-113.489c-.652-1.629.047-3.651 1.561-4.516z"/></g><path fill="#5cbca5" d="M2024.385 1886.282s-5.537-189.785-88.793-244.169c-83.256-54.384-118.647 30.432-94.93 97.289 20.656 58.231 99.036 126.451 118.917 143.084a16.289 16.289 0 0 0 10.457 3.796h54.349z"/><path fill="#7bdbb9" d="M1990.748 1863.08a477.322 477.322 0 0 0-9.456-27.116l14.737-75.074c.293-1.493-.359-3.119-1.457-3.63-1.098-.513-2.226.283-2.519 1.777l-13.654 69.554c-6.973-17.369-15.304-35.293-25.722-55.445l9.945-83.459c.183-1.537-.578-3.076-1.699-3.437-1.123-.365-2.179.591-2.362 2.127l-9.317 78.188a957.498 957.498 0 0 0-1.835-3.469c-6.734-12.673-17.144-29.716-28.146-46.973l6.318-49.527c.196-1.533-.554-3.082-1.673-3.46-1.119-.379-2.185.557-2.381 2.089l-5.79 45.39c-8.533-13.274-17.221-26.412-24.659-37.521l1.501-30.238c.078-1.563-.779-3.007-1.912-3.224-1.134-.217-2.116.875-2.193 2.439l-1.255 25.273c-9.574-14.228-16.297-23.96-16.489-24.238-.814-1.177-2.116-1.279-2.909-.227-.793 1.052-.776 2.859.038 4.036.194.28 7.044 10.197 16.753 24.63l-21.097 2.222c-1.125.118-1.904 1.491-1.74 3.065.142 1.367.948 2.436 1.894 2.617.143.027.291.034.439.019l24.117-2.54c7.295 10.896 15.787 23.735 24.142 36.72l-41.515-4.836c-1.136-.133-2.071 1.035-2.087 2.608-.016 1.521.832 2.864 1.915 3.07.037.007.075.013.112.017l45.522 5.303c10.898 17.096 21.194 33.953 27.844 46.469.833 1.568 1.649 3.116 2.457 4.656l-58.889 1.747c-1.132.033-1.966 1.34-1.863 2.918.093 1.423.915 2.581 1.906 2.77.108.021.218.03.329.026l61.455-1.823c10.577 20.479 18.97 38.617 25.959 56.218l-58.112-8.109c-1.136-.158-2.085.986-2.121 2.557-.035 1.535.816 2.908 1.915 3.118l.078.013 60.591 8.455a469.944 469.944 0 0 1 9.135 26.239c.323 1.023 1.005 1.7 1.737 1.84.328.063.665.018.985-.151 1.034-.548 1.495-2.192 1.028-3.673z"/></svg>