<svg xmlns="http://www.w3.org/2000/svg" enable-background="new 0 0 24 24" viewBox="0 0 24 24" ><circle cx="12" cy="9.25" r="6" class="uim-quaternary"></circle><path class="uim-tertiary" d="m19.574 17.013-2.565-4.453-.01.004A5.992 5.992 0 0 1 12 15.25c-.129 0-.254-.011-.381-.02l.39.67 2.374 4.112a.5.5 0 0 0 .862.006L16.57 17.8l2.579-.038a.5.5 0 0 0 .426-.75z"></path><path class="uim-primary" d="M11.619 15.23a5.99 5.99 0 0 1-4.62-2.668l-2.564 4.45a.5.5 0 0 0 .426.75l2.579.038 1.324 2.218a.5.5 0 0 0 .862-.006L12 15.9l.004-.007-.385-.662z"></path></svg>